<svg fill="none" height="16" viewBox="0 0 18 16" width="18" xmlns="http://www.w3.org/2000/svg">
	<path clip-rule="evenodd" d="M7.50009 0.25C6.2365 0.25 5.25009 1.29897 5.25009 2.54545V3.21289H2.88235C1.51073 3.21289 0.25 4.22348 0.25 5.64356V12.2822C0.25 13.7023 1.51073 14.7129 2.88235 14.7129H15.1176C16.4893 14.7129 17.75 13.7023 17.75 12.2822V5.64356C17.75 4.22348 16.4893 3.21289 15.1176 3.21289H12.7501V2.54545C12.7501 1.29897 11.7637 0.25 10.5001 0.25H7.50009ZM11.7664 4.71289C11.84 4.73697 11.9185 4.75 12.0001 4.75C12.0817 4.75 12.1602 4.73697 12.2337 4.71289H15.1176C15.8252 4.71289 16.25 5.20723 16.25 5.64356V12.2822C16.25 12.7186 15.8252 13.2129 15.1176 13.2129H2.88235C2.17479 13.2129 1.75 12.7186 1.75 12.2822V5.64356C1.75 5.20723 2.17479 4.71289 2.88235 4.71289H5.76644C5.83997 4.73697 5.91851 4.75 6.00009 4.75C6.08167 4.75 6.16021 4.73697 6.23374 4.71289H11.7664ZM11.2501 3.21289V2.54545C11.2501 2.08487 10.8934 1.75 10.5001 1.75H7.50009C7.10683 1.75 6.75009 2.08487 6.75009 2.54545V3.21289H11.2501Z" fill="currentColor" fill-rule="evenodd" />
</svg>