<?xml version="1.0"?>

<svg
	height="18"
	viewBox="0 0 18 18"
	width="18"
	xmlns="http://www.w3.org/2000/svg"
>
	<path clip-rule="evenodd" d="M9.08542 0.0791016C8.87427 -0.0263672 8.62573 -0.0263672 8.41458 0.0791016L0.414581 4.0791C0.160492 4.20605 0 4.46582 0 4.75C0 5.03418 0.160492 5.29395 0.414581 5.4209L8.41458 9.4209C8.62573 9.52637 8.87427 9.52637 9.08542 9.4209L17.0854 5.4209C17.3395 5.29395 17.5 5.03418 17.5 4.75C17.5 4.46582 17.3395 4.20605 17.0854 4.0791L9.08542 0.0791016ZM8.75 7.91162L2.42706 4.75L8.75 1.58838L15.0729 4.75L8.75 7.91162ZM0.414612 12.0791L3.91141 10.3306L5.58844 11.1694L2.42706 12.75L8.75 15.9116L15.0729 12.75L11.9116 11.1694L13.5886 10.3306L17.0854 12.0791C17.3395 12.2061 17.5 12.4658 17.5 12.75C17.5 13.0342 17.3395 13.2939 17.0854 13.4209L9.08539 17.4209C8.87427 17.5264 8.62573 17.5264 8.41461 17.4209L0.414612 13.4209C0.160522 13.2939 0 13.0342 0 12.75C0 12.4658 0.160522 12.2061 0.414612 12.0791Z" fill-rule="evenodd" transform="translate(0.25 0.25)" />
</svg>