<svg fill="none" height="16" width="16" xmlns="http://www.w3.org/2000/svg">
	<path clip-rule="evenodd" d="M8 0c4.412 0 8 3.587 8 8s-3.588 8-8 8-8-3.587-8-8 3.588-8 8-8zM3.406 12.594A6.47 6.47 0 008 14.5a6.47 6.47 0 004.594-1.906c.6-.6 1.068-1.294 1.396-2.07.338-.799.51-1.649.51-2.524a6.455 6.455 0 00-1.906-4.594A6.47 6.47 0 008 1.5a6.47 6.47 0 00-4.594 1.906A6.455 6.455 0 001.5 8a6.455 6.455 0 001.906 4.594z" fill="#6B6C7E" fill-rule="evenodd" />
	<path d="M12.832 2l1.273 1.273L3.273 14.105 2 12.832z" fill="#6B6C7E" />
</svg>