<svg height="24" viewBox="0 0 18 18" width="24" xmlns="http://www.w3.org/2000/svg">
	<path clip-rule="evenodd" d="M2.03 1.5a.25.25 0 0 1 .236.17L4.73 9.06a2.25 2.25 0 0 0 .52 4.44h9.5a.75.75 0 0 0 0-1.5h-9.5a.75.75 0 0 1 0-1.5h9.261a1.75 1.75 0 0 0 1.673-1.235l1.385-4.5A1.75 1.75 0 0 0 15.896 2.5H4.124l-.435-1.303A1.75 1.75 0 0 0 2.03 0H.75a.75.75 0 0 0 0 1.5h1.28ZM13.75 9h.761a.25.25 0 0 0 .24-.176l1.384-4.5A.25.25 0 0 0 15.896 4H4.624l1.61 4.83A.25.25 0 0 0 6.47 9h7.279Zm-6.5 8.25a1.5 1.5 0 1 0 0-3 1.5 1.5 0 0 0 0 3Zm7 0a1.5 1.5 0 1 0 0-3 1.5 1.5 0 0 0 0 3Z" fill="currentColor" fill-rule="evenodd" />
</svg>