<svg fill="none" height="69" viewBox="0 0 69 69" width="69" xmlns="http://www.w3.org/2000/svg">
	<path clip-rule="evenodd" d="M55.9274 18.032V14.8516L41.8309 28.9076C41.0223 29.7027 39.9307 30.1609 38.7852 30.1609H38.7717L23.7588 30.134L12.1016 45.6455C8.62464 50.0254 1.94026 45.2412 5.20159 40.4705L18.1256 23.2475C18.9477 22.1559 20.2145 21.5225 21.5756 21.5225H21.5891L36.9793 21.5494L49.8225 8.76016H46.642C40.8201 8.36934 40.8741 0.337305 46.642 0.0273438H60.2938C62.8813 0.0273438 64.6602 1.98145 64.6602 4.39375V18.032C64.6332 23.5979 56.3451 23.9887 55.9274 18.032ZM64.6875 30.1601H56.0625C53.6771 30.1601 51.75 32.0872 51.75 34.4726V64.6601C51.75 67.0454 53.6771 68.9726 56.0625 68.9726H64.6875C67.0729 68.9726 69 67.0454 69 64.6601V34.4726C69 32.0872 67.0729 30.1601 64.6875 30.1601ZM30.1875 43.0976H38.8125C41.1979 43.0976 43.125 45.0247 43.125 47.4101V64.6601C43.125 67.0454 41.1979 68.9726 38.8125 68.9726H30.1875C27.8021 68.9726 25.875 67.0454 25.875 64.6601V47.4101C25.875 45.0247 27.8021 43.0976 30.1875 43.0976ZM4.3125 56.0351H12.9375C15.3229 56.0351 17.25 57.9622 17.25 60.3476V64.6601C17.25 67.0454 15.3229 68.9726 12.9375 68.9726H4.3125C1.92715 68.9726 0 67.0454 0 64.6601V60.3476C0 57.9622 1.92715 56.0351 4.3125 56.0351Z" fill="#E7E7ED" fill-rule="evenodd" />
</svg>