<svg fill="none" height="16" width="16" xmlns="http://www.w3.org/2000/svg">
	<path clip-rule="evenodd" d="M4.897 6a.402.402 0 01-.272-.1.367.367 0 01-.13-.253c0-.05.005-.1.025-.15.015-.044.037-.1.07-.172l.766-1.747.079-.181a.853.853 0 01.109-.197.504.504 0 01.175-.144.561.561 0 01.26-.056c.103 0 .19.019.262.056.072.035.131.082.175.14.037.05.072.107.1.166l.09.21.785 1.734c.072.15.103.256.103.335a.334.334 0 01-.122.253.4.4 0 01-.281.106.398.398 0 01-.17-.031.383.383 0 01-.12-.09.573.573 0 01-.091-.145l-.031-.066-.038-.084-.116-.271H5.45l-.115.278c-.06.146-.112.243-.16.3-.062.071-.155.109-.278.109zm1.087-2.025l.291.712H5.7l.284-.712z" fill="currentColor" fill-rule="evenodd" />
	<path d="M8 9H4a1 1 0 110-2h4a1 1 0 110 2z" fill="currentColor" />
	<path clip-rule="evenodd" d="M12 3h2c1.104 0 2 .897 2 2v9c0 1.103-.896 2-2 2H5c-1.104 0-2-.897-2-2v-2H2c-1.104 0-2-.897-2-2V2C0 .897.896 0 2 0h8c1.104 0 2 .897 2 2v1zM2 2v8h8V2H2zm12 12H5v-2h5c1.104 0 2-.897 2-2V5h2v9z" fill="currentColor" fill-rule="evenodd" />
</svg>