<svg fill="none" height="25" viewBox="0 0 21 25" width="21" xmlns="http://www.w3.org/2000/svg">
	<path clip-rule="evenodd" d="M7.48135 0.350122C7.07015 0.34679 6.7308 0.680714 6.72749 1.09192L6.70867 3.42875C6.70543 3.83134 7.02602 4.15716 7.4286 4.16042C7.8398 4.16375 8.17915 3.82983 8.18246 3.41862L8.20128 1.08179C8.20452 0.679203 7.88393 0.353385 7.48135 0.350122ZM2.16677 2.08894C2.45506 1.79569 2.93118 1.79166 3.22441 2.08L5.03513 3.86056C5.32218 4.14283 5.32606 4.59987 5.04384 4.88695C4.75554 5.18021 4.27943 5.18423 3.9862 4.89589L2.17548 3.11533C1.88843 2.83307 1.88455 2.37602 2.16677 2.08894ZM14.4858 15.1466L14.7326 14.5577L15.3355 14.327L18.2364 13.2173L8.83774 8.73579L13.1272 18.3893L14.4858 15.1466ZM14.0721 20.0363L15.8826 15.7149L19.8622 14.1926C20.6827 13.8787 20.7286 12.7518 19.9362 12.374L8.26805 6.81028C7.42561 6.40858 6.53108 7.25686 6.9064 8.10153L12.218 20.0554C12.5743 20.8573 13.7331 20.8453 14.0721 20.0363ZM1.23669 6.58263C0.825474 6.586 0.491594 6.92541 0.494997 7.33662C0.498329 7.73919 0.824192 8.05972 1.22677 8.05642L3.64451 8.03661C4.05572 8.03324 4.3896 7.69382 4.3862 7.28261C4.38287 6.88004 4.05701 6.55951 3.65443 6.56281L1.23669 6.58263Z" fill="#6B6C7E" fill-rule="evenodd" />
</svg>