<svg fill="currentColor" height="21" viewBox="0 0 21 21" width="21" xmlns="http://www.w3.org/2000/svg">
	<path clip-rule="evenodd" d="M7.12274 0.685083C6.71154 0.681751 6.37218 1.01567 6.36887 1.42688L6.35006 3.76371C6.34681 4.1663 6.66741 4.49212 7.06999 4.49538C7.48118 4.49871 7.82054 4.16479 7.82385 3.75358L7.84267 1.41675C7.84591 1.01416 7.52532 0.688346 7.12274 0.685083ZM1.80816 2.42391C2.09645 2.13065 2.57257 2.12662 2.8658 2.41497L4.67652 4.19552C4.96357 4.47779 4.96744 4.93484 4.68522 5.22191C4.39693 5.51517 3.92081 5.51919 3.62759 5.23085L1.81686 3.45029C1.52982 3.16803 1.52594 2.71098 1.80816 2.42391ZM14.1272 15.4816L14.374 14.8926L14.9769 14.662L17.8778 13.5523L8.47913 9.07075L12.7686 18.7243L14.1272 15.4816ZM13.7135 20.3712L15.524 16.0498L19.5036 14.5275C20.3241 14.2136 20.37 13.0868 19.5776 12.7089L7.90944 7.14524C7.067 6.74354 6.17247 7.59182 6.54779 8.43649L11.8594 20.3903C12.2157 21.1922 13.3745 21.1803 13.7135 20.3712ZM0.878078 6.91759C0.466862 6.92096 0.132982 7.26038 0.136385 7.67158C0.139717 8.07415 0.46558 8.39468 0.868158 8.39138L3.2859 8.37157C3.69711 8.3682 4.03099 8.02878 4.02759 7.61757C4.02426 7.215 3.6984 6.89447 3.29582 6.89777L0.878078 6.91759Z" fill="currentColor" fill-rule="evenodd" />
</svg>