<svg fill="none" height="40" width="40" xmlns="http://www.w3.org/2000/svg">
	<path d="M30.047.837a2.608 2.608 0 00-.74 1.824c0 .662.25 1.323.74 1.825l1.3 1.33H2.49C1.113 5.817 0 6.957 0 8.367s1.113 2.55 2.49 2.55h28.856l-1.3 1.33a2.617 2.617 0 000 3.65 2.472 2.472 0 003.565 0l5.572-5.705c.475-.486.74-1.14.74-1.825s-.265-1.338-.74-1.824L33.61.837a2.472 2.472 0 00-3.564 0zM6.39 24.103L.816 29.808a2.607 2.607 0 00-.74 1.825c0 .685.265 1.339.74 1.825l5.572 5.705a2.472 2.472 0 003.564 0 2.61 2.61 0 00.74-1.825c0-.661-.25-1.322-.74-1.825l-1.3-1.33H37.51c1.377 0 2.49-1.14 2.49-2.55s-1.113-2.55-2.49-2.55H8.654l1.3-1.33a2.617 2.617 0 000-3.65 2.472 2.472 0 00-3.565 0z" fill="currentColor" />
</svg>