<?xml version="1.0"?>

<svg
	fill="none"
	height="80"
	viewBox="0 0 80 80"
	width="80"
	xmlns="http://www.w3.org/2000/svg"
>
	<path d="M25 10C25 7.23858 27.2386 5 30 5H50C52.7614 5 55 7.23858 55 10V22.5H70C72.7614 22.5 75 24.7386 75 27.5V70C75 72.7614 72.7614 75 70 75H10C7.23858 75 5 72.7614 5 70V45C5 42.2386 7.23858 40 10 40H25V10Z" fill="white" />
	<path d="M73.75 73.7499H6.25L21.0969 62.731L23.687 65.3211C25.7617 67.3957 29.1253 67.3957 31.2 65.3211C32.706 63.815 33.1188 61.6296 32.4382 59.7512H40.007C42.941 59.7512 45.3195 57.3728 45.3195 54.4388C45.3195 52.7436 44.5255 51.2338 43.2891 50.2612H47.5684C46.8878 52.1396 47.3005 54.3249 48.8066 55.831C50.8812 57.9057 54.2449 57.9057 56.3195 55.831L63.4506 48.7C65.5252 46.6253 65.5252 43.2617 63.4506 41.187L57.774 35.5104L73.75 23.6536V73.7499Z" fill="#E7EFFF" />
	<path clip-rule="evenodd" d="M23.75 10C23.75 6.54822 26.5482 3.75 30 3.75H50C53.4518 3.75 56.25 6.54822 56.25 10V21.25H70C73.4518 21.25 76.25 24.0482 76.25 27.5V70C76.25 73.4518 73.4518 76.25 70 76.25H10C6.54822 76.25 3.75 73.4518 3.75 70V45C3.75 41.5482 6.54822 38.75 10 38.75H23.75V10ZM23.75 41.25H10C7.92893 41.25 6.25 42.9289 6.25 45V70C6.25 72.0711 7.92893 73.75 10 73.75H24.9995C24.2149 72.7054 23.75 71.407 23.75 70V66.8579C23.75 66.3059 24.4505 65.9897 24.9371 66.2503C25.2063 66.3944 25.4853 66.5137 25.7708 66.6081C26.0473 66.6996 26.25 66.9485 26.25 67.2398V70C26.25 72.0711 27.9289 73.75 30 73.75H44.9995C44.2149 72.7054 43.75 71.407 43.75 70V58.4689C43.75 58.3024 43.8178 58.1439 43.9301 58.021C44.7931 57.0764 45.3195 55.8191 45.3195 54.4388C45.3195 53.0081 44.7539 51.7095 43.8341 50.7543C43.7809 50.6991 43.75 50.6258 43.75 50.5491C43.75 50.3901 43.8789 50.2612 44.0379 50.2612H45.625C45.9702 50.2612 46.25 50.541 46.25 50.8862V70C46.25 72.0711 47.9289 73.75 50 73.75H70C72.0711 73.75 73.75 72.0711 73.75 70V27.5C73.75 25.4289 72.0711 23.75 70 23.75H50C47.9289 23.75 46.25 25.4289 46.25 27.5V39.0113C46.25 39.3565 45.9702 39.6363 45.625 39.6363H44.375C44.0298 39.6363 43.75 39.3565 43.75 39.0113V27.5C43.75 24.0482 46.5482 21.25 50 21.25H53.75V10C53.75 7.92893 52.0711 6.25 50 6.25H30C27.9289 6.25 26.25 7.92893 26.25 10V41.6274C26.25 41.9187 26.0473 42.1676 25.7708 42.2591C25.4853 42.3535 25.2063 42.4728 24.9371 42.617C24.4505 42.8775 23.75 42.5613 23.75 42.0094V41.25Z" fill="#C9CFDB" fill-rule="evenodd" />
	<path d="M52.9095 42.1363L50.5744 39.8011C49.4761 38.7028 49.4761 36.9221 50.5744 35.8237C51.6727 34.7254 53.4535 34.7254 54.5518 35.8237L61.6828 42.9548C62.7812 44.0531 62.7812 45.8339 61.6828 46.9322L54.5518 54.0633C53.4535 55.1616 51.6727 55.1616 50.5744 54.0633C49.4761 52.9649 49.4761 51.1842 50.5744 50.0859L52.8991 47.7612H39.9996C38.4463 47.7612 37.1871 46.502 37.1871 44.9487C37.1871 43.3954 38.4463 42.1363 39.9996 42.1363L52.9095 42.1363Z" fill="#134194" />
	<path d="M27.0971 51.6263H40.007C41.5603 51.6263 42.8195 52.8855 42.8195 54.4388C42.8195 55.9921 41.5603 57.2512 40.007 57.2512L27.1075 57.2512L29.4322 59.5759C30.5305 60.6743 30.5305 62.455 29.4322 63.5533C28.3339 64.6517 26.5531 64.6517 25.4548 63.5533L18.3237 56.4223C17.2254 55.3239 17.2254 53.5432 18.3237 52.4449L25.4548 45.3138C26.5531 44.2155 28.3339 44.2155 29.4322 45.3138C30.5305 46.4121 30.5305 48.1929 29.4322 49.2912L27.0971 51.6263Z" fill="#134194" />
</svg>