<svg fill="none" height="241" width="489" xmlns="http://www.w3.org/2000/svg">
	<path d="M404.727 93.918s.804-16.631 14.087-34.344c13.284-17.713 25.173-22.256 25.173-22.256" stroke="#353845" stroke-dasharray="3 5" stroke-linecap="round" stroke-linejoin="round" />
	<path d="M483.41 24.77l-21.485 11.176-13.865-15.899 35.35 4.722z" fill="#8DD0F9" />
	<path d="M483.41 24.77l-21.485 11.176-13.865-15.899 35.35 4.722z" fill="#fff" />
	<path d="M483.41 24.77l-21.485 11.176-13.865-15.899 35.35 4.722z" fill="#DA5449" fill-opacity=".5" />
	<path d="M455.287 28.202l-2.262 5.934 5.804-1.79-3.542-4.144z" fill="#384F6C" />
	<path d="M455.287 28.202l-2.262 5.934 5.804-1.79-3.542-4.144z" fill="#8F251D" />
	<path d="M483.379 24.85l-30.775.374.421 8.913 2.262-5.935 28.092-3.352z" fill="#3E86C8" />
	<path d="M483.379 24.85l-30.775.374.421 8.913 2.262-5.935 28.092-3.352z" fill="#DA5449" />
	<path d="M76.482 116.405L457 114.63s-26.223-18.045-37.946-30.232c-11.218-11.663-18.084-13.188-26.397-8.924-9.66 4.954-13.528 8.607-19.138-.795-5.487-9.195-26.467-45.532-58.733-19.099-4.236 3.47-8.487 10.16-19.798-5.316-18.209-24.91-46.197-39.471-73.569-19.496-26.188 19.11-16.925 23.18-55.346 20.274-13.095-.99-22.226-9.999-42.024-3.558-12.152 3.953-17.187 10.32-25.88 23.464-9.906 14.975-14.132-3.287-38.116-1.618-14.518.753-17.773 11.909-33.97 23.672C21.427 96.384 3.827 111.641 0 116.405h76.482z" fill="url(#paint0_linear)" opacity=".4" />
	<path d="M171.763 122.405l317.237-1.7s-21.862-17.285-31.635-28.96c-9.353-11.172-15.077-12.632-22.008-8.548-8.054 4.746-11.278 8.245-15.955-.76-4.575-8.81-22.065-43.616-48.966-18.296-3.531 3.325-7.075 9.733-16.505-5.092-15.181-23.861-38.514-37.81-61.334-18.675-21.833 18.306-14.111 22.205-46.142 19.42-10.918-.949-18.53-9.578-35.035-3.408-10.132 3.787-14.329 9.886-21.577 22.476-8.258 14.345-11.781-3.149-31.777-1.55-12.103.721-14.817 11.407-28.321 22.676-3.882 3.239-18.555 17.854-21.745 22.417h63.763z" fill="#fff" />
	<path d="M171.763 122.405l317.237-1.7s-21.862-17.285-31.635-28.96c-9.353-11.172-15.077-12.632-22.008-8.548-8.054 4.746-11.278 8.245-15.955-.76-4.575-8.81-22.065-43.616-48.966-18.296-3.531 3.325-7.075 9.733-16.505-5.092-15.181-23.861-38.514-37.81-61.334-18.675-21.833 18.306-14.111 22.205-46.142 19.42-10.918-.949-18.53-9.578-35.035-3.408-10.132 3.787-14.329 9.886-21.577 22.476-8.258 14.345-11.781-3.149-31.777-1.55-12.103.721-14.817 11.407-28.321 22.676-3.882 3.239-18.555 17.854-21.745 22.417h63.763z" fill="url(#paint1_linear)" />
	<path d="M300 150.849s-17.5 23.556-47 28.056-63.114-3-61.5-25.5c1.614-22.5 42-15 31 8.5-12.17 26-77 15.944-97-6" stroke="#353845" stroke-dasharray="3 5" stroke-linecap="round" stroke-linejoin="round" />
	<path d="M392.52 70.405l-53.562 60.221L277 97.621l115.52-27.216z" fill="#8DD0F9" />
	<path d="M392.52 70.405l-53.562 60.221L277 97.621l115.52-27.216z" fill="#fff" />
	<path d="M392.52 70.405l-53.562 60.221L277 97.621l115.52-27.216z" fill="#44BEEB" fill-opacity=".5" />
	<path d="M309.137 114.413v21.135l15.924-12.449-15.924-8.686z" fill="#384F6C" />
	<path d="M309.137 114.413v21.135l15.924-12.449-15.924-8.686z" fill="#1F93BE" />
	<path d="M392.521 70.695l-95.253 37.638 11.87 27.215v-21.135l83.383-43.718z" fill="#3E86C8" />
	<path d="M392.521 70.695l-95.253 37.638 11.87 27.215v-21.135l83.383-43.718z" fill="#44BEEB" />
	<path d="M121 107.405s16.5-2.237 33-17 20-27 20-27" stroke="#353845" stroke-dasharray="3 5" stroke-linecap="round" stroke-linejoin="round" />
	<path d="M250.242 33.658l-50.833 26.444-32.805-37.616 83.638 11.172z" fill="#8DD0F9" />
	<path d="M250.242 33.658l-50.833 26.444-32.805-37.616 83.638 11.172z" fill="#fff" />
	<path d="M250.242 33.658l-50.833 26.444-32.805-37.616 83.638 11.172z" fill="#50BF81" fill-opacity=".5" />
	<path d="M183.703 41.78l-5.352 14.04 13.732-4.238-8.38-9.802z" fill="#384F6C" />
	<path d="M183.703 41.78l-5.352 14.04 13.732-4.238-8.38-9.802z" fill="#327851" />
	<path d="M250.168 33.85l-72.812.884.994 21.087 5.352-14.041 66.466-7.93z" fill="#3E86C8" />
	<path d="M250.168 33.85l-72.812.884.994 21.087 5.352-14.041 66.466-7.93z" fill="#50BF81" />
	<path d="M41.766 228.575s15.769 7.299 20.484-8.726c4.436-8.879 12.867-2.153 19.095-7.493 10.116-14.922-5.51-17.153-7.868-17.061-8.725-2.552-56.218 24.518-31.711 33.28z" fill="#E5EAEA" opacity=".56" />
	<path d="M75.365 120.905s5.346-12.163.533-13.741c-1.858-.61-10.838-3.021-12.287-1.571L53.02 110.07l22.345 10.835z" fill="#E48350" />
	<path d="M50.688 154.646c-1.284-17.444-5.099-39.821 4.04-42.441 0 0 12.428-4.682 7.377-13.885 0 0-9.765-13.964 6.283-14.323 5.783-.13 9.147 2.26 9.77 8.689.22 2.251.114 4.58-.151 6.72-.442 3.537-.529 2.999-3.125 6.229-2.945-.192-2.967 2.443-1.673 3.475.848.677 2.393-.714 4.004-.25 6.075 1.75 34.615 1.045 34.615 1.045s-12.683 8-35.935 6" fill="#E8F2F7" />
	<path d="M77.05 108.405c5.658 1.545 37.949.491 37.949.491s-20.082 11.509-40.163 7.009" fill="#E8F2F7" />
	<path d="M57.682 90.626s2.71 8.112 5.62 12.339c0 0-1.89-10.501 1.58-8.458l1.069 1.95s3.072-1.052 3.072-5.052c3.7-2.5 9.125-.226 8.984-1.5-.349-3.112-6.697-6.572-6.697-6.572s-6.697-1.358-9.964 2.234c0 0-3.642 1.985-3.664 5.059z" fill="#0A628E" />
	<path d="M68.643 93.512c0 1.433.31 4.136-.04 4.817-.534 1.031-2.75-1.924-2.75-1.924l-.962-1.898c-2.848-.76-2.21 4.398 1.49 8.898 3.075 5-12.684 2-12.684 2-.528-7 4.228-16 4.228-16s4.14-2.267 6.343 1.877c1.148 2.16 1.943-.673 2.34.898.098.424.363.798.74 1.045.378.248.84.35 1.295.287z" fill="#0A4177" />
	<path d="M54.367 219.254s-6.265.756-5.272-2.189c0 0 3.89-2.164 5.272 2.189zm17.664-13.618s-6.265.756-5.272-2.189c0 0 3.885-2.163 5.272 2.189z" fill="#5ECBEC" />
	<path d="M78.007 147.405s4.527 27.734-10.228 54.622l-.243-32.035s-3.602 28.159-16.776 44.329c0 0 4.26-38.013-1.947-61.443-.014-.016 26.943 1.211 29.194-5.473zm-9.729-21.022s-6.622 8.283-5.74 11.512l-4.556-2.506s5.802-10.205 10.296-9.006z" fill="#1D5577" />
	<path d="M78.008 147.905s-2.374 10.425-16.66 13.825c-1.515.363-3.802 24.349-5.559 24.578-1.757.23-3.638-3.341-5.042-23.225 0 0-.863-7.713-2.333-10.178l29.594-5z" fill="#12435B" />
	<path d="M78.008 119.905l-2.643 17.5 2.643 10c-2.124 9.286-29.594 5.5-29.594 5.5-1.17-8.855.57-11.258 0-18-1.188-14.018 2.02-21.3 2.02-21.3 1.134-5.301 9.143-5.301 9.143-5.301l11.743 4.716 1.89-3.922 3.02-1.65 3.891.457 4.757.5s7.656 9.502-6.87 11.5z" fill="#FCD270" />
	<path d="M74.9 128.287s-3.81-13.88-6.94-13.25c0 0-15.74 4.428 6.94 13.25z" fill="#000" opacity=".1" />
	<path d="M71.138 122.905s-1.563 4.307-7.995 6.859c-.005 0 7.668.272 7.995-6.859z" fill="#000" opacity=".1" />
	<path d="M60.552 116.405c16.096 5.905-6.248 22-6.248 22s-3.82-.618-1.788-4.219c.758-1.347-4.533-1.594-2.63-4.036 2.63-3.363 1.183-7.431 1.587-12.356l9.079-1.389z" fill="#000" opacity=".1" />
	<path d="M69.551 125.405s-7.567 10.532-8.9 3.689c0 0-4.093-3.105 8.9-3.689z" fill="#0D374C" />
	<path d="M69.551 125.405s-7.567 10.532-8.9 3.689c0 0-4.093-3.105 8.9-3.689z" fill="#E48350" />
	<path d="M79.206 110.753s2.873-1.47 6.198 1.152c3.892 3.067 16.571-.569 22.724 0-1.057.5-4.756 1.709-5.813 2-1.057.291-3.7 1-5.285 1.5-4.283 1.351-11.626 1.5-11.626 1.5-1.766 1.808-3.17 2.209-7.398 3.209 0 0 .234-5.665.097-5.93-.136-.264-.349-4.367 1.103-3.431z" fill="#000" opacity=".1" />
	<path d="M63.018 114.872s19.558 18.805 34.237 20.864c0 0-15.764 1.879-33.376-6.661.017-.003-17.874-7.719-.86-14.203z" fill="#E8F2F7" />
	<path d="M63.603 113.512l8.062 7.713s-8.088 6.286-9.575 10.18c0 0-16.794-9.652-7.916-17.126 0 0 4.04-3.646 9.43-.767z" fill="#FCD270" />
	<path d="M67.506 169.988s2.945.176 4.653 3.735c2.852 5.952-4.976 14.298-.216 12.581 0 0 1.766 4.595-2.115 9.061 0 0-1.74-1.32-2.049 6.646l-.273-32.023z" fill="#12435B" />
	<path d="M74.124 105.626c.698-.092-5.54.476-7.74-3.463 0 0-1.72-4.131-2.184 2.857-.133 1.972-3.714 2.185-4.945 2.703-1.148.485-3.484.836-3.647 1.408-.389 1.416 6.808 4.954 8.141 5.363 1.594.489-.971-5.012 3.064-5.961.442-.108 5.872-1.516 5.876-2.021.005-.218.274-.731 1.435-.886zM54.84 151.734s2.808-1.901 8.013-8.868c0 0 7.426.831-8.013 8.868z" fill="#000" opacity=".1" />
	<path d="M50.748 214.304c4.596-7.769 6.773-8.233 13.448-28.313 0 0-5.086 12.87-12.048-3.266-.018 0-.46 21.617-1.4 31.579z" fill="#12435B" />
	<path d="M66.909 125.405s10.126 8.675 19.393 9.948c0 0-8.744.199-23.093-6.448l3.7-3.5z" fill="#000" opacity=".1" />
	<defs>
		<linearGradient gradientUnits="userSpaceOnUse" id="paint0_linear" x1="228.5" x2="228.924" y1="21.405" y2="129.128">
			<stop offset=".261" stop-color="#77C9FC" />
			<stop offset="1" stop-color="#8DD0F9" stop-opacity="0" />
		</linearGradient>
		<linearGradient gradientUnits="userSpaceOnUse" id="paint1_linear" x1="298.5" x2="298.926" y1="31.405" y2="147.919">
			<stop offset=".117" stop-color="#EEF6FA" />
			<stop offset="1" stop-color="#EEF6FA" stop-opacity="0" />
		</linearGradient>
	</defs>
</svg>