<?xml version="1.0"?>

<svg
	height="18"
	viewBox="0 0 16 18"
	width="16"
	xmlns="http://www.w3.org/2000/svg"
>
	<path clip-rule="evenodd" d="M4.5 4.75C4.5 2.95508 5.95508 1.5 7.75 1.5C9.54492 1.5 11 2.95508 11 4.75C11 6.54492 9.54492 8 7.75 8C5.95508 8 4.5 6.54492 4.5 4.75ZM7.75 0C5.12665 0 3 2.12646 3 4.75C3 7.37354 5.12665 9.5 7.75 9.5C10.3734 9.5 12.5 7.37354 12.5 4.75C12.5 2.12646 10.3734 0 7.75 0ZM4.25 11C1.93768 11 0 12.7939 0 15.0835V16.75C0 17.1641 0.335815 17.5 0.75 17.5C1.16418 17.5 1.5 17.1641 1.5 16.75V15.0835C1.5 13.6904 2.69629 12.5 4.25 12.5H4.26135H4.27271H4.28412H4.29553H4.30695H4.31842H4.32996H4.34149H4.35303H4.36462H4.37622H4.38788H4.39954H4.41119H4.42291H4.43469H4.44641H4.45819H4.47003H4.48187H4.49377H4.50562H4.51758H4.52948H4.54144H4.55347H4.56549H4.57751H4.5896H4.60168H4.61377H4.62592H4.63806H4.65027H4.66248H4.67474H4.68695H4.69928H4.71155H4.72388H4.73627H4.7486H4.76099H4.77344H4.78589H4.79834H4.81085H4.82336H4.83588H4.84845H4.86102H4.8736H4.88623H4.89886H4.91156H4.92419H4.93695H4.94965H4.9624H4.97516H4.98798H5.00079H5.01361H5.02649H5.03937H5.05225H5.06519H5.07812H5.09106H5.10406H5.11707H5.13007H5.14307H5.15613H5.16925H5.18231H5.19543H5.20856H5.22174H5.23486H5.24811H5.26129H5.27454H5.28778H5.30103H5.31433H5.32764H5.34094H5.35431H5.36761H5.38098H5.39441H5.40784H5.42126H5.43469H5.44812H5.46161H5.4751H5.48865H5.50214H5.51569H5.5293H5.54285H5.55646H5.57007H5.58368H5.59735H5.61102H5.62469H5.63837H5.6521H5.66577H5.67957H5.6933H5.70703H5.72083H5.73462H5.74847H5.76227H5.77612H5.78998H5.80389H5.81775H5.83167H5.84558H5.8595H5.87347H5.88739H5.90137H5.91534H5.92938H5.94336H5.9574H5.97144H5.98547H5.99957H6.01361H6.02771H6.04181H6.05597H6.07007H6.08423H6.09839H6.11255H6.12671H6.14087H6.15509H6.16931H6.18353H6.19775H6.21204H6.22626H6.24054H6.25482H6.2691H6.28345H6.29773H6.31207H6.32642H6.34076H6.3551H6.36945H6.38385H6.39819H6.4126H6.427H6.44141H6.45587H6.47028H6.48474H6.49921H6.51367H6.52814H6.5426H6.55707H6.57159H6.58606H6.60059H6.61511H6.62964H6.64417H6.65875H6.67328H6.68787H6.70245H6.71698H6.73157H6.74622H6.7608H6.77539H6.78998H6.80463H6.81927H6.83386H6.84851H6.86316H6.87781H6.89252H6.90717H6.92181H6.93652H6.95117H6.96588H6.98059H6.9953H7.01001H7.02472H7.03943H7.05414H7.06891H7.08362H7.09833H7.1131H7.12787H7.14258H7.15735H7.17212H7.18689H7.20166H7.21643H7.2312H7.24597H7.26074H7.27557H7.29034H7.30511H7.31995H7.33472H7.34955H7.36438H7.37915H7.39398H7.40881H7.42358H7.43842H7.45325H7.46808H7.48291H7.49774H7.51257H7.5274H7.54224H7.55707H7.5719H7.58673H7.60156H7.61639H7.63123H7.64612H7.66095H7.67578H7.69061H7.70544H7.72034H7.73517H7.75H7.76483H7.77966H7.79456H7.80939H7.82422H7.83905H7.85388H7.86877H7.88361H7.89844H7.91327H7.9281H7.94293H7.95776H7.9726H7.98743H8.00226H8.01709H8.03192H8.04675H8.06158H8.07642H8.09119H8.10602H8.12085H8.13562H8.15045H8.16528H8.18005H8.19489H8.20966H8.22443H8.23926H8.25403H8.2688H8.28357H8.29834H8.31311H8.32788H8.34265H8.35742H8.37213H8.3869H8.40167H8.41638H8.43109H8.44586H8.46057H8.47528H8.48999H8.5047H8.51941H8.53412H8.54883H8.56348H8.57819H8.59283H8.60748H8.62219H8.63684H8.65149H8.66614H8.68073H8.69537H8.71002H8.72461H8.7392H8.75378H8.76843H8.78302H8.79755H8.81213H8.82672H8.84125H8.85583H8.87036H8.88489H8.89941H8.91394H8.92841H8.94293H8.9574H8.97186H8.98633H9.00079H9.01526H9.02972H9.04413H9.05859H9.073H9.0874H9.10181H9.11615H9.13055H9.1449H9.15924H9.17358H9.18793H9.20227H9.21655H9.2309H9.24518H9.25946H9.27374H9.28796H9.30225H9.31647H9.33069H9.34491H9.35913H9.37329H9.38745H9.40161H9.41577H9.42993H9.44403H9.45819H9.47229H9.48639H9.50043H9.51453H9.52856H9.5426H9.55664H9.57062H9.58466H9.59863H9.61261H9.62653H9.6405H9.65442H9.66833H9.68225H9.69611H9.71002H9.72388H9.73773H9.75153H9.76538H9.77917H9.79297H9.8067H9.82043H9.83423H9.8479H9.86163H9.87531H9.88898H9.90265H9.91632H9.92993H9.94354H9.95715H9.9707H9.98431H9.99786H10.0114H10.0249H10.0384H10.0519H10.0653H10.0787H10.0922H10.1056H10.119H10.1324H10.1457H10.1591H10.1724H10.1857H10.199H10.2122H10.2255H10.2387H10.2519H10.2651H10.2783H10.2914H10.3046H10.3177H10.3307H10.3439H10.3569H10.3699H10.3829H10.3959H10.4089H10.4219H10.4348H10.4478H10.4606H10.4735H10.4864H10.4992H10.512H10.5248H10.5376H10.5504H10.563H10.5758H10.5884H10.6011H10.6138H10.6264H10.639H10.6516H10.6641H10.6766H10.6891H10.7017H10.7141H10.7266H10.739H10.7514H10.7637H10.7761H10.7885H10.8007H10.813H10.8253H10.8375H10.8497H10.8619H10.8741H10.8862H10.8983H10.9104H10.9225H10.9345H10.9465H10.9586H10.9705H10.9824H10.9944H11.0062H11.0181H11.03H11.0418H11.0536H11.0653H11.0771H11.0888H11.1005H11.1121H11.1238H11.1354H11.147H11.1585H11.17H11.1816H11.1931H11.2045H11.2159H11.2273H11.2386H11.25C12.8037 12.5 14 13.6904 14 15.0835V16.75C14 17.1641 14.3358 17.5 14.75 17.5C15.1642 17.5 15.5 17.1641 15.5 16.75V15.0835C15.5 12.7939 13.5623 11 11.25 11H11.2386H11.2273H11.2159H11.2045H11.1931H11.1816H11.17H11.1585H11.147H11.1354H11.1238H11.1121H11.1005H11.0888H11.0771H11.0653H11.0536H11.0418H11.03H11.0181H11.0062H10.9944H10.9824H10.9705H10.9586H10.9465H10.9345H10.9225H10.9104H10.8983H10.8862H10.8741H10.8619H10.8497H10.8375H10.8253H10.813H10.8007H10.7885H10.7761H10.7637H10.7514H10.739H10.7266H10.7141H10.7017H10.6891H10.6766H10.6641H10.6516H10.639H10.6264H10.6138H10.6011H10.5884H10.5758H10.563H10.5504H10.5376H10.5248H10.512H10.4992H10.4864H10.4735H10.4606H10.4478H10.4348H10.4219H10.4089H10.3959H10.3829H10.3699H10.3569H10.3439H10.3307H10.3177H10.3046H10.2914H10.2783H10.2651H10.2519H10.2387H10.2255H10.2122H10.199H10.1857H10.1724H10.1591H10.1457H10.1324H10.119H10.1056H10.0922H10.0787H10.0653H10.0519H10.0384H10.0249H10.0114H9.99786H9.98431H9.9707H9.95715H9.94354H9.92993H9.91632H9.90265H9.88898H9.87531H9.86163H9.8479H9.83423H9.82043H9.8067H9.79297H9.77917H9.76538H9.75153H9.73773H9.72388H9.71002H9.69611H9.68225H9.66833H9.65442H9.6405H9.62653H9.61261H9.59863H9.58466H9.57062H9.55664H9.5426H9.52856H9.51453H9.50043H9.48639H9.47229H9.45819H9.44403H9.42993H9.41577H9.40161H9.38745H9.37329H9.35913H9.34491H9.33069H9.31647H9.30225H9.28796H9.27374H9.25946H9.24518H9.2309H9.21655H9.20227H9.18793H9.17358H9.15924H9.1449H9.13055H9.11615H9.10181H9.0874H9.073H9.05859H9.04413H9.02972H9.01526H9.00079H8.98633H8.97186H8.9574H8.94293H8.92841H8.91394H8.89941H8.88489H8.87036H8.85583H8.84125H8.82672H8.81213H8.79755H8.78302H8.76843H8.75378H8.7392H8.72461H8.71002H8.69537H8.68073H8.66614H8.65149H8.63684H8.62219H8.60748H8.59283H8.57819H8.56348H8.54883H8.53412H8.51941H8.5047H8.48999H8.47528H8.46057H8.44586H8.43109H8.41638H8.40167H8.3869H8.37213H8.35742H8.34265H8.32788H8.31311H8.29834H8.28357H8.2688H8.25403H8.23926H8.22443H8.20966H8.19489H8.18005H8.16528H8.15045H8.13562H8.12085H8.10602H8.09119H8.07642H8.06158H8.04675H8.03192H8.01709H8.00226H7.98743H7.9726H7.95776H7.94293H7.9281H7.91327H7.89844H7.88361H7.86877H7.85388H7.83905H7.82422H7.80939H7.79456H7.77966H7.76483H7.75H7.73517H7.72034H7.70544H7.69061H7.67578H7.66095H7.64612H7.63123H7.61639H7.60156H7.58673H7.5719H7.55707H7.54224H7.5274H7.51257H7.49774H7.48291H7.46808H7.45325H7.43842H7.42358H7.40881H7.39398H7.37915H7.36438H7.34955H7.33472H7.31995H7.30511H7.29034H7.27557H7.26074H7.24597H7.2312H7.21643H7.20166H7.18689H7.17212H7.15735H7.14258H7.12787H7.1131H7.09833H7.08362H7.06891H7.05414H7.03943H7.02472H7.01001H6.9953H6.98059H6.96588H6.95117H6.93652H6.92181H6.90717H6.89252H6.87781H6.86316H6.84851H6.83386H6.81927H6.80463H6.78998H6.77539H6.7608H6.74622H6.73157H6.71698H6.70245H6.68787H6.67328H6.65875H6.64417H6.62964H6.61511H6.60059H6.58606H6.57159H6.55707H6.5426H6.52814H6.51367H6.49921H6.48474H6.47028H6.45587H6.44141H6.427H6.4126H6.39819H6.38385H6.36945H6.3551H6.34076H6.32642H6.31207H6.29773H6.28345H6.2691H6.25482H6.24054H6.22626H6.21204H6.19775H6.18353H6.16931H6.15509H6.14087H6.12671H6.11255H6.09839H6.08423H6.07007H6.05597H6.04181H6.02771H6.01361H5.99957H5.98547H5.97144H5.9574H5.94336H5.92938H5.91534H5.90137H5.88739H5.87347H5.8595H5.84558H5.83167H5.81775H5.80389H5.78998H5.77612H5.76227H5.74847H5.73462H5.72083H5.70703H5.6933H5.67957H5.66577H5.6521H5.63837H5.62469H5.61102H5.59735H5.58368H5.57007H5.55646H5.54285H5.5293H5.51569H5.50214H5.48865H5.4751H5.46161H5.44812H5.43469H5.42126H5.40784H5.39441H5.38098H5.36761H5.35431H5.34094H5.32764H5.31433H5.30103H5.28778H5.27454H5.26129H5.24811H5.23486H5.22174H5.20856H5.19543H5.18231H5.16925H5.15613H5.14307H5.13007H5.11707H5.10406H5.09106H5.07812H5.06519H5.05225H5.03937H5.02649H5.01361H5.00079H4.98798H4.97516H4.9624H4.94965H4.93695H4.92419H4.91156H4.89886H4.88623H4.8736H4.86102H4.84845H4.83588H4.82336H4.81085H4.79834H4.78589H4.77344H4.76099H4.7486H4.73627H4.72388H4.71155H4.69928H4.68695H4.67474H4.66248H4.65027H4.63806H4.62592H4.61377H4.60168H4.5896H4.57751H4.56549H4.55347H4.54144H4.52948H4.51758H4.50562H4.49377H4.48187H4.47003H4.45819H4.44641H4.43469H4.42291H4.41119H4.39954H4.38788H4.37622H4.36462H4.35303H4.34149H4.32996H4.31842H4.30695H4.29553H4.28412H4.27271H4.26135H4.25Z" fill-rule="evenodd" transform="translate(0.25 0.25)" />
</svg>