<svg fill="none" height="24" viewBox="0 0 24 24" width="24" xmlns="http://www.w3.org/2000/svg">
	<path d="M8.70503 5.48015e-07C9.34721 5.48015e-07 9.88235 0.538721 9.88235 1.18519V10.4512C9.88235 11.0976 9.34721 11.6364 8.70503 11.6364H1.17732C0.535145 11.6364 0 11.0976 0 10.4512V1.18519C0 0.538721 0.535145 5.48015e-07 1.17732 5.48015e-07H8.70503V5.48015e-07Z" fill="#0791D6" transform="translate(0 12.3636)" />
	<path d="M8.70503 2.63719e-07C9.34721 2.63719e-07 9.88235 0.518493 9.88235 1.14068V17.0411C9.88235 17.6633 9.34721 18.1818 8.70503 18.1818H1.17732C0.535145 18.1818 -2.72189e-07 17.6633 -2.72189e-07 17.0411V1.14068C-2.72189e-07 0.518493 0.535145 2.63719e-07 1.17732 2.63719e-07H8.70503Z" fill="#0791D6" transform="translate(14.1177 5.81818)" />
	<path d="M8.70503 0C9.34721 0 9.88235 0.515759 9.88235 1.13467V22.8653C9.88235 23.4842 9.34721 24 8.70503 24H1.17732C0.535146 24 -1.36095e-07 23.4842 -1.36095e-07 22.8653V1.13467C-1.36095e-07 0.515759 0.535146 0 1.17732 0H8.70503Z" fill="#0B63CE" transform="translate(7.05859)" />
	<path d="M0.036199 0.000621583H1.62896C1.62896 0.000621583 2.82353 -0.0711479 2.82353 1.32834V10.6582C2.82353 10.6582 2.82353 11.6271 1.41176 11.6271C1.41176 11.6271 0.217194 11.8065 -2.76177e-07 10.5865V0.000621583H0.036199Z" fill="#0F37A7" transform="translate(7.05859 12.3636)" />
	<path d="M1.19457 0.000598175C1.19457 0.000598175 -2.76177e-07 -0.0684985 -2.76177e-07 1.27888V8.25759V10.2614V17.2401C-2.76177e-07 17.2401 2.88507e-07 18.1729 1.41177 18.1729C1.41177 18.1729 2.60633 18.3456 2.82353 17.171V10.1923V6.97931V0.000598175H1.19457Z" fill="#0F37A7" transform="translate(14.1177 5.81818)" />
</svg>