<?xml version="1.0"?>

<svg
	fill="none"
	height="80"
	viewBox="0 0 80 80"
	width="80"
	xmlns="http://www.w3.org/2000/svg"
>
	<path d="M68.3438 2.53125H2.53125V68.3438H24.7149C26.1053 66.7902 28.126 65.8125 30.375 65.8125C30.7153 65.8125 31.0503 65.8349 31.3787 65.8782L40.5017 58.0586C40.5869 53.9386 43.9534 50.625 48.0938 50.625C50.8809 50.625 53.3174 52.1266 54.6383 54.3649L56.1921 54.6757C57.3956 53.7712 58.8765 53.2161 60.4844 53.1608L65.8928 46.6708C65.8399 46.309 65.8125 45.939 65.8125 45.5625C65.8125 43.3135 66.7902 41.2928 68.3438 39.9024V2.53125Z" fill="white" />
	<path d="M68.3438 59.5454L68.2635 59.6417C68.3164 60.0035 68.3438 60.3736 68.3438 60.75C68.3438 64.9439 64.9439 68.3438 60.75 68.3438C57.9628 68.3438 55.5264 66.8422 54.2054 64.6038L52.6516 64.2931C51.3822 65.2471 49.804 65.8125 48.0938 65.8125C47.7535 65.8125 47.4185 65.7901 47.0901 65.7468L44.0602 68.3438H60.75H68.3438V60.75V59.5454Z" fill="white" />
	<path d="M60.5017 65.8065C60.2123 65.7925 59.9292 65.7543 59.6546 65.6937L59.7572 65.7142C60.005 65.7638 60.2538 65.7943 60.5017 65.8065Z" fill="white" />
	<path d="M61.0315 65.8048C62.1518 65.7434 63.1751 65.3177 63.985 64.6442C63.1486 65.3392 62.1114 65.7446 61.0315 65.8048Z" fill="white" />
	<path d="M64.6639 63.9611C64.6005 64.0384 64.5349 64.1137 64.4671 64.1869C64.5259 64.1233 64.5833 64.058 64.6391 63.9909L64.6639 63.9611Z" fill="white" />
	<path d="M49.189 53.2751C48.8855 53.2081 48.5716 53.1684 48.2503 53.1586C48.5291 53.1673 48.8088 53.199 49.0866 53.2546L49.189 53.2751Z" fill="white" />
	<path d="M47.9349 53.1587C46.7929 53.1946 45.6838 53.6167 44.7991 54.375L44.7776 54.3934C45.6287 53.655 46.7287 53.1959 47.9349 53.1587Z" fill="white" />
	<path d="M70.875 38.4008V7.59375L7.59375 70.875H22.8553C23.0699 70.875 23.2596 70.739 23.3407 70.5403C24.4717 67.7671 27.1951 65.8125 30.375 65.8125C30.6381 65.8125 30.898 65.8259 31.1542 65.852C31.2973 65.8666 31.4411 65.8247 31.5503 65.7311L40.3297 58.206C40.4391 58.1122 40.5025 57.9756 40.5097 57.8317C40.7112 53.8176 44.0297 50.625 48.0938 50.625C50.8 50.625 53.1756 52.0407 54.5205 54.1719C54.5973 54.2936 54.7189 54.381 54.8601 54.4093L55.9699 54.6312C56.1113 54.6595 56.2575 54.6254 56.3753 54.5422C57.4865 53.7577 58.8176 53.264 60.258 53.1719C60.4019 53.1627 60.5372 53.0975 60.6295 52.9867L65.7481 46.8444C65.8402 46.7339 65.88 46.5895 65.8634 46.4466C65.8298 46.1566 65.8125 45.8616 65.8125 45.5625C65.8125 42.2561 67.9256 39.4433 70.875 38.4008Z" fill="#E7EFFF" />
	<path d="M70.875 57.9062C70.875 57.4327 70.283 57.2183 69.9798 57.5821L68.2635 59.6417C68.3164 60.0035 68.3438 60.3736 68.3438 60.75C68.3438 64.9439 64.9439 68.3438 60.75 68.3438C58.0437 68.3438 55.6681 66.9281 54.3233 64.7969C54.2465 64.6752 54.1248 64.5877 53.9837 64.5595L52.8739 64.3375C52.7325 64.3092 52.5863 64.3434 52.4685 64.4265C51.2318 65.2996 49.7227 65.8125 48.0938 65.8125C47.8307 65.8125 47.5707 65.7991 47.3146 65.773C47.1715 65.7584 47.0277 65.8003 46.9184 65.8939L42.1462 69.9844C41.7893 70.2903 42.0056 70.875 42.4756 70.875H66.4623C68.8994 70.875 70.875 68.8994 70.875 66.4623V57.9062Z" fill="#E7EFFF" />
	<path d="M26.9767 69.6538C27.0189 69.6156 27.0617 69.578 27.1052 69.5412L27.0804 69.5625C27.0453 69.5926 27.0107 69.623 26.9767 69.6538Z" fill="#E7EFFF" />
	<path d="M69.626 42.1951C69.5892 42.2365 69.5529 42.2787 69.5171 42.3216L69.4922 42.3515C69.5358 42.2985 69.5804 42.2463 69.626 42.1951Z" fill="#E7EFFF" />
	<path d="M60.5017 65.8065C60.2123 65.7925 59.9292 65.7543 59.6546 65.6937L59.7572 65.7142C60.005 65.7638 60.2538 65.7943 60.5017 65.8065Z" fill="#E7EFFF" />
	<path d="M61.0315 65.8048C62.1518 65.7434 63.1751 65.3177 63.985 64.6442C63.1486 65.3392 62.1114 65.7446 61.0315 65.8048Z" fill="#E7EFFF" />
	<path d="M64.6639 63.9611C64.6005 64.0384 64.5349 64.1137 64.4671 64.1869C64.5259 64.1233 64.5833 64.058 64.6391 63.9909L64.6639 63.9611Z" fill="#E7EFFF" />
	<path d="M49.189 53.2751C48.8855 53.2081 48.5716 53.1684 48.2503 53.1586C48.5291 53.1673 48.8088 53.199 49.0866 53.2546L49.189 53.2751Z" fill="#E7EFFF" />
	<path d="M47.9349 53.1587C46.7929 53.1946 45.6838 53.6167 44.7991 54.375L44.7776 54.3934C45.6287 53.655 46.7287 53.1959 47.9349 53.1587Z" fill="#E7EFFF" />
	<path d="M7.59375 10.125C7.59375 11.523 8.72703 12.6562 10.125 12.6562C11.523 12.6562 12.6562 11.523 12.6562 10.125C12.6562 8.72703 11.523 7.59375 10.125 7.59375C8.72703 7.59375 7.59375 8.72703 7.59375 10.125Z" fill="#C9CFDB" />
	<path d="M15.1875 10.125C15.1875 11.523 16.3208 12.6562 17.7188 12.6562C19.1167 12.6562 20.25 11.523 20.25 10.125C20.25 8.72703 19.1167 7.59375 17.7188 7.59375C16.3208 7.59375 15.1875 8.72703 15.1875 10.125Z" fill="#C9CFDB" />
	<path d="M22.7812 10.125C22.7812 11.523 23.9145 12.6562 25.3125 12.6562C26.7105 12.6562 27.8438 11.523 27.8438 10.125C27.8438 8.72703 26.7105 7.59375 25.3125 7.59375C23.9145 7.59375 22.7812 8.72703 22.7812 10.125Z" fill="#C9CFDB" />
	<path clip-rule="evenodd" d="M0 4.725C0 2.11545 2.11545 0 4.725 0H66.15C68.7595 0 70.875 2.11545 70.875 4.725V38.0428C70.875 38.2574 70.7391 38.4471 70.5404 38.5281C69.7285 38.8592 68.9868 39.3268 68.3438 39.9024V20.25H2.53125V66.15C2.53125 67.3616 3.51343 68.3438 4.725 68.3438H24.7149C24.1393 68.9868 23.6717 69.7285 23.3406 70.5404C23.2596 70.7391 23.0699 70.875 22.8553 70.875H4.725C2.11545 70.875 0 68.7595 0 66.15V4.725ZM2.53125 4.725C2.53125 3.51343 3.51343 2.53125 4.725 2.53125H66.15C67.3616 2.53125 68.3438 3.51343 68.3438 4.725V17.7188H2.53125V4.725Z" fill="#C9CFDB" fill-rule="evenodd" />
	<path d="M70.875 57.9062C70.875 57.4327 70.283 57.2183 69.9798 57.5821L68.3438 59.5454V66.15C68.3438 67.3616 67.3616 68.3438 66.15 68.3438H44.0602L42.1462 69.9844C41.7893 70.2903 42.0056 70.875 42.4756 70.875H66.15C68.7595 70.875 70.875 68.7595 70.875 66.15V57.9062Z" fill="#C9CFDB" />
	<path d="M27.1052 69.5412C27.0617 69.578 27.0189 69.6156 26.9767 69.6538L27.032 69.6045L27.0804 69.5625L27.1052 69.5412Z" fill="#C9CFDB" />
	<path d="M69.626 42.1951C69.5892 42.2365 69.5529 42.2787 69.5171 42.3216L69.4922 42.3515C69.5358 42.2985 69.5804 42.2463 69.626 42.1951Z" fill="#C9CFDB" />
	<path d="M8.85938 32.9062C8.85938 32.2073 9.42601 31.6406 10.125 31.6406H37.9688C38.6677 31.6406 39.2344 32.2073 39.2344 32.9062C39.2344 33.6052 38.6677 34.1719 37.9688 34.1719H10.125C9.42601 34.1719 8.85938 33.6052 8.85938 32.9062Z" fill="#C9CFDB" />
	<path d="M10.125 39.2344C9.42601 39.2344 8.85938 39.801 8.85938 40.5C8.85938 41.199 9.42601 41.7656 10.125 41.7656H30.375C31.074 41.7656 31.6406 41.199 31.6406 40.5C31.6406 39.801 31.074 39.2344 30.375 39.2344H10.125Z" fill="#C9CFDB" />
	<path d="M78.4688 45.5625C78.4688 48.3584 76.2022 50.625 73.4062 50.625C73.1121 50.625 72.8239 50.5999 72.5435 50.5518L65.5023 59.0012C65.7029 59.5462 65.8125 60.1353 65.8125 60.75C65.8125 63.5459 63.5459 65.8125 60.75 65.8125C58.5213 65.8125 56.629 64.3724 55.9529 62.372L51.8965 61.5607C50.9687 62.6156 49.609 63.2812 48.0938 63.2812C47.5039 63.2812 46.9375 63.1804 46.4111 62.9949L35.3519 72.4742C35.4081 72.7763 35.4375 73.0878 35.4375 73.4062C35.4375 76.2022 33.1709 78.4688 30.375 78.4688C27.5791 78.4688 25.3125 76.2022 25.3125 73.4062C25.3125 70.6103 27.5791 68.3438 30.375 68.3438C30.9649 68.3438 31.5312 68.4446 32.0577 68.6301L43.1169 59.1508C43.0606 58.8487 43.0312 58.5372 43.0312 58.2188C43.0312 55.4228 45.2978 53.1562 48.0938 53.1562C50.3224 53.1562 52.2147 54.5964 52.8908 56.5968L56.9472 57.4081C57.875 56.3532 59.2348 55.6875 60.75 55.6875C61.0441 55.6875 61.3324 55.7126 61.6128 55.7607L68.6539 47.3113C68.4533 46.7663 68.3438 46.1772 68.3438 45.5625C68.3438 42.7666 70.6103 40.5 73.4062 40.5C76.2022 40.5 78.4688 42.7666 78.4688 45.5625Z" fill="#134194" />
</svg>