<?xml version="1.0"?>

<svg
	height="16"
	viewBox="0 0 16 16"
	width="16"
	xmlns="http://www.w3.org/2000/svg"
>
	<path clip-rule="evenodd" d="M2 1.5H14C14.2762 1.5 14.5 1.72363 14.5 2V14C14.5 14.2764 14.2762 14.5 14 14.5H2C1.72385 14.5 1.5 14.2764 1.5 14V2C1.5 1.72363 1.72385 1.5 2 1.5ZM0 2C0 0.895508 0.895416 0 2 0H14C15.1046 0 16 0.895508 16 2V14C16 15.1045 15.1046 16 14 16H2C0.895416 16 0 15.1045 0 14V2ZM12 5C12.5523 5 13 4.55225 13 4C13 3.44775 12.5523 3 12 3C11.4477 3 11 3.44775 11 4C11 4.55225 11.4477 5 12 5ZM10 4C10 4.55225 9.55228 5 9 5C8.44772 5 8 4.55225 8 4C8 3.44775 8.44772 3 9 3C9.55228 3 10 3.44775 10 4ZM6 5C6.55228 5 7 4.55225 7 4C7 3.44775 6.55228 3 6 3C5.44772 3 5 3.44775 5 4C5 4.55225 5.44772 5 6 5Z" fill-rule="evenodd" />
</svg>