<svg fill="none" height="163" width="489" xmlns="http://www.w3.org/2000/svg">
	<path d="M76.4816 95L457 93.2247C457 93.2247 430.777 75.1799 419.054 62.9925C407.836 51.3293 400.97 49.8053 392.657 54.0683C382.997 59.0229 379.129 62.6755 373.519 53.2739C368.032 44.0784 347.052 7.74177 314.786 34.1751C310.55 37.6454 306.299 44.3351 294.988 28.8592C276.779 3.94868 248.791 -10.6128 221.419 9.36279C195.231 28.4733 204.494 32.5436 166.073 29.6369C152.978 28.646 143.847 19.6378 124.049 26.0784C111.897 30.032 106.862 36.3994 98.1687 49.5431C88.263 64.5177 84.0372 46.2555 60.0533 47.925C45.5352 48.6776 42.2803 59.8332 26.0825 71.5972C21.4268 74.9784 3.82692 90.2356 0 95H76.4816Z" fill="url(#paint0_linear)" opacity="0.4" />
	<path d="M171.763 101L489 99.2995C489 99.2995 467.138 82.0145 457.365 70.3401C448.012 59.1681 442.288 57.7082 435.357 61.7918C427.303 66.5377 424.079 70.0366 419.402 61.0308C414.827 52.2225 397.337 17.4158 370.436 42.7361C366.905 46.0603 363.361 52.4684 353.931 37.6441C338.75 13.7824 315.417 -0.165963 292.597 18.9686C270.764 37.2744 278.486 41.1734 246.455 38.3891C235.537 37.4399 227.925 28.811 211.42 34.9804C201.288 38.7675 197.091 44.8668 189.843 57.4571C181.585 71.8012 178.062 54.3079 158.066 55.9071C145.963 56.628 143.249 67.3139 129.745 78.5825C125.863 81.8214 111.19 96.4362 108 101H171.763Z" fill="white" />
	<path d="M171.763 101L489 99.2995C489 99.2995 467.138 82.0145 457.365 70.3401C448.012 59.1681 442.288 57.7082 435.357 61.7918C427.303 66.5377 424.079 70.0366 419.402 61.0308C414.827 52.2225 397.337 17.4158 370.436 42.7361C366.905 46.0603 363.361 52.4684 353.931 37.6441C338.75 13.7824 315.417 -0.165963 292.597 18.9686C270.764 37.2744 278.486 41.1734 246.455 38.3891C235.537 37.4399 227.925 28.811 211.42 34.9804C201.288 38.7675 197.091 44.8668 189.843 57.4571C181.585 71.8012 178.062 54.3079 158.066 55.9071C145.963 56.628 143.249 67.3139 129.745 78.5825C125.863 81.8214 111.19 96.4362 108 101H171.763Z" fill="url(#paint1_linear)" />
	<path d="M355 149.236C355 154.352 330.328 154.203 292.624 156.475C275.611 157.5 263.586 163 234.5 163C205.414 163 190.554 157.5 173.541 156.475C135.837 154.203 114 154.352 114 149.236C114 141.81 167.95 141 234.5 141C301.05 141 355 141.81 355 149.236Z" fill="url(#paint2_radial)" />
	<rect fill="url(#paint3_linear)" height="66" width="52" x="149" y="80" />
	<rect fill="url(#paint4_linear)" height="11" width="43" x="154" y="85" />
	<rect fill="url(#paint5_linear)" height="11" width="43" x="154" y="99" />
	<rect fill="url(#paint6_linear)" height="11" width="43" x="154" y="113" />
	<rect fill="url(#paint7_linear)" height="18" width="17" x="167" y="128" />
	<rect fill="#53B8EE" height="4" transform="matrix(1 0 0 -1 163 132)" width="24" />
	<rect fill="url(#paint8_linear)" height="123" width="52" x="208" y="25" />
	<rect fill="url(#paint9_linear)" height="18" width="18" x="226" y="130" />
	<rect fill="#0A58B8" height="11" width="6" x="213" y="32" />
	<rect fill="#0A58B8" height="11" width="6" x="225" y="32" />
	<rect fill="#0A58B8" height="11" width="6" x="237" y="32" />
	<rect fill="#0A58B8" height="11" width="6" x="249" y="32" />
	<rect fill="#0A58B8" height="11" width="6" x="213" y="88" />
	<rect fill="#0A58B8" height="11" width="6" x="225" y="88" />
	<rect fill="#0A58B8" height="11" width="6" x="237" y="88" />
	<rect fill="#0A58B8" height="11" width="6" x="249" y="88" />
	<rect fill="#0A58B8" height="11" width="6" x="213" y="46" />
	<rect fill="#0A58B8" height="11" width="6" x="225" y="46" />
	<rect fill="#0A58B8" height="11" width="6" x="237" y="46" />
	<rect fill="#0A58B8" height="11" width="6" x="249" y="46" />
	<rect fill="#0A58B8" height="11" width="6" x="213" y="102" />
	<rect fill="#0A58B8" height="11" width="6" x="225" y="102" />
	<rect fill="#0A58B8" height="11" width="6" x="237" y="102" />
	<rect fill="#0A58B8" height="11" width="6" x="249" y="102" />
	<rect fill="#0A58B8" height="11" width="6" x="213" y="60" />
	<rect fill="#0A58B8" height="11" width="6" x="225" y="60" />
	<rect fill="#0A58B8" height="11" width="6" x="237" y="60" />
	<rect fill="#0A58B8" height="11" width="6" x="249" y="60" />
	<rect fill="#0A58B8" height="11" width="6" x="213" y="116" />
	<rect fill="#0A58B8" height="11" width="6" x="225" y="116" />
	<rect fill="#0A58B8" height="11" width="6" x="237" y="116" />
	<rect fill="#0A58B8" height="11" width="6" x="249" y="116" />
	<rect fill="#0A58B8" height="11" width="6" x="213" y="74" />
	<rect fill="#0A58B8" height="11" width="6" x="225" y="74" />
	<rect fill="#0A58B8" height="11" width="6" x="237" y="74" />
	<rect fill="#0A58B8" height="11" width="6" x="249" y="74" />
	<rect fill="url(#paint10_linear)" height="78" width="52" x="267" y="68" />
	<rect fill="#4AB4ED" height="62" width="6" x="271" y="72" />
	<rect fill="#4AB4ED" height="48" width="6" x="283" y="72" />
	<rect fill="#4AB4ED" height="48" width="6" x="295" y="72" />
	<rect fill="url(#paint11_linear)" height="18" width="18" x="283" y="128" />
	<rect fill="#4AB4ED" height="62" width="6" x="307" y="72" />
	<path clip-rule="evenodd" d="M292 36H294V36.4807L302 39L294 41.5193V53H304V81H282V53H292V36Z" fill="url(#paint12_linear)" fill-rule="evenodd" />
	<circle cx="165" cy="132" fill="#53B8EE" r="2" />
	<circle cx="169" cy="132" fill="#53B8EE" r="2" />
	<circle cx="173" cy="132" fill="#53B8EE" r="2" />
	<circle cx="177" cy="132" fill="#53B8EE" r="2" />
	<circle cx="181" cy="132" fill="#53B8EE" r="2" />
	<circle cx="185" cy="132" fill="#53B8EE" r="2" />
	<defs>
		<linearGradient gradientUnits="userSpaceOnUse" id="paint0_linear" x1="228.5" x2="228.924" y1="0" y2="107.723">
			<stop offset="0.26092" stop-color="#77C9FC" />
			<stop offset="1" stop-color="#8DD0F9" stop-opacity="0" />
		</linearGradient>
		<linearGradient gradientUnits="userSpaceOnUse" id="paint1_linear" x1="298.5" x2="298.926" y1="10" y2="126.514">
			<stop offset="0.117258" stop-color="#EEF6FA" />
			<stop offset="1" stop-color="#EEF6FA" stop-opacity="0" />
		</linearGradient>
		<radialGradient cx="0" cy="0" gradientTransform="translate(236.808 141) rotate(90) scale(14.5 129.957)" gradientUnits="userSpaceOnUse" id="paint2_radial" r="1">
			<stop stop-color="#084A9B" stop-opacity="0.12" />
			<stop offset="1" stop-color="white" />
		</radialGradient>
		<linearGradient gradientUnits="userSpaceOnUse" id="paint3_linear" x1="158.5" x2="352" y1="146" y2="-224.5">
			<stop stop-color="#1AA0E8" />
			<stop offset="0.117974" stop-color="#1AA0E8" stop-opacity="0.892818" />
			<stop offset="1" stop-color="#1AA0E8" stop-opacity="0" />
		</linearGradient>
		<linearGradient gradientUnits="userSpaceOnUse" id="paint4_linear" x1="150.5" x2="237" y1="96" y2="60">
			<stop stop-color="#56B9EF" />
			<stop offset="1" stop-color="#56B9EF" stop-opacity="0" />
		</linearGradient>
		<linearGradient gradientUnits="userSpaceOnUse" id="paint5_linear" x1="154" x2="223.5" y1="110" y2="90.5">
			<stop stop-color="#56B9EF" />
			<stop offset="1" stop-color="#56B9EF" stop-opacity="0" />
		</linearGradient>
		<linearGradient gradientUnits="userSpaceOnUse" id="paint6_linear" x1="154" x2="215" y1="119" y2="119">
			<stop stop-color="#56B9EF" />
			<stop offset="1" stop-color="#56B9EF" stop-opacity="0" />
		</linearGradient>
		<linearGradient gradientUnits="userSpaceOnUse" id="paint7_linear" x1="170.5" x2="170.5" y1="146" y2="130.5">
			<stop stop-color="#79C7F2" />
			<stop offset="1" stop-color="#79C7F2" stop-opacity="0" />
		</linearGradient>
		<linearGradient gradientUnits="userSpaceOnUse" id="paint8_linear" x1="215" x2="251" y1="148" y2="-30.5">
			<stop offset="0.524722" stop-color="#0B63CE" />
			<stop offset="1" stop-color="#0B63CE" stop-opacity="0" />
		</linearGradient>
		<linearGradient gradientUnits="userSpaceOnUse" id="paint9_linear" x1="235" x2="235" y1="150" y2="120.5">
			<stop stop-color="#084A9B" />
			<stop offset="0.866571" stop-color="#084A9B" stop-opacity="0" />
		</linearGradient>
		<linearGradient gradientUnits="userSpaceOnUse" id="paint10_linear" x1="274" x2="385.5" y1="146" y2="-125">
			<stop stop-color="#1AA0E8" />
			<stop offset="1" stop-color="#1AA0E8" stop-opacity="0.86" />
		</linearGradient>
		<linearGradient gradientUnits="userSpaceOnUse" id="paint11_linear" x1="292" x2="292" y1="128" y2="151">
			<stop stop-color="#79C7F2" />
			<stop offset="1" stop-color="#28A1E1" stop-opacity="0.27" />
		</linearGradient>
		<linearGradient gradientUnits="userSpaceOnUse" id="paint12_linear" x1="285.5" x2="312" y1="70.5" y2="36">
			<stop stop-color="#1AA0E8" />
			<stop offset="1" stop-color="#1AA0E8" stop-opacity="0" />
		</linearGradient>
	</defs>
</svg>