<svg fill="none" height="20" width="20" xmlns="http://www.w3.org/2000/svg">
	<mask height="20" id="a" maskUnits="userSpaceOnUse" width="20" x="0" y="0">
		<path d="M0 0h20v20H0z" fill="#C4C4C4" />
	</mask>
	<g mask="url(#a)">
		<path d="M7.648 9.89h2.118c.046-.882.64-1.453 1.539-1.453.89 0 1.484.54 1.484 1.282s-.305 1.125-1.312 1.726c-1.079.633-1.508 1.336-1.407 2.563l.016.453h2.07v-.414c0-.766.29-1.149 1.328-1.75 1.102-.649 1.672-1.469 1.672-2.649 0-1.78-1.476-3.023-3.71-3.023-2.4 0-3.758 1.344-3.798 3.266zm3.5 8.305c.711 0 1.282-.539 1.282-1.226 0-.688-.57-1.227-1.282-1.227-.703 0-1.273.54-1.273 1.227s.57 1.226 1.273 1.226z" fill="#fff" />
	</g>
</svg>