<svg fill="none" height="269" width="518" xmlns="http://www.w3.org/2000/svg">
	<path d="M380 43.504c0-2.435 4.029-4.756 6.279-3.824l127.647 52.873c2.25.932 4.074 3.662 4.074 6.097v113.913c0 2.435-3.465 5.314-5.715 4.382l-126.006-54.534c-2.25-.932-4.074-3.661-4.074-6.097L380 43.504z" fill="#44BEEB" />
	<path d="M379 43.872c0-2.435 1.824-3.654 4.074-2.722l127.647 52.873c2.25.932 4.074 3.662 4.074 6.097v113.913c0 2.435-1.824 3.654-4.074 2.722l-127.647-52.874c-2.25-.932-4.074-3.661-4.074-6.097V43.872z" fill="#EDFBFF" />
	<path d="M474.298 145.549c-2.567 5.566-6.982 9.311-12.616 10.699-5.633 1.387-12.197.348-18.755-2.971-6.558-3.318-12.774-8.746-17.762-15.509-4.987-6.763-8.492-14.515-10.013-22.151-1.521-7.635-.98-14.763 1.544-20.367 2.524-5.604 6.903-9.397 12.513-10.839 5.609-1.441 12.162-.457 18.723 2.813 6.562 3.269 12.796 8.656 17.814 15.393l-20.206 17.689 28.758 25.243z" fill="#31B469" />
	<path d="M474.983 138.274c1.84-3.837 2.274-8.772 1.24-14.085-1.035-5.314-3.484-10.728-6.991-15.453l-14.187 11.935 19.938 17.603z" fill="#3E86C8" />
	<path d="M399.369 149.319l26.48 10.968v2.205l-26.48-10.969v-2.204z" fill="#FCD270" />
	<path d="M433.318 163.38l27.159 11.25v2.205l-27.159-11.25v-2.205z" fill="#C4D6DA" />
	<path d="M467.945 176.989l26.48 10.968v2.205l-26.48-10.968v-2.205z" fill="#3E86C8" />
	<path d="M379 95.08l104 110.499v-45l-104-117.5v52z" fill="url(#paint0_linear)" />
	<path d="M515.001 105.079l-.19 22-50.5-52 30 12 16.69 7c4 2.5 4 4 4 11z" fill="url(#paint1_linear)" opacity=".9" />
	<path d="M159 41.57c0-2.48 2.74-4.49 6.12-4.49h191.76c3.38 0 6.12 2.01 6.12 4.49v116.018c0 2.481-2.74 4.491-6.12 4.491H165.12c-3.38 0-6.12-2.01-6.12-4.491V41.57z" fill="#44BEEB" />
	<path d="M159 44.462c0-2.42 2.74-4.383 6.12-4.383h191.76c3.38 0 6.12 1.963 6.12 4.383v113.234c0 2.421-2.74 4.383-6.12 4.383H165.12c-3.38 0-6.12-1.962-6.12-4.383V44.463z" fill="#EDFBFF" />
	<path d="M183 123.079h43.86l.039 2.994h-43.86l-.039-2.994zM183.117 132.061h57.12l.039 2.993h-57.12l-.039-2.993zM183.234 141.042h35.7l.04 2.994h-35.7l-.04-2.994zM279.76 123.079h57.12l.039 2.994h-57.12l-.039-2.994z" fill="#C4D6DA" />
	<path d="M279.838 129.067h24.48l.039 2.994h-24.48l-.039-2.994zM279.916 135.054h24.48l.039 2.994h-24.48l-.039-2.994zM279.994 141.042h24.48l.039 2.994h-24.48l-.039-2.994z" fill="#CCDEE2" opacity=".5" />
	<path d="M183 81.079h17v28h-17z" fill="#FCD270" opacity=".3" />
	<path d="M183 89.079h17v20h-17z" fill="#FCD270" />
	<path d="M208 63.079h17v46h-17z" fill="#3E86C8" opacity=".3" />
	<path d="M208 71.079h17v38h-17z" fill="#3E86C8" />
	<path d="M233 74.079h17v35h-17z" fill="#DA5449" opacity=".3" />
	<path d="M233 81.079h17v28h-17z" fill="#DA5449" />
	<path d="M279.5 97.58l12-12.5 9.5 7 11.5-6 10.5 10 11.5-28" stroke="#E48350" stroke-linecap="round" stroke-linejoin="round" />
	<circle cx="279" cy="98.079" fill="#44BEEB" r="2" />
	<circle cx="291" cy="85.079" fill="#44BEEB" r="2" />
	<circle cx="301" cy="92.079" fill="#44BEEB" r="2" />
	<circle cx="312" cy="86.079" fill="#44BEEB" r="2" />
	<circle cx="323" cy="96.079" fill="#44BEEB" r="2" />
	<circle cx="335" cy="67.079" fill="#44BEEB" r="2" />
	<path d="M0 100.321c0-2.442 1.864-5.194 4.162-6.147l130.425-54.023c2.299-.952 6.208 1.714 6.208 4.157l-2.045 112.786c0 2.443-1.864 5.195-4.163 6.147L5.632 218.919c-2.3.952-5.632-1.91-5.632-4.353V100.321z" fill="#44BEEB" />
	<path d="M3.252 102.183c0-2.442 1.864-5.194 4.162-6.146L137.84 42.013c2.299-.952 4.163.256 4.163 2.698v114.245c0 2.443-1.864 5.195-4.163 6.147L7.414 219.127c-2.298.952-4.162-.256-4.162-2.699V102.183z" fill="#EDFBFF" />
	<path d="M23.224 177.623c-1.835.76-3.322-.108-3.322-1.939v-63.815c0-1.831 1.487-3.931 3.322-4.691l98.807-40.927c1.834-.76 3.321.108 3.321 1.94v63.814c0 1.831-1.487 3.931-3.321 4.691l-98.807 40.927z" fill="#fff" />
	<path d="M23.224 177.623c-1.835.76-3.322-.108-3.322-1.939v-63.815c0-1.831 1.487-3.931 3.322-4.691l98.807-40.927c1.834-.76 3.321.108 3.321 1.94v63.814c0 1.831-1.487 3.931-3.321 4.691l-98.807 40.927z" fill="#EDFBFF" fill-opacity=".5" />
	<path d="M23.224 177.623c-1.835.76-3.322-.108-3.322-1.939v-63.815c0-1.831 1.487-3.931 3.322-4.691l98.807-40.927c1.834-.76 3.321.108 3.321 1.94v63.814c0 1.831-1.487 3.931-3.321 4.691l-98.807 40.927z" fill="#235CA7" />
	<path d="M23.224 174.861c-1.835.759-3.322-.103-3.322-1.926v-61.079c0-1.824 1.487-3.918 3.322-4.678l98.807-40.927c1.834-.76 3.321.102 3.321 1.926v61.079c0 1.823-1.487 3.917-3.321 4.677l-98.807 40.928z" fill="#fff" />
	<path d="M23.224 174.861c-1.835.759-3.322-.103-3.322-1.926v-61.079c0-1.824 1.487-3.918 3.322-4.678l98.807-40.927c1.834-.76 3.321.102 3.321 1.926v61.079c0 1.823-1.487 3.917-3.321 4.677l-98.807 40.928z" fill="#EDFBFF" fill-opacity=".5" />
	<path d="M23.224 174.861c-1.835.759-3.322-.103-3.322-1.926v-61.079c0-1.824 1.487-3.918 3.322-4.678l98.807-40.927c1.834-.76 3.321.102 3.321 1.926v61.079c0 1.823-1.487 3.917-3.321 4.677l-98.807 40.928z" fill="#44BEEB" />
	<path d="M89.234 167.546c-.359.149-.65-.172-.65-.717v-4.933c0-.545.291-1.107.65-1.256l9.106-3.772c.359-.148.65.173.65.718v4.933c0 .545-.291 1.107-.65 1.256l-9.106 3.771z" fill="#fff" />
	<path d="M89.234 167.546c-.359.149-.65-.172-.65-.717v-4.933c0-.545.291-1.107.65-1.256l9.106-3.772c.359-.148.65.173.65.718v4.933c0 .545-.291 1.107-.65 1.256l-9.106 3.771z" fill="#1F9CE8" />
	<path d="M89.234 167.546c-.359.149-.65-.172-.65-.717v-4.933c0-.545.291-1.107.65-1.256l9.106-3.772c.359-.148.65.173.65.718v4.933c0 .545-.291 1.107-.65 1.256l-9.106 3.771z" fill="#CCDEE2" />
	<path d="M102.416 162.087c-.359.148-.65-.173-.65-.718v-4.933c0-.545.291-1.107.65-1.256l9.105-3.771c.36-.149.651.172.651.717v4.933c0 .545-.291 1.107-.651 1.256l-9.105 3.772z" fill="#fff" />
	<path d="M102.416 162.087c-.359.148-.65-.173-.65-.718v-4.933c0-.545.291-1.107.65-1.256l9.105-3.771c.36-.149.651.172.651.717v4.933c0 .545-.291 1.107-.651 1.256l-9.105 3.772z" fill="#1F9CE8" />
	<path d="M102.416 162.087c-.359.148-.65-.173-.65-.718v-4.933c0-.545.291-1.107.65-1.256l9.105-3.771c.36-.149.651.172.651.717v4.933c0 .545-.291 1.107-.651 1.256l-9.105 3.772z" fill="#CCDEE2" />
	<path d="M116.248 156.357c-.336.139-.607-.19-.607-.735v-4.933c0-.545.271-1.099.607-1.238l8.498-3.52c.335-.139.607.19.607.735v4.933c0 .545-.272 1.099-.607 1.238l-8.498 3.52z" fill="#fff" />
	<path d="M116.248 156.357c-.336.139-.607-.19-.607-.735v-4.933c0-.545.271-1.099.607-1.238l8.498-3.52c.335-.139.607.19.607.735v4.933c0 .545-.272 1.099-.607 1.238l-8.498 3.52z" fill="#1F9CE8" />
	<path d="M116.248 156.357c-.336.139-.607-.19-.607-.735v-4.933c0-.545.271-1.099.607-1.238l8.498-3.52c.335-.139.607.19.607.735v4.933c0 .545-.272 1.099-.607 1.238l-8.498 3.52z" fill="#CCDEE2" />
	<path d="M65.707 115.135l13.86 1.062-13.876 13.686.016-14.748z" fill="#fff" />
	<path d="M19.902 183.833l15.35-6.358v3.108l-15.35 6.358v-3.108zM19.902 190.049l40.931-16.954v6.215l-40.93 16.955v-6.216z" fill="#245DA6" />
	<path d="M19.902 168.639l105.45-43.678v3.453l-105.45 43.679v-3.454z" fill="#fff" opacity=".7" />
	<path d="M19.902 168.639l24.975-10.345v3.454l-24.975 10.345v-3.454z" fill="#DA5449" />
	<path d="M142 95.08L38 205.578v-45l104-117.5v52z" fill="url(#paint2_linear)" />
	<path d="M4.31 106.079l.19 22 50.5-52-30 12-16.69 7c-4 2.5-4 4-4 11z" fill="url(#paint3_linear)" opacity=".8" />
	<path d="M295.313 230.888s-5.877-1.004-19.589 6.087c-5.885 3.046-12.273-9.125-19.331-4.942-17.621 10.46-11.345 23.222-3.193 27.243 8.152 4.022 64.735-15.521 42.113-28.388z" fill="#E5EAEA" opacity=".56" />
	<path d="M283.956 157.063s-22.767 9.237-31.167 16.55c0 0 9.466-17.306 27.859-26.426 0 0 5.699-4.114 3.308 9.876z" fill="#C7D9E8" />
	<path d="M292.952 155.918l-23.807 4.181s-5.436-11.038-11.674-10.741c0 0 18.589-8.25 30.991-5.277 0 .017 6.56.456 4.49 11.837z" fill="#05A" />
	<path d="M253.9 172.718s15.37-9.759 24.251-12.962c0 0-2.805-3.763-3.006-3.073-1.041 3.629-10.486 3.462-21.245 16.035z" fill="#000" opacity=".1" />
	<path d="M273.098 185.542c3.558-3.475 6.083 47.795 12.928 54.485 0 0 2.847-27.989 4.884-35.929 2.45-9.533 4.486-14.634.397-23.833l-18.209 5.277z" fill="#12435B" />
	<path d="M288.63 181.197c-7.61-19.012 7.643-33.788-2.049-36.43 0 0-13.221-4.846-8.187-15.224 0 0 7.05-12.339-7.049-14.103-14.099-1.765-11.465 23.088-6.171 22.578 3.098-.301 4.871 4.303 3.541 5.49-.87.774-8.534 4.558-9.412 6.092C252.927 160.793 226 171.76 226 171.76s28.679-3.922 42.556-12.961" fill="#C7D9E8" />
	<path d="M284.231 119.734s-.999 12.961-6.606 15.023c0 0 1.672-11.733-1.924-9.366" fill="#0A628E" />
	<path d="M284.231 119.734s-2.625-4.938-5.97-6.531l-1.158-.606h-2.367c-3.023-.795-4.027-1.046-8.413 2.036-4.386 3.081-3.315 5.268-3.315 5.268 4.277-.205 5.339 1.974 5.339 1.974-1.831 5.368 6.029 1.4 6.029 1.4l6.611 2.647s3.763-3.199 3.244-6.188z" fill="#0A628E" />
	<path d="M270.291 129.547c1.02 7.288 7.317 5.197 7.317 5.197 5.607-2.049 6.623-15.01 6.623-15.01-.64-1.623-2.091.585-3.399 1.559-1.309.975-3.036.464-5.72-.585-2.684-1.05-3.692.042-3.889 1.597-.196 1.556-3.115 1.112-3.115 1.112-.656 5.77 1.832 1.882 1.832 1.882s1.635-2.024 2.529.74c.895 2.764-2.178 3.508-2.178 3.508z" fill="#0A4177" />
	<path d="M255.883 245.144s2.182 3.115 4.214 2.927c2.032-.188 1.761-4.624-4.214-2.927zm27.094-3.897s.33 3.542 2.442 2.81c2.111-.732.715-1.944-2.442-2.81z" fill="#1F9CE8" />
	<path d="M255.883 245.144s2.182 3.115 4.214 2.927c2.032-.188 1.761-4.624-4.214-2.927zm27.094-3.897s.33 3.542 2.442 2.81c2.111-.732.715-1.944-2.442-2.81z" fill="#44BEEB" />
	<path d="M283.233 181.996s-17.787 3.495-20.358-3.893c-5.252 34.93-3.554 30.941-2.124 65.131 0 0 7.84-35.306 17.929-40.391 9.061-4.565 7.171-16.131 8.241-22.093l-3.688 1.246zm-10.135-21.073s7.221 9.014 6.405 12.631l4.713-2.902s-6.427-11.197-11.118-9.729z" fill="#1D5577" />
	<path d="M264.015 179.859s-4.073 11.511 28.737 5.925a16.866 16.866 0 01-1.029-4.666l-27.708-1.259z" fill="#12435B" />
	<path d="M259.951 163.176s3.763-1.906 2.927 2.342c0 2.228-.268 7.911-.268 7.911l-1.083 4.097c2.509 10.261 31.359 4.599 31.359 4.599-4.767-8.517-3.604-9.462-1.254-18.112 3.386-12.544.572-17.879.572-17.879-.765-3.738-10.507-5.586-10.507-5.586l-8.145 1.254h-6.171l-9.901 7.526s-3.538 12.456 2.471 13.848z" fill="#05A" />
	<path d="M259.951 163.176s3.763-1.906 2.927 2.342c0 2.228-.268 7.911-.268 7.911l-1.083 4.097c2.509 10.261 31.359 4.599 31.359 4.599-4.767-8.517-3.604-9.462-1.254-18.112 3.386-12.544.572-17.879.572-17.879-.765-3.738-10.507-5.586-10.507-5.586l-8.145 1.254h-6.171l-9.901 7.526s-3.538 12.456 2.471 13.848z" fill="#FCD270" />
	<path d="M274.986 205.632s-6.205-8.17-6.795-.924c-.589 7.246 1.175 10.595-2.981 11.222 0 0-1.898-3.951-2.801 4.349-.857 16.394.343 14.278-1.673 22.954.013 0 7.246-31.066 14.25-37.601z" fill="#12435B" />
	<path d="M263.548 157.557s-1.518-13.823 3.495-15.721c1.936-.732 10.119-3.454 11.687-1.886l10.135 3.065-25.317 14.542z" fill="#05A" />
	<path d="M263.548 157.557s-1.518-13.823 3.495-15.721c1.936-.732 10.119-3.454 11.687-1.886l10.135 3.065-25.317 14.542z" fill="#FCD270" />
	<path d="M262.004 161.851s-24.31 7.861-32.731 9.378c0 0 30.678-8.053 32.283-15.746 0 0 1.133-3.905 3.467-.87 2.333 3.036-.544 4.181 0 5.503.543 1.321 4.043 7.108 1.71 7.722-2.333.615-.172 2.509-.707 3.868-.535 1.359-2.287 3.345-2.693 2.897-.405-.447 0-2.721 0-3.888 0-1.167 1.179-8.626-1.329-8.864z" fill="#000" opacity=".1" />
	<path d="M271.323 129.095s-3.416 3.718-3.11 6.77c0 0 11.33 4.097 20.847.155 0 0-1.363-10.646-4.846-16.307l-7.944 6.343-4.947 3.039zm-3.336-4.344s.769 4.825-.632 6.147c0 0 3.036-3.186 2.568-5.599 0-.013-1.928-1.652-1.936-.548z" fill="#0A4177" />
	<path d="M273.545 141.815s10.419 5.017 4.762 10.929c-5.657 5.912-9.395 7.945-4.106 12.602 5.289 4.658 4.156 14.12-2.542 16.336l-1.05 1.468s11.854.782 19.313-1.509c0 0-4.035-6.465 0-16.98 0 0 5.315-17.014-1.459-20.563 0 0-8.571-5.131-14.918-2.283z" fill="#000" opacity=".1" />
	<defs>
		<linearGradient gradientUnits="userSpaceOnUse" id="paint0_linear" x1="512.77" x2="337.26" y1="213.699" y2="112.369">
			<stop offset=".31" stop-color="#fff" stop-opacity="0" />
			<stop offset=".38" stop-color="#fff" stop-opacity=".02" />
			<stop offset=".46" stop-color="#fff" stop-opacity=".08" />
			<stop offset=".56" stop-color="#fff" stop-opacity=".18" />
			<stop offset=".66" stop-color="#fff" stop-opacity=".32" />
			<stop offset=".76" stop-color="#fff" stop-opacity=".49" />
			<stop offset=".87" stop-color="#fff" stop-opacity=".71" />
			<stop offset=".98" stop-color="#fff" stop-opacity=".96" />
			<stop offset="1" stop-color="#fff" />
		</linearGradient>
		<linearGradient gradientUnits="userSpaceOnUse" id="paint1_linear" x1="481978" x2="473878" y1="346648" y2="344142">
			<stop offset=".31" stop-color="#fff" stop-opacity="0" />
			<stop offset=".38" stop-color="#fff" stop-opacity=".02" />
			<stop offset=".46" stop-color="#fff" stop-opacity=".08" />
			<stop offset=".56" stop-color="#fff" stop-opacity=".18" />
			<stop offset=".66" stop-color="#fff" stop-opacity=".32" />
			<stop offset=".76" stop-color="#fff" stop-opacity=".49" />
			<stop offset=".87" stop-color="#fff" stop-opacity=".71" />
			<stop offset=".98" stop-color="#fff" stop-opacity=".96" />
			<stop offset="1" stop-color="#fff" />
		</linearGradient>
		<linearGradient gradientUnits="userSpaceOnUse" id="paint2_linear" x1="8.23" x2="183.74" y1="213.699" y2="112.369">
			<stop offset=".31" stop-color="#fff" stop-opacity="0" />
			<stop offset=".38" stop-color="#fff" stop-opacity=".02" />
			<stop offset=".46" stop-color="#fff" stop-opacity=".08" />
			<stop offset=".56" stop-color="#fff" stop-opacity=".18" />
			<stop offset=".66" stop-color="#fff" stop-opacity=".32" />
			<stop offset=".76" stop-color="#fff" stop-opacity=".49" />
			<stop offset=".87" stop-color="#fff" stop-opacity=".71" />
			<stop offset=".98" stop-color="#fff" stop-opacity=".96" />
			<stop offset="1" stop-color="#fff" />
		</linearGradient>
		<linearGradient gradientUnits="userSpaceOnUse" id="paint3_linear" x1="-481458" x2="-473358" y1="346649" y2="344143">
			<stop offset=".31" stop-color="#fff" stop-opacity="0" />
			<stop offset=".38" stop-color="#fff" stop-opacity=".02" />
			<stop offset=".46" stop-color="#fff" stop-opacity=".08" />
			<stop offset=".56" stop-color="#fff" stop-opacity=".18" />
			<stop offset=".66" stop-color="#fff" stop-opacity=".32" />
			<stop offset=".76" stop-color="#fff" stop-opacity=".49" />
			<stop offset=".87" stop-color="#fff" stop-opacity=".71" />
			<stop offset=".98" stop-color="#fff" stop-opacity=".96" />
			<stop offset="1" stop-color="#fff" />
		</linearGradient>
	</defs>
</svg>