<svg fill="none" height="16" viewBox="0 0 16 16" width="16" xmlns="http://www.w3.org/2000/svg">
	<path d="M7.09192 1.96893C7.44932 1.19401 8.55068 1.19401 8.90808 1.96893L10.0203 4.38047C10.1671 4.6989 10.47 4.91713 10.8186 4.95562L13.6798 5.27162C14.5538 5.36815 14.8867 6.4646 14.2139 7.03075L12.1402 8.7756C11.8423 9.02621 11.717 9.42688 11.8189 9.80256L12.7336 13.1746C12.9832 14.0949 11.9257 14.8092 11.1652 14.2339L8.57776 12.2768C8.23306 12.016 7.75986 12.0062 7.40468 12.2525L4.51073 14.2591C3.71646 14.8098 2.68057 14.0253 2.9955 13.1115L4.12452 9.83556C4.25929 9.44452 4.13941 9.01086 3.82293 8.74456L1.78612 7.03075C1.11328 6.4646 1.44615 5.36815 2.32018 5.27162L5.18142 4.95562C5.52995 4.91713 5.83286 4.69889 5.97972 4.38047L7.09192 1.96893Z" stroke="currentColor" stroke-linecap="round" stroke-linejoin="round" stroke-width="1.5" />
</svg>