<?xml version="1.0"?>

<svg
	height="20"
	viewBox="0 0 20 20"
	width="20"
	xmlns="http://www.w3.org/2000/svg"
>
	<path clip-rule="evenodd" d="M11.7501 0C11.3358 0 11.0001 0.335938 11.0001 0.75L11 7.75C11 7.94873 11.079 8.13965 11.2197 8.28027C11.3603 8.4209 11.5511 8.5 11.75 8.5H18.75C19.1642 8.5 19.5 8.16406 19.5 7.75C19.5 3.46973 16.0302 0 11.7501 0ZM12.5 7L12.5001 1.54443C15.3523 1.88574 17.6144 4.14795 17.9554 7H12.5ZM1.5 10.75C1.5 6.74609 4.74591 3.5 8.75 3.5C9.16418 3.5 9.5 3.16406 9.5 2.75C9.5 2.33594 9.16418 2 8.75 2C3.91748 2 0 5.91748 0 10.75C0 15.5825 3.91748 19.5 8.75 19.5C13.5825 19.5 17.5 15.5825 17.5 10.75C17.5 10.3359 17.1642 10 16.75 10C16.3358 10 16 10.3359 16 10.75C16 14.7539 12.7541 18 8.75 18C4.74591 18 1.5 14.7539 1.5 10.75Z" fill-rule="evenodd" transform="translate(0.25 0.25)" />
</svg>