<svg height="487" viewBox="0 0 512 487" width="512" xmlns="http://www.w3.org/2000/svg">
	<path d="M7.75 1.5C5.95508 1.5 4.5 2.95508 4.5 4.75C4.5 6.54492 5.95508 8 7.75 8C7.87238 8 7.99316 7.99316 8.11206 7.97998C8.07495 8.01074 8.04004 8.04443 8.00775 8.08008C7.49121 8.37646 7.09027 8.85205 6.89026 9.42236C4.67731 9.01758 3 7.08008 3 4.75C3 2.12646 5.12665 0 7.75 0C10.3734 0 12.5 2.12646 12.5 4.75C12.5 5.8877 12.1 6.93213 11.433 7.75H9.0022C10.1755 7.25977 11 6.10107 11 4.75C11 2.95508 9.54492 1.5 7.75 1.5Z" transform="translate(6.4 6.4) scale(25.6)" />
	<path d="M5.74847 11H4.25C1.93768 11 0 12.7939 0 15.0835V16.75C0 17.1641 0.335815 17.5 0.75 17.5C1.16418 17.5 1.5 17.1641 1.5 16.75V15.0835C1.5 13.6904 2.69629 12.5 4.25 12.5H5.74847V11Z" transform="translate(6.4 6.4) scale(25.6)" />
	<path clip-rule="evenodd" d="M8.375 17.25V10.75C8.375 10.1978 8.82269 9.75 9.375 9.75H18.75C19.3023 9.75 19.75 10.1978 19.75 10.75V17.75C19.75 18.3022 19.3023 18.75 18.75 18.75H5.5C5.08582 18.75 4.75 18.4141 4.75 18C4.75 17.5859 5.08582 17.25 5.5 17.25H8.375ZM9.875 17.25V11.25H18.25V17.25H9.875Z" fill-rule="evenodd" transform="translate(6.4 6.4) scale(25.6)" />
</svg>