<svg fill="none" height="280" viewBox="0 0 268 280" width="268" xmlns="http://www.w3.org/2000/svg">
	<path d="M262.305 86.1819L201.657 51.1736C200.093 50.2651 198.281 49.8021 196.97 51.1125C197.792 50.8984 199.718 50.8984 200.871 51.5492L261.514 86.5794C264.135 88.0819 266.244 91.4408 266.419 94.044V200.676C266.244 201.711 265.904 202.471 265.336 202.926C266.371 202.65 267.035 201.733 267.293 200.283V93.6465C267.035 91.0477 264.904 87.6844 262.305 86.1819Z" fill="#44BEEB" />
	<path d="M261.671 202.908L200.845 167.786C198.233 166.279 196.097 162.929 196.097 160.309V53.3401C196.097 50.7194 198.233 49.8458 200.845 51.3352L261.671 86.4527C264.292 87.9596 266.419 91.3316 266.419 93.9436V200.903C266.419 203.511 264.283 204.424 261.671 202.908V202.908Z" fill="#E6F9FF" />
	<path d="M254.626 157.373L234.534 145.777V143.374L254.626 154.975V157.373ZM247.201 170.63L234.097 162.484V160.025L247.201 168.171V170.63ZM247.201 166.297L234.097 158.155V155.696L247.201 163.842V166.297ZM247.201 161.881L234.097 153.739V151.28L247.201 159.426V161.881Z" fill="#CCDEE2" />
	<path d="M218.373 154.425L202.212 145.095V142.697L218.373 152.027V154.425ZM222.304 148.524L202.212 136.923V134.525L222.304 146.126V148.524ZM215.315 135.844L202.212 128.279V125.829L215.315 133.394V135.844Z" fill="#CCDEE2" />
	<path d="M220.994 119.426L211.821 114.132V91.384L220.994 96.6778V119.426Z" fill="#FDCC4A" />
	<path d="M234.534 127.427L225.361 122.134V81.2768L234.534 86.575V127.427Z" fill="#168CCA" />
	<path d="M248.074 135.255L238.902 129.961V97.9663L248.074 103.26V135.255Z" fill="#D33A2F" />
	<path d="M197.407 114.149L253.753 214.649V166.677L197.407 64.1068V114.149Z" fill="url(#paint0_linear)" />
	<path d="M39.6975 198.274C39.6975 198.274 23.8946 196.221 9.7865 206.337C-4.32163 216.453 1.3522 220.751 7.47592 220.751C27.7121 220.751 16.9017 210.923 24.2048 210.923C33.8227 210.91 49.7741 200.768 39.6975 198.274V198.274Z" fill="#E5EAEA" opacity="0.56" />
	<path d="M6.87753 126.239C6.52374 125.803 -1.64412 116.399 10.0224 113.525C18.8978 111.341 19.671 125.34 16.6484 126.847C10.053 130.131 17.736 130.703 17.736 130.703L25.1919 137.897C25.1919 137.897 38.837 143.139 40.7633 128.288C40.7633 128.288 45.7295 149.044 25.1919 144.187L21.5404 146.327C21.8573 151.009 21.6477 155.712 20.9158 160.348C20.9158 160.348 24.5455 193.731 24.1087 198.501L14.7702 169.075L8.27961 205.905C8.27961 205.905 4.43155 182.021 5.03868 170.088C4.83775 168.271 5.82052 163.877 7.03478 157.526C7.03478 157.526 3.42257 137.91 3.64533 133.551C3.64533 133.551 4.32671 129.786 6.99547 130.677C7.01294 130.677 8.82122 128.694 6.87753 126.239Z" fill="#C7D9E8" />
	<path d="M5.8249 160.352C5.8249 160.352 -1.64411 169.088 8.17917 207.962L16.5436 178.601C16.5436 178.601 23.1565 194.928 24.1087 198.518C24.1087 198.518 25.6724 168.612 21.9248 157.539L5.8249 160.352Z" fill="#1D5577" />
	<path d="M4.1958 163.248C4.1958 163.248 16.0632 165.336 23.327 163.995C23.327 163.995 23.9297 162.331 21.7327 158.347L4.1958 163.248Z" fill="#12435B" />
	<path d="M7.01299 130.677C7.01299 130.677 11.5555 136.106 14.9319 136.871C14.9319 136.871 19.7933 131.909 17.1158 130.424C17.1158 130.424 24.6634 136.25 32.1062 137.67L31.8922 147.856C31.8922 147.856 25.3667 148.577 21.523 146.331L23.5191 157.526C23.5191 157.526 16.6878 162.803 4.17826 163.248C4.17826 163.248 5.1916 160.409 4.61504 155.692C4.23067 152.446 0.072482 148.616 0.00696434 144.929C-0.110967 136.399 1.22996 128.642 7.01299 130.677V130.677Z" fill="#FDCC4A" />
	<path d="M13.6958 112.262C13.6958 112.262 5.65899 107.838 2.98587 116.062L0.941711 126.864L10.0268 126.178V117.639C10.9882 117.736 11.9325 117.959 12.8353 118.303C13.3988 118.556 17.7055 115.682 17.7055 115.682C17.7055 115.682 17.3954 110.952 13.6958 112.262Z" fill="#1D5577" />
	<path d="M16.5436 178.588C17.5394 177.806 18.6576 171.643 19.9985 169.241C19.8053 172.509 20.4047 175.776 21.7457 178.763C21.7457 178.763 23.4928 186.358 21.7457 191.77L16.5436 178.588Z" fill="#12435B" />
	<path d="M8.27966 209.421V213.116L12.1015 216.422L8.27966 209.421V209.421ZM24.0039 199.292V202.987L27.8258 206.293L24.0039 199.292V199.292Z" fill="#1F9CE8" />
	<path d="M18.8324 140.95C18.8324 140.95 16.5174 133.237 28.7954 139.989C28.8086 139.989 27.8258 140.347 18.8324 140.95V140.95Z" fill="black" />
	<path d="M11.8656 143.104C10.813 142.973 5.31386 138.356 9.34975 136.46C13.3856 134.564 10.861 129.07 10.861 129.07C10.861 129.07 11.0008 126.519 16.6484 126.86C16.6484 126.86 9.81711 129.808 17.1332 130.424C17.1332 130.424 20.0029 144.121 11.8656 143.104V143.104Z" fill="black" />
	<path d="M1.43526 139.679C1.43526 139.679 3.1824 150.193 10.053 154.582C16.9236 158.972 11.1362 153.237 12.879 151.804C14.6218 150.372 17.6531 153.171 19.6666 151.389C21.6802 149.607 19.6666 140.203 19.6666 140.203C19.6666 140.203 -1.47372 135.888 1.43526 139.679V139.679Z" fill="black" />
	<path d="M5.95158 132.656C5.95158 132.656 16.7751 140.776 23.8335 139.208L25.5807 147.668C25.5807 147.668 13.9142 150.538 5.82929 148.542C5.82492 148.537 -7.00781 139.343 5.95158 132.656V132.656Z" fill="#FDCC4A" />
	<path d="M178.333 231.78C178.333 231.78 185.116 237.532 193.301 239.166C197.158 239.939 194.52 245.975 199.316 247.355C213.394 251.396 212.494 245.905 210.057 241.35C207.619 236.794 172.358 218.628 178.333 231.78Z" fill="#E5EAEA" opacity="0.56" />
	<path d="M179.857 180.401C179.857 180.401 173.323 175.596 180.373 169.175C182.19 167.546 186.051 180.239 179.857 180.401Z" fill="#1D5577" />
	<path d="M180.373 169.175C180.373 169.175 186.706 165.808 187.58 162.27C187.903 160.959 194.966 159.872 195.992 160.894L203.417 163.17L180.373 169.175Z" fill="#44BEEB" />
	<path d="M196.896 155.583C196.896 155.583 201.504 147.524 192.293 146.371C183.081 145.218 184.802 161.457 188.261 161.121C190.283 160.924 190.349 162.842 189.484 163.615C188.612 164.402 187.69 165.131 186.724 165.799C180.01 170.21 163.775 175.736 163.775 175.736C163.775 175.736 180.775 177.92 187.108 175.64C187.108 175.64 183.657 209.709 185.959 226.975L194.843 207.512L204.396 238.493C204.396 238.493 209 210.281 209.576 197.042C210.153 183.803 208.593 167.262 202.26 165.537C202.247 165.55 193.612 162.366 196.896 155.583V155.583Z" fill="#C7D9E8" />
	<path d="M186.619 149.28C186.619 149.28 185.116 148.817 184.675 146.314C184.072 142.863 190.1 147.078 190.55 145.925L193.219 144.314L196.586 144.903L198.023 145.86L199.465 148.45C199.465 148.45 198.202 154.906 196.167 158.981C196.167 158.981 197.254 151.32 194.913 152.866L194.219 154.307C194.219 154.307 192.961 159.78 191.882 150.324C190.226 149.593 188.429 149.236 186.619 149.28V149.28Z" fill="#0A628E" />
	<path d="M185.343 229.251C185.343 229.251 182.858 229.251 182.19 230.399C181.521 231.548 184.015 233.086 185.343 229.251ZM204.549 239.995C204.549 239.995 201.491 243.053 203.588 243.835C205.684 244.617 206.466 242.682 204.549 239.995Z" fill="#1F9CE8" />
	<path d="M185.662 192.395C185.662 192.395 184.256 214.719 185.959 226.975L194.913 207.756C194.913 207.756 200.495 227.879 204.247 238.074C204.247 238.074 210.087 210.862 209.672 194.081C209.672 194.063 187.361 197.221 185.662 192.395V192.395ZM193.219 176.09C193.219 176.09 197.94 181.977 197.407 184.332L200.465 182.432C200.465 182.432 196.285 175.129 193.219 176.09ZM180.705 169.708C180.705 169.708 181.661 175.513 180.01 178.007L182.194 177.308C182.194 177.308 182.43 172.731 180.705 169.708Z" fill="#1D5577" />
	<path d="M186.724 194.225C186.724 194.225 193.092 204.446 209 204.564C209 204.564 209.76 199.178 209.681 197.649L186.724 194.225Z" fill="#12435B" />
	<path d="M179.857 180.401C181.901 180.318 186.723 178.483 186.723 178.483L185.662 192.377C187.309 199.086 209.685 199.934 209.685 199.934C211.62 179.973 206.256 166.41 206.256 166.41C206.034 162.846 198.831 162.759 198.831 162.759L190.855 166.424L189.48 163.611L180.373 169.175C180.373 169.175 184.78 180.274 179.857 180.401Z" fill="#44BEEB" />
	<path d="M196.49 172.346C196.394 172.635 191.921 190.866 191.921 190.866C191.921 190.866 210.773 190.578 205.877 167.716L196.49 172.346Z" fill="black" />
	<path d="M192.205 175.443C192.205 175.443 196.678 193.29 200.901 186.258C200.901 186.258 204.426 183.048 192.205 175.443Z" fill="#1D5577" />
	<path d="M197.407 169.433C197.407 169.433 193.367 168.996 192.306 171.42C191.244 173.845 189.654 176.535 188.785 176.919C187.916 177.304 186.571 180.501 186.387 182.93L192.306 178.448C192.306 178.448 199.478 173.578 197.407 169.433Z" fill="black" />
	<path d="M199.333 164.895C199.333 164.895 188.331 182.292 182.19 187.411C182.19 187.411 198.534 186.878 203.911 176.216C203.911 176.216 210.594 163.366 199.333 164.895Z" fill="#C7D9E8" />
	<path d="M198.835 162.776L192.205 175.443C192.205 175.443 201.478 182.231 200.901 186.258C200.901 186.258 209.476 176.151 206.243 166.428C206.243 166.424 206.366 162.134 198.835 162.776Z" fill="#44BEEB" />
	<path d="M194.913 207.739C194.913 207.739 190.349 199.056 189.964 203.786C189.58 208.516 190.729 212.836 188.554 213.941C188.554 213.941 186.509 214.19 186.723 219.523C186.723 219.523 186.924 223.861 185.959 226.975L194.913 207.739ZM196.787 214.343C196.787 214.343 203.959 227.648 206.689 223.206L204.396 238.493L196.787 214.343Z" fill="#12435B" />
	<path d="M188.785 161.121C188.785 160.636 192.603 161.361 194.027 158.457C194.027 158.457 196.59 155.504 195.586 160.492C194.581 165.48 191.655 170.647 190.427 169.175C189.2 167.703 189.012 167.201 188.785 161.121V161.121ZM182.19 187.411C182.19 187.411 194.267 181.637 195.826 178.448L198.884 181.672C198.884 181.672 194.651 186.516 182.19 187.411ZM169.868 175.443L181.246 173.858V177.658L167.121 176.09L169.868 175.443V175.443Z" fill="black" />
	<path d="M155.856 152.617C155.856 152.617 161.307 159.046 170.427 160.103C179.547 161.16 178.429 157.858 176.455 155.299C174.48 152.739 150.811 145.095 155.856 152.617Z" fill="#E5EAEA" opacity="0.56" />
	<path d="M169.54 87.2171C169.54 87.2171 165.57 91.1744 165.941 96.359L168.837 98.5429L164.033 102.247C164.033 102.247 165.343 108.58 164.033 117.901C162.722 127.222 163.915 149.725 163.915 149.725L169.27 130.35L173.314 133.844C173.314 133.844 175.123 139.12 176.372 125.96C176.948 119.871 169.182 119.461 175.171 112.856C175.909 112.044 177.87 107.156 177.735 106.449C176.114 98.1717 175.874 98.5385 174.677 98.6215C173.48 98.7045 186.282 86.3261 169.54 87.2171Z" fill="#C7D9E8" />
	<path d="M175.878 93.1137C175.494 92.3711 173.258 92.1659 171.803 95.136C170.349 98.1061 165.941 96.359 165.941 96.359L168.837 98.5429L168.444 105.029L173.126 101.181C173.126 101.181 177.315 95.8654 175.878 93.1137V93.1137Z" fill="black" />
	<path d="M164.033 102.247C161.238 108.537 158.879 115.013 156.974 121.627L167.051 112.201C167.051 112.201 171.685 91.5588 164.033 102.247V102.247Z" fill="#C7D9E8" />
	<path d="M156.974 121.627L164.443 109.843L163.251 115.757L156.974 121.627Z" fill="black" />
	<path d="M173.642 98.9098C173.642 98.9098 168.444 104.723 167.566 104.793L168.837 98.5429C168.837 98.5429 158.119 103.963 164.365 107.484L164.172 118.211L175.821 118.552C175.821 118.552 174.489 114.245 178.931 109.126C178.931 109.126 182.172 97.4728 173.642 98.9098V98.9098Z" fill="#19AB4F" />
	<path d="M163.648 117.023C163.648 117.023 160.215 124.335 163.906 149.725L169.261 130.35L171.882 152.014C171.882 152.014 180.796 125.274 175.813 118.552L163.648 117.023Z" fill="#1D5577" />
	<path d="M163.107 150.787C163.085 151.459 162.882 152.113 162.518 152.68C162.154 153.246 161.643 153.702 161.041 154.001L164.705 152.896C164.705 152.896 165.173 147.576 163.107 150.787ZM171.803 152.944C171.803 152.944 170.855 156.963 168.558 157.448L170.855 156.963C170.855 156.963 175.852 157.749 171.803 152.944V152.944ZM178.586 89.3181C178.586 89.3181 180.041 94.0091 176.975 95.3544C176.975 95.3544 173.227 98.4993 175.07 92.7337L174.446 90.196L173.306 90.5629L172.144 89.9863L171.672 89.3006L170.763 89.7374L168.444 88.2392H167.68C167.68 88.2392 170.654 84.6183 174.515 86.1426L176.726 87.8898" fill="#1D5577" />
	<path d="M175.52 96.0445C173.219 98.2218 171.639 101.05 170.991 104.151C170.991 104.151 173.314 102.439 173.983 102.234C173.319 103.544 171.598 104.806 171.873 106.842C171.873 106.842 174.524 104.396 176.175 102.911C176.175 102.911 177.106 98.8181 177.411 97.5995C177.717 96.6167 179.971 93.9567 178.333 91.8077L176.765 94.1402L175.52 96.0445Z" fill="#1D5577" />
	<path d="M167.488 105.029C167.488 105.029 169.235 108.196 174.476 108.864C174.004 109.205 170.637 113.346 167.488 105.029Z" fill="black" />
	<path d="M177.477 101.203C175.441 100.766 165.404 122.496 165.404 122.496C165.404 122.496 178.11 111.577 178.944 109.126C179.534 107.314 179.853 101.736 177.477 101.203Z" fill="#C7D9E8" />
	<path d="M165.404 122.496L179.263 104.151C179.263 104.151 180.574 109.829 174.489 114.245L165.404 122.496Z" fill="black" />
	<path d="M169.261 130.35C169.261 130.35 168.728 124.112 166.452 127.03C164.177 129.948 163.421 133.293 163.906 136.923C164.443 140.911 163.906 149.725 163.906 149.725L169.261 130.35Z" fill="#12435B" />
	<path d="M168.09 97.9795C168.09 97.9795 165.955 98.4512 165.85 102.186C165.85 102.186 165.671 104.182 165.413 104.488C165.828 104.302 166.187 104.011 166.454 103.643C166.721 103.275 166.886 102.843 166.933 102.391L167.575 103.055C167.575 103.055 167.732 100.587 168.588 99.8271L168.846 98.5429L168.09 97.9795Z" fill="#1D5577" />
	<path d="M90.3957 3.23728C78.5763 -3.40621 68.9933 0.533584 68.9933 12.0429C68.9933 17.2013 70.9195 23.0061 74.108 28.4397L79.083 27.9112C76.5366 23.8055 74.9772 19.3459 74.9772 15.4061C74.9772 7.10719 81.8784 4.27682 90.3957 9.06398C98.913 13.8511 105.814 24.4519 105.814 32.7421C105.814 36.6731 104.255 39.3855 101.708 40.6304L106.683 46.7454C109.872 44.8978 111.798 41.2637 111.798 36.1053C111.798 24.596 102.215 9.88077 90.3957 3.23728Z" fill="#D33A2F" />
	<path d="M105.683 30.5836L111.584 32.9292C110.063 22.0095 101.166 9.29475 90.4126 3.22782C78.5932 -3.41567 69.0101 0.524123 69.0101 12.0334C69.0101 17.1918 70.9363 22.9967 74.1249 28.4303L79.0999 27.9018C76.5534 23.796 74.9941 19.3364 74.9941 15.3966C74.9941 7.09773 81.8996 4.06208 90.4126 9.05452C94.3546 11.3359 97.759 14.4398 100.394 18.1548C103.029 21.8699 104.833 26.109 105.683 30.5836V30.5836Z" fill="#E06E31" />
	<path d="M103.062 22.6475C104.617 22.7131 106.678 22.8397 108.408 22.9533C104.599 15.0475 97.9514 7.48676 90.3863 3.23685C78.5669 -3.40664 68.9839 0.533156 68.9839 12.0424C68.9839 17.2008 70.9101 23.0057 74.0986 28.4393L79.0736 27.9108C76.5271 23.805 74.9678 19.3455 74.9678 15.4057C74.9678 7.10676 81.869 4.27639 90.3863 9.06355C95.6365 12.0162 100.284 17.179 103.062 22.6475V22.6475Z" fill="#FDCC4A" />
	<path d="M102.451 13.6327C99.1105 9.45143 95.0228 5.92656 90.3957 3.23728C78.5763 -3.40621 68.9933 0.533584 68.9933 12.0429C68.9933 17.2013 70.9195 23.0061 74.108 28.4397L79.083 27.9112C76.5366 23.8055 74.9772 19.3459 74.9772 15.4061C74.9772 7.10719 81.8784 4.27682 90.3957 9.06398C93.82 11.057 96.8347 13.682 99.2799 16.7994L102.451 13.6327Z" fill="#19AB4F" />
	<path d="M85.4682 7.07595L83.2275 0.40626C74.9286 -1.38456 68.9927 2.98329 68.9927 12.0422C68.9927 17.2006 70.9189 23.0055 74.1074 28.4391L79.0824 27.9106C76.5359 23.8048 74.9766 19.3452 74.9766 15.4054C74.9766 8.79252 79.3707 5.64767 85.4682 7.07595V7.07595Z" fill="#168CCA" />
	<path d="M74.9941 14.7022C72.6311 13.1472 70.4952 11.7408 69.032 10.7711C69.0058 11.1817 68.9927 11.601 68.9927 12.0291C68.9927 17.1875 70.9189 22.9923 74.1074 28.4259L79.0824 27.8974C76.5359 23.7917 74.9766 19.3321 74.9766 15.3923C74.9766 15.1652 74.981 14.9337 74.9941 14.7022V14.7022Z" fill="#44BEEB" />
	<path d="M103.154 31.7193C103.154 25.3379 97.9776 17.1744 91.5962 13.4923C85.2148 9.81017 80.349 10.9283 78.6019 18.3537C77.8593 21.5116 97.8204 38.8825 97.8204 38.8825C101.751 36.6986 103.154 34.9515 103.154 31.7193Z" fill="#0B86D1" />
	<path d="M101.201 32.5011C101.201 26.1197 96.0297 17.9562 89.6483 14.2697C83.2668 10.5833 78.0909 12.7716 78.0909 19.1573C78.0909 22.4027 79.4319 26.1066 81.5852 29.448L81.4891 29.3956L89.6352 42.7612L97.8205 38.8825C100.004 37.5722 101.201 35.7464 101.201 32.5011Z" fill="#44BEEB" />
	<path d="M89.74 48.7101V70.9861" stroke="#77C3FC" stroke-dasharray="5.5 5.5" stroke-linecap="round" stroke-linejoin="round" stroke-width="0.69" />
	<path d="M93.8894 33.2917L84.7169 27.9935V20.804L86.6824 20.2275L88.1763 19.7295L93.8894 23.0272V33.2917ZM85.1537 27.7096L93.0158 32.2521V23.2806L88.2112 20.5114L86.9008 20.9482L85.1537 21.4679V27.7096Z" fill="white" />
	<path d="M88.648 23.5995L85.1537 21.5815V20.7735L88.2112 22.5381V19.9742L88.648 20.3935V23.5995ZM91.2687 27.1112L86.9008 24.591V23.8484L91.2687 26.3687V27.1112ZM91.2687 28.5045L86.9008 25.9799V25.2374L91.2687 27.7576V28.5045V28.5045ZM91.2687 29.9547L86.9008 27.4301V26.6875L91.2687 29.2121V29.9547Z" fill="white" />
	<path d="M148.924 276.93L180.809 257.275L117.384 225.354L148.924 276.93Z" fill="url(#paint1_linear)" opacity="0.27" />
	<path d="M162.582 194.614L145.43 187.389L151.108 183.895C151.108 183.895 162.465 194.815 162.582 194.614Z" fill="#1D5577" />
	<path d="M134.073 165.987L186.387 182.93C186.387 182.93 173.768 221.096 132.903 167.808C132.903 167.808 134.235 166.17 134.073 165.987Z" fill="#ABDFFF" />
	<path d="M157.066 188.866L141.062 178.654L168.178 192.268C168.178 192.268 163.871 191.757 157.066 188.866ZM147.574 174.487L179.857 187.411L181.299 186.031L142.11 171.198L147.574 174.487V174.487ZM147.574 179.304L174.489 191.879C174.489 191.879 176.49 191.98 177.11 191.207L142.119 174.487L147.574 179.304Z" fill="#1386BF" opacity="0.08" />
	<path d="M149.361 115.687C149.361 114.376 148.286 112.686 146.976 111.93L42.9865 51.8201C42.6816 51.6337 42.3324 51.5325 41.9751 51.5271C41.6179 51.5217 41.2657 51.6123 40.9554 51.7895L35.797 53.7332L143.683 279.987L148.924 276.93C149.068 276.815 149.182 276.667 149.258 276.5C149.334 276.332 149.369 276.149 149.361 275.965V115.687Z" fill="#77C3FC" />
	<path d="M142.172 279.634L37.3084 219.087C35.9981 218.331 34.9236 216.641 34.9236 215.33V55.0435C34.9236 53.7332 35.9981 53.2964 37.3084 54.0389L142.172 114.586C143.482 115.346 144.556 117.036 144.556 118.347V278.647C144.556 279.935 143.482 280.389 142.172 279.634Z" fill="#2A6DC2" />
	<path d="M132.519 259.996L44.7774 209.329C43.6811 208.696 42.7856 207.28 42.7856 206.184V72.0913C42.7856 70.9949 43.6811 70.6149 44.7774 71.2483L132.519 121.915C133.615 122.549 134.51 123.964 134.51 125.06V259.153C134.51 260.254 133.637 260.629 132.519 259.996V259.996Z" fill="#245DA6" />
	<path d="M75.9812 100.155L53.2684 87.0424V99.4863L75.9812 112.599V100.155ZM78.6019 101.447V114.014L120.533 138.22V125.658L78.6019 101.447ZM66.8087 113.306L53.7052 105.741V118.054L66.8087 125.624V113.306ZM96.5101 130.577L68.9927 114.686V127.148L96.5101 143.034V130.577V130.577ZM99.1308 131.891V144.458L120.533 156.814V144.248L99.1308 131.891Z" fill="#2A6DC2" />
	<path d="M51.9582 135.622L34.9236 125.785V133.503L51.9582 143.335V135.622ZM53.7053 136.504V144.196L66.8088 151.761V144.069L53.7053 136.504ZM58.0732 149.795L34.9236 136.43V144.191L58.0732 157.557V149.795V149.795Z" fill="#1F9CE8" />
	<path d="M40.676 165.506L34.9236 162.187V169.922L40.9949 173.43L40.676 165.506V165.506ZM43.6593 166.415V174.107L56.7628 181.672V173.976L43.6593 166.415V166.415ZM68.1192 192.041L35.3604 173.128V180.877L68.1192 199.789V192.041Z" fill="#1F9CE8" />
	<path d="M69.779 169.686L31.9534 147.847C30.2063 146.851 28.8086 144.619 28.8086 142.885V119.251C28.8086 117.504 30.2238 116.918 31.9534 117.941L69.779 139.78C71.5261 140.776 72.9238 143.012 72.9238 144.742V168.398C72.9238 170.088 71.5086 170.687 69.779 169.686V169.686Z" fill="#44BEEB" />
	<path d="M51.9582 135.622L34.9236 125.785V133.503L51.9582 143.335V135.622ZM53.7053 136.504V144.196L66.8088 151.761V144.069L53.7053 136.504ZM58.0732 149.795L34.9236 136.43V144.191L58.0732 157.557V149.795V149.795Z" fill="#1F9CE8" />
	<path d="M69.7702 206.284L31.9622 184.445C30.215 183.445 28.8086 181.204 28.8086 179.47V155.845C28.8086 154.097 30.2281 153.508 31.9622 154.534L69.7702 176.373C71.5174 177.374 72.9238 179.614 72.9238 181.348V204.987C72.9238 206.686 71.5043 207.289 69.7702 206.284Z" fill="#44BEEB" />
	<path d="M40.676 165.506L34.9236 162.187V169.922L40.9949 173.43L40.676 165.506V165.506ZM43.6593 166.415V174.107L56.7628 181.672V173.976L43.6593 166.415V166.415ZM68.1192 192.041L35.3604 173.128V180.877L68.1192 199.789V192.041Z" fill="#1F9CE8" />
	<path d="M87.2614 171.899C88.078 171.311 87.8927 169.657 86.8474 168.204C85.8022 166.751 84.2928 166.049 83.4763 166.637C82.6597 167.224 82.845 168.878 83.8903 170.331C84.9355 171.784 86.4449 172.486 87.2614 171.899Z" fill="#2A6DC2" />
	<path d="M125.775 194.063V189.573L91.7054 169.918V174.163C99.0172 178.077 115.938 188.162 125.775 194.063Z" fill="#2A6DC2" />
	<path d="M118.349 175.159V170.791L84.2802 151.136V155.504C91.5919 159.435 108.513 169.258 118.349 175.159Z" fill="#2A6DC2" />
	<path d="M87.2612 182.82C88.0778 182.232 87.8924 180.578 86.8472 179.125C85.8019 177.672 84.2926 176.971 83.476 177.558C82.6594 178.145 82.8448 179.8 83.89 181.253C84.9353 182.706 86.4446 183.407 87.2612 182.82Z" fill="#2A6DC2" />
	<path d="M87.2608 193.737C88.0774 193.15 87.8921 191.496 86.8468 190.043C85.8016 188.59 84.2922 187.888 83.4756 188.476C82.6591 189.063 82.8444 190.717 83.8897 192.17C84.9349 193.623 86.4442 194.325 87.2608 193.737Z" fill="#2A6DC2" />
	<path d="M87.2606 204.659C88.0772 204.071 87.8918 202.417 86.8466 200.964C85.8013 199.511 84.292 198.81 83.4754 199.397C82.6588 199.984 82.8442 201.638 83.8894 203.091C84.9347 204.545 86.444 205.246 87.2606 204.659Z" fill="#2A6DC2" />
	<path d="M125.775 226.844V222.332L91.7054 202.677V206.922C99.0172 210.858 115.938 220.943 125.775 226.844Z" fill="#2A6DC2" />
	<path d="M113.108 193.041L91.7054 180.685V184.943C96.3747 187.459 104.949 192.473 113.108 197.313V193.041Z" fill="#2A6DC2" />
	<path d="M119.66 207.997L91.7054 191.857V196.125C97.6588 199.335 109.981 206.608 119.66 212.399V207.997Z" fill="#2A6DC2" />
	<path d="M24.0956 140.5C25.751 140.653 29.3064 140.09 32.1237 139.19C30.548 141.938 28.0341 144.025 25.0434 145.069C24.8774 145.148 23.9208 140.487 24.0956 140.5Z" fill="#C7D9E8" />
	<defs>
		<linearGradient gradientUnits="userSpaceOnUse" id="paint0_linear" x1="279.304" x2="171.855" y1="170.394" y2="108.362">
			<stop offset="0.31" stop-color="white" stop-opacity="0" />
			<stop offset="1" stop-color="white" stop-opacity="0.6" />
		</linearGradient>
		<linearGradient gradientUnits="userSpaceOnUse" id="paint1_linear" x1="150.514" x2="137.629" y1="237.414" y2="272.82">
			<stop offset="0.22" stop-color="white" stop-opacity="0" />
			<stop offset="1" stop-color="#00004C" stop-opacity="0.6" />
		</linearGradient>
	</defs>
</svg>