<svg fill="none" height="144" viewBox="0 0 168 144" width="168" xmlns="http://www.w3.org/2000/svg">
	<rect fill="transparent" height="144" rx="4" width="168" />
	<path d="M61.8281 127.051H57.75V119.545H56.6953V128H61.8281V127.051ZM63.4102 128H64.418V121.684H63.4102V128ZM63.9141 120.465C64.3008 120.465 64.6172 120.148 64.6172 119.762C64.6172 119.375 64.3008 119.059 63.9141 119.059C63.5273 119.059 63.2109 119.375 63.2109 119.762C63.2109 120.148 63.5273 120.465 63.9141 120.465ZM66.3398 128H67.3477V124.262C67.3477 123.154 67.998 122.48 69.0059 122.48C70.0137 122.48 70.4941 123.02 70.4941 124.156V128H71.502V123.91C71.502 122.41 70.7109 121.572 69.293 121.572C68.3262 121.572 67.7109 121.982 67.3945 122.68H67.3008V121.684H66.3398V128ZM75.8672 122.463C76.8691 122.463 77.5371 123.201 77.5605 124.32H74.0801C74.1562 123.201 74.8594 122.463 75.8672 122.463ZM77.5312 126.365C77.2676 126.922 76.7168 127.221 75.9023 127.221C74.8301 127.221 74.1328 126.43 74.0801 125.182V125.135H78.6211V124.748C78.6211 122.785 77.584 121.572 75.8789 121.572C74.1445 121.572 73.0312 122.861 73.0312 124.848C73.0312 126.846 74.127 128.111 75.8789 128.111C77.2617 128.111 78.2461 127.443 78.5391 126.365H77.5312ZM88.8164 123.617C88.6406 122.492 87.7031 121.572 86.168 121.572C84.3984 121.572 83.2734 122.85 83.2734 124.818C83.2734 126.828 84.4043 128.111 86.1738 128.111C87.6914 128.111 88.6348 127.256 88.8164 126.096H87.7969C87.6094 126.811 87.0176 127.203 86.168 127.203C85.043 127.203 84.3164 126.277 84.3164 124.818C84.3164 123.389 85.0312 122.48 86.168 122.48C87.0762 122.48 87.6328 122.99 87.7969 123.617H88.8164ZM90.3633 128H91.3711V124.262C91.3711 123.195 91.9922 122.48 93.123 122.48C94.0781 122.48 94.582 123.037 94.582 124.156V128H95.5898V123.91C95.5898 122.428 94.7461 121.572 93.4102 121.572C92.4434 121.572 91.7812 121.982 91.4648 122.68H91.3711V119.176H90.3633V128ZM99.375 127.227C98.6426 127.227 98.0977 126.852 98.0977 126.207C98.0977 125.574 98.5195 125.24 99.4805 125.176L101.18 125.064V125.645C101.18 126.547 100.412 127.227 99.375 127.227ZM99.1875 128.111C100.031 128.111 100.723 127.742 101.133 127.068H101.227V128H102.188V123.676C102.188 122.363 101.326 121.572 99.7852 121.572C98.4375 121.572 97.4414 122.24 97.3066 123.254H98.3262C98.4668 122.756 98.9941 122.469 99.75 122.469C100.693 122.469 101.18 122.896 101.18 123.676V124.25L99.3574 124.361C97.8867 124.449 97.0547 125.1 97.0547 126.23C97.0547 127.385 97.9629 128.111 99.1875 128.111ZM104.051 128H105.059V124.086C105.059 123.195 105.756 122.551 106.717 122.551C106.916 122.551 107.279 122.586 107.361 122.609V121.602C107.232 121.584 107.021 121.572 106.857 121.572C106.02 121.572 105.293 122.006 105.105 122.621H105.012V121.684H104.051V128ZM109.395 120.049V121.684H108.375V122.527H109.395V126.359C109.395 127.566 109.916 128.047 111.217 128.047C111.416 128.047 111.609 128.023 111.809 127.988V127.139C111.621 127.156 111.521 127.162 111.34 127.162C110.684 127.162 110.402 126.846 110.402 126.102V122.527H111.809V121.684H110.402V120.049H109.395Z" fill="#6B6C7E" />
	<path d="M57.1758 96.9531H57.8555C57.8555 96.2852 58.3047 95.8438 58.9805 95.8438C59.6445 95.8438 60.0469 96.2891 60.0469 96.8867C60.0469 97.3828 59.8359 97.6758 59.1172 98.4531L57.2109 100.516V101H60.8594V100.367H58.1875V100.305L59.4688 98.9805C60.4844 97.9297 60.7656 97.4609 60.7656 96.8125C60.7656 95.8984 60.0117 95.2305 59.0273 95.2305C57.9492 95.2305 57.1758 95.9492 57.1758 96.9531Z" fill="#A7A9BC" />
	<path d="M88.6289 101H89.3164V99.832H90.1172V99.2031H89.3164V95.3633H88.2969C87.5078 96.5391 86.6445 97.9141 85.8828 99.1914V99.832H88.6289V101ZM86.6016 99.1602C87.2148 98.125 87.9531 96.9609 88.5859 96.0156H88.6328V99.207H86.6016V99.1602Z" fill="#A7A9BC" />
	<path d="M117.07 101.129C118.227 101.129 119.047 100.32 119.047 99.1875C119.047 98.0938 118.27 97.3008 117.195 97.3008C116.523 97.3008 115.973 97.6211 115.695 98.168H115.633C115.656 96.6367 116.203 95.8555 117.141 95.8555C117.711 95.8555 118.125 96.1484 118.242 96.6719H118.965C118.82 95.7969 118.145 95.2305 117.117 95.2305C115.785 95.2305 114.949 96.3398 114.949 98.2773C114.949 100.176 115.844 101.129 117.07 101.129ZM117.062 100.512C116.34 100.512 115.789 99.9414 115.789 99.1875C115.789 98.4414 116.324 97.9102 117.07 97.9102C117.816 97.9102 118.336 98.4414 118.336 99.2109C118.336 99.9492 117.785 100.512 117.062 100.512Z" fill="#A7A9BC" />
	<path d="M146 101.133C147.195 101.133 148.031 100.457 148.031 99.4922C148.031 98.7578 147.566 98.1875 146.859 98.0547V97.9922C147.441 97.832 147.801 97.3516 147.801 96.7344C147.801 95.8555 147.055 95.2305 146 95.2305C144.945 95.2305 144.199 95.8555 144.199 96.7344C144.199 97.3477 144.566 97.8359 145.141 97.9922V98.0547C144.434 98.1875 143.969 98.7578 143.969 99.4922C143.969 100.457 144.805 101.133 146 101.133ZM146 100.531C145.219 100.531 144.68 100.086 144.68 99.4414C144.68 98.7969 145.219 98.3516 146 98.3516C146.781 98.3516 147.32 98.7969 147.32 99.4414C147.32 100.086 146.781 100.531 146 100.531ZM146 97.7578C145.336 97.7578 144.891 97.375 144.891 96.8008C144.891 96.2188 145.332 95.832 146 95.832C146.668 95.832 147.109 96.2188 147.109 96.8008C147.109 97.375 146.664 97.7578 146 97.7578Z" fill="#A7A9BC" />
	<path d="M24.4844 90.1328C25.75 90.1328 26.4766 89.0625 26.4766 87.1914C26.4766 85.3242 25.7383 84.2305 24.4844 84.2305C23.2227 84.2305 22.4844 85.3203 22.4844 87.1797C22.4844 89.0547 23.2148 90.1328 24.4844 90.1328ZM24.4844 89.5195C23.6523 89.5195 23.1914 88.6875 23.1914 87.1797C23.1914 85.6914 23.6602 84.8477 24.4844 84.8477C25.3086 84.8477 25.7695 85.6836 25.7695 87.1797C25.7695 88.6914 25.3164 89.5195 24.4844 89.5195Z" fill="#A7A9BC" />
	<path d="M20.2031 68H20.9062V62.3633H20.207L18.707 63.4414V64.1836L20.1406 63.1445H20.2031V68ZM24.4844 68.1328C25.75 68.1328 26.4766 67.0625 26.4766 65.1914C26.4766 63.3242 25.7383 62.2305 24.4844 62.2305C23.2227 62.2305 22.4844 63.3203 22.4844 65.1797C22.4844 67.0547 23.2148 68.1328 24.4844 68.1328ZM24.4844 67.5195C23.6523 67.5195 23.1914 66.6875 23.1914 65.1797C23.1914 63.6914 23.6602 62.8477 24.4844 62.8477C25.3086 62.8477 25.7695 63.6836 25.7695 65.1797C25.7695 66.6914 25.3164 67.5195 24.4844 67.5195Z" fill="#A7A9BC" />
	<path d="M17.7188 40.9531H18.3984C18.3984 40.2852 18.8477 39.8438 19.5234 39.8438C20.1875 39.8438 20.5898 40.2891 20.5898 40.8867C20.5898 41.3828 20.3789 41.6758 19.6602 42.4531L17.7539 44.5156V45H21.4023V44.3672H18.7305V44.3047L20.0117 42.9805C21.0273 41.9297 21.3086 41.4609 21.3086 40.8125C21.3086 39.8984 20.5547 39.2305 19.5703 39.2305C18.4922 39.2305 17.7188 39.9492 17.7188 40.9531ZM24.4844 45.1328C25.75 45.1328 26.4766 44.0625 26.4766 42.1914C26.4766 40.3242 25.7383 39.2305 24.4844 39.2305C23.2227 39.2305 22.4844 40.3203 22.4844 42.1797C22.4844 44.0547 23.2148 45.1328 24.4844 45.1328ZM24.4844 44.5195C23.6523 44.5195 23.1914 43.6875 23.1914 42.1797C23.1914 40.6914 23.6602 39.8477 24.4844 39.8477C25.3086 39.8477 25.7695 40.6836 25.7695 42.1797C25.7695 43.6914 25.3164 44.5195 24.4844 44.5195Z" fill="#A7A9BC" />
	<path d="M18.7578 19.4023H19.457C20.25 19.4023 20.7383 19.8086 20.7383 20.4609C20.7383 21.0938 20.2109 21.5195 19.4688 21.5195C18.7422 21.5195 18.2344 21.1406 18.1719 20.5469H17.4922C17.543 21.5039 18.332 22.1328 19.4766 22.1328C20.5977 22.1328 21.4609 21.4258 21.4609 20.4805C21.4609 19.6953 20.9766 19.1992 20.2461 19.082V19.0195C20.8242 18.8516 21.2461 18.4023 21.25 17.7227C21.2539 16.9336 20.6133 16.2305 19.5 16.2305C18.3594 16.2305 17.6602 16.9062 17.5898 17.8242H18.2734C18.332 17.1914 18.7734 16.8438 19.4531 16.8438C20.1328 16.8438 20.5352 17.2734 20.5352 17.8008C20.5352 18.3867 20.0742 18.8008 19.4258 18.8008H18.7578V19.4023ZM24.4844 22.1328C25.75 22.1328 26.4766 21.0625 26.4766 19.1914C26.4766 17.3242 25.7383 16.2305 24.4844 16.2305C23.2227 16.2305 22.4844 17.3203 22.4844 19.1797C22.4844 21.0547 23.2148 22.1328 24.4844 22.1328ZM24.4844 21.5195C23.6523 21.5195 23.1914 20.6875 23.1914 19.1797C23.1914 17.6914 23.6602 16.8477 24.4844 16.8477C25.3086 16.8477 25.7695 17.6836 25.7695 19.1797C25.7695 20.6914 25.3164 21.5195 24.4844 21.5195Z" fill="#A7A9BC" />
	<rect height="112.647" stroke="#CDCED9" stroke-dasharray="2 2" stroke-width="0.499999" transform="matrix(-9.44611e-08 1 1 1.04487e-07 33 88.0001)" width="0.499999" x="0.25" y="0.25" />
	<rect height="112.647" stroke="#CDCED9" stroke-dasharray="2 2" stroke-width="0.499999" transform="matrix(-9.44611e-08 1 1 1.04487e-07 33 65.0001)" width="0.499999" x="0.25" y="0.25" />
	<rect height="112.647" stroke="#CDCED9" stroke-dasharray="2 2" stroke-width="0.499999" transform="matrix(-9.44611e-08 1 1 1.04487e-07 33 42.0001)" width="0.499999" x="0.25" y="0.25" />
	<rect height="112.647" stroke="#CDCED9" stroke-dasharray="2 2" stroke-width="0.499999" transform="matrix(-9.44611e-08 1 1 1.04487e-07 33 19.0001)" width="0.499999" x="0.25" y="0.25" />
	<path d="M34 76.5C33.4477 76.5 33 76.9477 33 77.5C33 78.0523 33.4477 78.5 34 78.5V76.5ZM145.5 65.5C146.052 65.5 146.5 65.0523 146.5 64.5C146.5 63.9477 146.052 63.5 145.5 63.5V65.5ZM34 78.5C37.4797 78.5 40.1997 76.2434 42.4576 73.2597C44.7234 70.2655 46.7036 66.2979 48.643 62.4501C50.6074 58.5528 52.5326 54.7723 54.7228 51.958C56.9163 49.1394 59.2131 47.5001 61.875 47.5001V45.5001C58.2869 45.5001 55.4743 47.7358 53.1444 50.7296C50.8112 53.7278 48.7989 57.6973 46.857 61.5499C44.8902 65.4522 42.9954 69.2346 40.8627 72.0528C38.7221 74.8816 36.5203 76.5 34 76.5V78.5ZM61.875 47.5001C63.6985 47.5001 65.4851 48.3035 67.4124 49.6613C69.3513 51.0273 71.2855 52.8423 73.4661 54.7523C77.7481 58.5029 82.8434 62.5001 89.75 62.5001V60.5001C83.6566 60.5001 79.0644 56.9972 74.7839 53.2478C72.6833 51.4079 70.6174 49.4728 68.5642 48.0263C66.4993 46.5716 64.3015 45.5001 61.875 45.5001V47.5001ZM89.75 62.5001C93.5026 62.5001 96.3496 59.9973 98.6534 56.6798C100.966 53.3498 102.911 48.9401 104.791 44.6515C106.694 40.3105 108.531 36.0931 110.653 32.9502C112.789 29.7869 115.02 28 117.625 28V26C113.98 26 111.227 28.5256 108.995 31.8311C106.75 35.1569 104.837 39.5646 102.959 43.8485C101.058 48.1849 99.1904 52.4003 97.0107 55.539C94.8223 58.6903 92.4974 60.5001 89.75 60.5001V62.5001ZM117.625 28C120.204 28 122.529 29.9366 124.8 33.407C127.042 36.8332 129.024 41.4322 131.017 46.1398C132.989 50.7988 134.975 55.5705 137.2 59.1669C139.385 62.6964 142.043 65.5 145.5 65.5V63.5C143.207 63.5 141.068 61.6161 138.901 58.1144C136.775 54.6795 134.855 50.0762 132.858 45.3602C130.883 40.6928 128.833 35.9168 126.473 32.3118C124.143 28.7509 121.296 26 117.625 26V28Z" fill="#4B9BFF" />
</svg>