<svg fill="none" height="97" width="102" xmlns="http://www.w3.org/2000/svg">
	<path d="M101.238 96.5H24.5V.75h61.094l15.644 14.677v81.074z" fill="#fff" stroke="#A7A9BC" />
	<path d="M85.293.249v15.46h16.445v-.499L85.792.25h-.499z" fill="#CDCED9" />
	<path clip-rule="evenodd" d="M101.717 15.732h-.996L85.294 1.248V.249h.497l15.926 14.984v.5z" fill="#6B6C7E" fill-rule="evenodd" opacity=".3" />
	<path d="M0 30h72v38H0z" fill="#2E5AAC" />
	<path d="M19.723 56c.987 0 1.723-.77 1.723-1.77 0-1.018-.736-1.788-1.723-1.788-.987 0-1.723.77-1.723 1.789 0 1 .736 1.769 1.723 1.769zM29.38 56c1.645 0 3.04-.635 4.085-1.846l-1.51-1.77c-.62.654-1.433 1.174-2.46 1.174-1.858 0-3.058-1.5-3.058-4.077 0-2.52 1.375-4.039 3.098-4.039.91 0 1.587.423 2.226 1l1.51-1.807C32.42 43.769 31.103 43 29.477 43c-3.195 0-5.963 2.423-5.963 6.577 0 4.212 2.671 6.423 5.866 6.423zM38.686 56c3.02 0 4.763-1.808 4.763-3.885 0-1.769-.968-2.788-2.498-3.404l-1.626-.653c-1.084-.443-1.917-.712-1.917-1.481 0-.712.62-1.135 1.607-1.135 1.007 0 1.781.366 2.614 1l1.452-1.788C41.997 43.577 40.467 43 39.015 43c-2.633 0-4.491 1.654-4.491 3.73 0 1.828 1.239 2.905 2.536 3.424l1.646.692c1.103.462 1.82.712 1.82 1.5 0 .75-.581 1.212-1.762 1.212-1.046 0-2.207-.539-3.117-1.308l-1.627 1.942C35.298 55.385 37.04 56 38.686 56zM47.779 55.77h3.426L55 43.23h-2.904l-1.49 5.847c-.369 1.365-.64 2.635-1.007 4.02h-.078c-.387-1.386-.639-2.655-1.026-4.02l-1.51-5.846h-3.02l3.814 12.538z" fill="#fff" />
</svg>