<svg fill="none" height="19" viewBox="0 0 16 19" width="16" xmlns="http://www.w3.org/2000/svg">
	<path clip-rule="evenodd" d="M0 2.99732L3.23385 2.48136C4.60963 2.26186 5.90423 1.68687 6.98953 0.813324L8 0L9.01047 0.813324C10.0958 1.68687 11.3904 2.26186 12.7662 2.48136L16 2.99732V13.0915C16 14.727 15.0043 16.1978 13.4858 16.8053L8 19L2.51422 16.8053C0.995702 16.1978 0 14.727 0 13.0915V2.99732ZM1.60001 4.14297L4.65655 3.74231C4.94273 3.7048 5.21741 3.60579 5.46171 3.45208L8.00001 1.855L10.5383 3.45208C10.7826 3.60579 11.0573 3.7048 11.3435 3.74231L14.4 4.14297V12.1756C14.4 13.9294 13.2576 15.4786 11.5821 15.9969L8.00001 17.105L4.41791 15.9969C2.74245 15.4786 1.60001 13.9294 1.60001 12.1756V4.14297ZM9.07095 8.21963L8.47054 8.57951L8.60318 9.26683L9.4552 13.6818H6.54473L7.39675 9.26683L7.52939 8.57951L6.92899 8.21962C6.50367 7.96468 6.3333 7.62614 6.3333 7.34091C6.3333 6.88766 6.87191 6.18182 7.99997 6.18182C9.12803 6.18182 9.66664 6.88766 9.66664 7.34091C9.66664 7.62614 9.49627 7.96468 9.07095 8.21963ZM10.6666 14.6818L10.4737 13.6818L9.58507 9.07734C10.2412 8.68403 10.6666 8.05269 10.6666 7.34091C10.6666 6.14848 9.47273 5.18182 7.99997 5.18182C6.52721 5.18182 5.3333 6.14848 5.3333 7.34091C5.3333 8.05269 5.7587 8.68402 6.41487 9.07734L5.52628 13.6818L5.3333 14.6818H6.35175H9.64818H10.6666Z" fill="currentColor" fill-rule="evenodd" />
</svg>