<svg fill="none" height="16" viewBox="0 0 17 16" width="17" xmlns="http://www.w3.org/2000/svg">
	<path clip-rule="evenodd" d="M0.915257 10.1554C0.520347 9.76931 0.517294 9.14024 0.908438 8.75034L9.04371 0.640869L15.5552 0.657521C15.8301 0.658225 16.0536 0.876688 16.057 1.14812L16.1371 7.57576L8.0018 15.6852C7.61065 16.0751 6.97343 16.0782 6.57852 15.6921L0.915257 10.1554ZM2.5104 9.43734L9.76919 2.15488L14.234 2.15488C14.5119 2.15488 14.7372 2.37726 14.7372 2.65159V6.759L7.32624 14.1456L2.5104 9.43734ZM12.8637 6.09625C13.7264 5.87792 14.2488 5.00156 14.0304 4.13885C13.8121 3.27613 12.9357 2.75376 12.073 2.97209C11.2103 3.19042 10.6879 4.06678 10.9063 4.92949C11.1246 5.79221 12.001 6.31458 12.8637 6.09625Z" fill="currentColor" fill-rule="evenodd" />
</svg>