<?xml version="1.0"?>

<svg height="16px" version="1.1" viewBox="0 0 16 16" width="16px" xmlns="http://www.w3.org/2000/svg" xmlns:xlink="http://www.w3.org/1999/xlink">

	<!-- Generator: Sketch 47 (45396) - http://www.bohemiancoding.com/sketch -->

	<title>Icon Copy 13</title>
	<desc>Created with Sketch.</desc>
	<defs>
		<path d="M12.75,4.5 L11.25,4.5 C10.836,4.5 10.5,4.836 10.5,5.25 L10.5,6.1965 C9.951,6.33825 9.4335,6.55425 8.9565,6.8355 L8.2875,6.1665 C8.14125,6.0195 7.94925,5.94675 7.75725,5.94675 C7.56525,5.94675 7.374,6.0195 7.227,6.1665 L6.1665,7.227 C5.874,7.5195 5.874,7.995 6.1665,8.2875 L6.8355,8.9565 C6.55425,9.4335 6.33825,9.951 6.1965,10.5 L5.25,10.5 C4.836,10.5 4.5,10.836 4.5,11.25 L4.5,12.75 C4.5,13.16475 4.836,13.5 5.25,13.5 L6.1965,13.5 C6.33825,14.049 6.55425,14.56725 6.8355,15.0435 L6.1665,15.7125 C5.874,16.005 5.874,16.4805 6.1665,16.773 L7.227,17.8335 C7.374,17.9805 7.56525,18.05325 7.75725,18.05325 C7.94925,18.05325 8.14125,17.9805 8.2875,17.8335 L8.9565,17.1645 C9.4335,17.44575 9.951,17.66175 10.5,17.80275 L10.5,18.75 C10.5,19.16475 10.836,19.5 11.25,19.5 L12.75,19.5 C13.16475,19.5 13.5,19.16475 13.5,18.75 L13.5,17.80275 C14.049,17.66175 14.56725,17.44575 15.0435,17.1645 L15.7125,17.8335 C15.85875,17.9805 16.05075,18.05325 16.24275,18.05325 C16.43475,18.05325 16.62675,17.9805 16.773,17.8335 L17.8335,16.773 C18.12675,16.4805 18.12675,16.005 17.8335,15.7125 L17.1645,15.0435 C17.44575,14.56725 17.66175,14.049 17.80275,13.5 L18.75,13.5 C19.16475,13.5 19.5,13.16475 19.5,12.75 L19.5,11.25 C19.5,10.836 19.16475,10.5 18.75,10.5 L17.80275,10.5 C17.66175,9.951 17.44575,9.4335 17.1645,8.9565 L17.8335,8.2875 C18.12675,7.995 18.12675,7.5195 17.8335,7.227 L16.773,6.1665 C16.62675,6.0195 16.43475,5.94675 16.24275,5.94675 C16.05075,5.94675 15.85875,6.0195 15.7125,6.1665 L15.0435,6.8355 C14.56725,6.55425 14.049,6.33825 13.5,6.1965 L13.5,5.25 C13.5,4.836 13.16475,4.5 12.75,4.5 M12.75,5.25 L12.75,6.1965 L12.75,6.77775 L13.3125,6.9225 C13.788,7.0455 14.24175,7.23375 14.66175,7.48125 L15.16275,7.77675 L15.57375,7.36575 L16.24275,6.69675 L17.30325,7.75725 L16.63425,8.42625 L16.22325,8.83725 L16.51875,9.33825 C16.76625,9.75825 16.9545,10.212 17.0775,10.6875 L17.22225,11.25 L17.80275,11.25 L18.75,11.25 L18.75,12.75 L17.80275,12.75 L17.22225,12.75 L17.0775,13.3125 C16.9545,13.788 16.76625,14.24175 16.51875,14.66175 L16.22325,15.16275 L16.63425,15.57375 L17.30325,16.24275 L16.24275,17.30325 L15.57375,16.63425 L15.16275,16.22325 L14.66175,16.51875 C14.24175,16.76625 13.788,16.9545 13.3125,17.0775 L12.75,17.22225 L12.75,17.80275 L12.75,18.75 L11.25,18.75 L11.25,17.80275 L11.25,17.22225 L10.6875,17.0775 C10.212,16.9545 9.75825,16.76625 9.33825,16.51875 L8.83725,16.22325 L8.42625,16.63425 L7.75725,17.30325 L6.69675,16.24275 L7.36575,15.57375 L7.77675,15.16275 L7.48125,14.66175 C7.23375,14.24175 7.0455,13.788 6.9225,13.3125 L6.77775,12.75 L6.1965,12.75 L5.25,12.75 L5.25,11.25 L6.1965,11.25 L6.77775,11.25 L6.9225,10.6875 C7.0455,10.212 7.23375,9.75825 7.48125,9.33825 L7.77675,8.83725 L7.36575,8.42625 L6.69675,7.75725 L7.75725,6.69675 L8.42625,7.36575 L8.838,7.77675 L9.33825,7.48125 C9.75825,7.23375 10.212,7.0455 10.6875,6.9225 L11.25,6.77775 L11.25,6.1965 L11.25,5.25 L12.75,5.25 M12,9.75 C13.2425625,9.75 14.25,10.7574375 14.25,12 C14.25,13.2425625 13.2425625,14.25 12,14.25 C10.7574375,14.25 9.75,13.2425625 9.75,12 C9.75,10.7574375 10.7574375,9.75 12,9.75 Z M12,10.5 C11.173,10.5 10.5,11.173 10.5,12 C10.5,12.827 11.173,13.5 12,13.5 C12.827,13.5 13.5,12.827 13.5,12 C13.5,11.173 12.827,10.5 12,10.5 Z" id="path-1"></path>
	</defs>
	<g fill="none" fill-rule="evenodd" id="Page-1" stroke="none" stroke-width="1">
		<g id="FARO-Nav-Icons" transform="translate(-46.000000, -311.000000)">
			<g id="Icon24/Settings" transform="translate(42.000000, 307.000000)">
				<mask fill="white" id="mask-2">
					<use xlink:href="#path-1"></use>
				</mask>
				<use fill="#000000" fill-rule="evenodd" id="Combined-Shape" xlink:href="#path-1"></use>
				<g fill="#A7A9BC" fill-rule="evenodd" id="Color/Main-Disabled-Light52%" mask="url(#mask-2)">
					<rect height="24" id="Mask" width="24" x="0" y="0"></rect>
				</g>
			</g>
		</g>
	</g>
</svg>