<?xml version="1.0"?>

<svg height="16px" version="1.1" viewBox="0 0 512 512" width="12px" xmlns="http://www.w3.org/2000/svg" xmlns:xlink="http://www.w3.org/1999/xlink">
	<path d="M374.05,48.7v1.1C340.85,16.6,301.517,0,256.05,0c-46.2,0-85.533,16.6-118,49.8c-33.2,32.467-49.8,71.8-49.8,118
	c-0.7,36.8,15.183,84.783,47.65,143.95c16.6,31.767,49.067,86.25,97.4,163.45l23.8,36.8l22.75-37.9
	c46.2-75.767,78.317-129.517,96.35-161.25v-1.1c32.467-59.167,48.333-107.15,47.6-143.95C423.8,120.9,407.217,81.2,374.05,48.7
	 M336.15,87.7c22.367,22.367,33.55,49.067,33.55,80.1c-0.733,29.567-14.45,68.9-41.15,118h1.1c-15.167,25.967-39.7,67.1-73.6,123.4
	c-34.633-56.3-58.817-97.083-72.55-122.35v-1.05c-26.7-49.1-40.4-88.433-41.1-118c0-31.767,11.183-58.467,33.55-80.1
	c21.633-22.367,48.333-33.55,80.1-33.55C287.083,54.15,313.783,65.333,336.15,87.7 M222.5,137.5c-9.4,9.367-14.1,20.183-14.1,32.45
	c0,13.7,4.7,24.883,14.1,33.55c8.667,9.4,19.483,14.1,32.45,14.1c12.267,0,22.733-4.7,31.4-14.1
	c9.367-8.667,14.05-19.85,14.05-33.55c0-12.267-4.683-23.083-14.05-32.45c-8.667-8.667-19.133-13-31.4-13
	C241.983,124.5,231.167,128.833,222.5,137.5z" />
</svg>