<svg fill="none" height="102" width="102" xmlns="http://www.w3.org/2000/svg">
	<g clip-path="url(#clip0)">
		<path d="M0 0h101.895v101.895H0z" fill="#fff" />
		<path clip-rule="evenodd" d="M27.447 14.6C39.285-2.002 72.201.308 89.957 16.332c33.493 30.173-9.96 104.521-50.672 74.782-1.01-.722-2.021-1.444-3.032-2.31-12.848-11.116-23.243-26.852-12.27-66.986.72-2.743 2.02-5.053 3.464-7.218z" fill="#1AA0E8" fill-rule="evenodd" />
		<path clip-rule="evenodd" d="M27.447 14.6C61.66.596 104.538 34.233 71.189 71.624c-7.795 8.662-19.922 16.314-31.904 19.49-8.662 2.31-17.324 2.165-24.11-1.733C-1.137 80.287-5.18 47.949 7.38 30.625 13.155 22.83 20.084 17.632 27.447 14.6z" fill="#0B63CE" fill-rule="evenodd" />
		<path d="M71.19 71.624C104.538 34.234 61.662.596 27.447 14.6c-1.444 2.165-2.743 4.475-3.465 7.218-10.972 40.134-.577 55.87 12.271 66.986 1.01.866 2.021 1.588 3.032 2.31 11.982-3.176 24.109-10.828 31.905-19.49z" fill="#134194" />
	</g>
	<defs>
		<clipPath id="clip0">
			<path d="M0 0h101.895v101.895H0z" />
		</clipPath>
	</defs>
</svg>