<?xml version="1.0"?>

<svg height="16" viewBox="0 0 18 16" width="18" xmlns="http://www.w3.org/2000/svg">
	<path d="M5.99278 1.44067C8.4323 -0.320125 13.1884 0.216841 15.8908 2.47197C21.4583 7.10982 14.5889 18.3501 7.80638 14.6467C9.80702 14.0644 11.7713 12.8784 13.0746 11.5394L13.0762 11.5377C14.5651 9.99408 15.2437 8.4454 15.2694 7.00737C15.2951 5.56799 14.6652 4.29801 13.6563 3.32153C11.8638 1.58675 8.84828 0.74694 5.99278 1.44067Z" />
	<path d="M7.22821 14.2937L7.22789 14.2938C7.16307 14.251 7.09827 14.2082 7.03348 14.1642C6.92548 14.0909 6.81752 14.0142 6.70936 13.9285C4.65015 12.281 2.95975 9.99167 4.30199 4.48438C4.39143 4.11731 4.49437 3.73593 4.61158 3.3395L4.61168 3.33921C4.71964 2.9598 4.90319 2.63279 5.11278 2.32764C5.14271 2.28404 5.17319 2.2409 5.20406 2.19811C5.9352 1.92139 6.68948 1.76235 7.43857 1.70743C12.6822 1.32302 17.6709 6.04078 12.6823 11.2128C11.3496 12.5821 9.2765 13.7916 7.22821 14.2937Z" />
	<path d="M1.77341 4.73135C2.53536 3.78019 3.41494 3.07373 4.35534 2.5805C4.25472 2.77499 4.16689 2.9846 4.10181 3.21265C3.15029 6.43214 3.10625 8.73465 3.62436 10.4831C4.14627 12.2445 5.22091 13.3832 6.36413 14.2978L6.36597 14.2993C6.42583 14.3467 6.4855 14.3916 6.54446 14.4342C5.29826 14.6378 4.08741 14.5412 3.10618 14.0199C0.317241 12.5821 -0.373824 7.47 1.77341 4.73135Z" />
</svg>