<?xml version="1.0"?>

<svg height="16px" version="1.1" viewBox="0 0 512 512" width="16px" xmlns="http://www.w3.org/2000/svg" xmlns:xlink="http://www.w3.org/1999/xlink">
	<g transform="matrix( 1, 0, 0, 1, 0,0) ">
		<g>
			<g id="Layer0_0_FILL">
				<path d="M491.681,99.783c-10.967-16.867-26-32-45.1-45.4c-18.267-12.8-39.183-23.317-62.75-31.55
				c-23.2-8.133-47.4-13.517-72.6-16.15c-25.6-2.7-50.45-2.383-74.55,0.95c-25.233,3.5-48.133,10.1-68.7,19.8
				c-21.933,10.333-40.267,23.767-55,40.3c-27.367,11.067-50.167,25.85-68.4,44.35c-19.3,19.567-32.3,42.183-39,67.85
				c-7.233,27.6-6.833,57.6,1.2,90c8.7,35.067,26.15,71.983,52.35,110.75c21.8,32.267,47.917,59.183,78.35,80.75
				c29.533,20.933,60.117,34.733,91.75,41.4c32.233,6.833,62.117,5.517,89.65-3.95c29.233-10.067,53.233-28.533,72-55.4
				c16.967-6.3,32.55-15.4,46.75-27.3c15.033-12.633,27.583-27.65,37.65-45.05c22.9-39.733,30.633-86.833,23.2-141.3
				c-0.433-2.133-0.733-3.75-0.9-4.85c10.633-23.333,15.2-45.933,13.7-67.8C509.915,136.849,503.381,117.716,491.681,99.783
				 M365.831,31.383c20.267,6.633,38.65,15.067,55.15,25.3c17.1,10.667,31.3,22.733,42.6,36.2c25.067,29.867,33.7,63.25,25.9,100.15
				c-8.067-22.167-20.05-41.9-35.95-59.2c-15.933-17.333-34.567-30.883-55.9-40.65c-12.233-20.967-27.917-36.4-47.05-46.3
				c-16.833-8.7-36.883-13.367-60.15-14c-18.9-0.5-41.6,1.75-68.1,6.75c-11.233,2.1-34.85,7.383-70.85,15.85
				c-7.6,1.8-15.05,3.9-22.35,6.3c28.433-24.333,65.333-38.967,110.7-43.9c20.8-2.267,42.067-2.217,63.8,0.15
				C325.098,20.366,345.831,24.816,365.831,31.383 M454.981,162.433c12.233,19.3,20.067,40.283,23.5,62.95
				c-8.933,18.767-20.083,35.983-33.45,51.65c-4,4.767-8.217,9.65-12.65,14.65c0.233-5.667,0.35-9.983,0.35-12.95
				c0-70.267-8.183-125.05-24.55-164.35C427.148,127.083,442.748,143.099,454.981,162.433 M431.181,314.733
				c9.9-10.267,20.1-21.683,30.6-34.25c7.167-8.567,13.733-17.4,19.7-26.5c2.033,39.867-4.683,75-20.15,105.4
				c-13.767,27.067-33.067,48-57.9,62.8c8.133-16.8,14.533-34.25,19.2-52.35S430.148,333.366,431.181,314.733 M379.031,98.333h0.05
				c11.174,18.302,19.657,41.719,25.45,70.25c6.167,30.4,9.367,66.933,9.6,109.6c0.1,10.1-0.267,21.567-1.1,34.4
				c-28.733,29.5-57.167,52.067-85.3,67.7c-26.1,14.5-51.45,22.767-76.05,24.8c-37.167-29.333-64.067-59.4-80.7-90.2
				c-20.5-37.967-26.117-78.033-16.85-120.2c5.567-25.267,16.433-46.817,32.6-64.65c15-16.533,33.6-28.917,55.8-37.15
				c21.2-7.833,43.817-11.267,67.85-10.3C334.315,83.549,357.198,88.799,379.031,98.333 M270.531,45.133
				c20.167-0.567,37.767,1.75,52.8,6.95c17,5.9,31.45,15.7,43.35,29.4c-22.5-6.5-45.283-9.15-68.35-7.95
				c-23.4,1.233-45.067,6.35-65,15.35c-20.967,9.433-38.467,22.5-52.5,39.2c-15.1,17.933-25.367,39.167-30.8,63.7
				c-9.6,43.367-4.567,83.867,15.1,121.5c15.267,29.233,41.65,59.983,79.15,92.25c-25.233,0.8-48.733-5.083-70.5-17.65
				c-20.367-11.767-38.1-28.7-53.2-50.8c-14.567-21.3-25.617-45.783-33.15-73.45c-7.533-27.633-10.95-56.117-10.25-85.45
				c-0.1-18.3,2.917-36.067,9.05-53.3c6.167-17.233,15.083-32.867,26.75-46.9c11.567-4.7,23.467-8.483,35.7-11.35
				c32.567-7.567,53.45-12.25,62.65-14.05C234.365,48.049,254.098,45.566,270.531,45.133 M100.581,83.483
				c-8.937,13.747-15.754,28.497-20.45,44.25c-4.7,15.733-7.067,31.833-7.1,48.3c-0.767,31.667,3.017,62.367,11.35,92.1
				c8.333,29.8,20.5,56,36.5,78.6c16.633,23.533,36.117,41.267,58.45,53.2c23.9,12.767,49.667,18.083,77.3,15.95
				c6.333,5.233,12.217,10,17.65,14.3c13.567,10.1,28.617,16.867,45.15,20.3c16.5,3.4,32.983,3.167,49.45-0.7
				c-18.2,23.133-40.933,38.35-68.2,45.65c-25.633,6.833-53.333,6.25-83.1-1.75c-29.067-7.833-57.283-21.95-84.65-42.35
				c-28-20.867-52.3-46.233-72.9-76.1c-23.533-34.167-39.5-67.183-47.9-99.05c-7.767-29.5-8.85-57.217-3.25-83.15
				c5.233-24.233,16.067-45.9,32.5-65C56.999,109.851,76.732,95.001,100.581,83.483 M380.031,433.433h-0.05
				c-16.924,6.931-34.49,9.564-52.7,7.9c-18.233-1.7-35.05-7.517-50.45-17.45c-1.567-1.133-5.617-4.067-12.15-8.8
				c22.567-2.933,45.733-10.767,69.5-23.5c25.3-13.567,50.9-32.517,76.8-56.85c-1.633,17.367-5.05,34.367-10.25,51
				C395.498,402.399,388.598,418.299,380.031,433.433z" />
		</g>
				</g>
			</g>
</svg>