<?xml version="1.0"?>

<svg height="16px" version="1.1" viewBox="0 0 512 512" width="16px" xmlns="http://www.w3.org/2000/svg" xmlns:xlink="http://www.w3.org/1999/xlink">
	<path d="M480,224h-1.3c-6.8-49.5-28.133-91.75-64-126.75c-34.967-35.833-77.2-57.167-126.7-64V32c0-8.533-2.983-16.217-8.95-23.05
	C273.083,2.983,265.4,0,256,0c-8.533,0-15.783,2.983-21.75,8.95C227.417,15.783,224,23.467,224,32v1.25
	c-48.633,6.833-90.45,28.167-125.45,64c-35.833,35-57.167,77.25-64,126.75H32c-8.533,0-15.783,2.983-21.75,8.95
	C3.417,239.783,0,247.467,0,256s3.417,15.783,10.25,21.75C16.217,284.583,23.467,288,32,288h2.55
	c6.833,48.633,28.167,90.45,64,125.45c35,35.833,76.817,57.167,125.45,64V480c0,8.533,3.417,15.783,10.25,21.75
	C240.217,508.583,247.467,512,256,512s16.217-3.417,23.05-10.25c5.967-5.967,8.95-13.217,8.95-21.75v-2.55
	c49.5-6.833,91.733-28.167,126.7-64c35.867-35,57.2-76.817,64-125.45h1.3c8.533,0,16.217-3.417,23.05-10.25
	c5.967-5.967,8.95-13.217,8.95-21.75s-2.983-16.217-8.95-23.05C497.083,226.983,489.4,224,480,224 M325.1,93.45
	c20.5,8.533,39.283,20.9,56.35,37.1c16.2,17.067,28.567,35.833,37.1,56.3c5.133,11.1,8.983,23.483,11.55,37.15h-33.3
	c-0.867-8.533-3.433-16.65-7.7-24.35c-7.667-17.9-17.9-33.25-30.7-46.05s-28.167-23.05-46.1-30.75c-7.667-3.4-15.333-5.95-23-7.65
	V81.9C302.933,84.467,314.867,88.317,325.1,93.45 M358.4,357.1c12.8-12.8,23.033-28.15,30.7-46.05l7.7-23.05h33.3
	c-2.567,13.633-6.417,25.583-11.55,35.85c-8.533,20.467-20.9,39.233-37.1,56.3c-17.067,16.2-35.85,28.567-56.35,37.1
	c-11.067,5.133-23.433,8.983-37.1,11.55v-33.3c8.533-0.833,16.633-3.383,24.3-7.65C330.233,380.15,345.6,369.9,358.4,357.1
	 M188.15,93.45c11.1-5.133,23.05-8.983,35.85-11.55v33.3c-7.667,1.7-15.35,4.25-23.05,7.65c-17.9,7.7-33.25,17.95-46.05,30.75
	s-23.05,28.15-30.75,46.05c-4.267,7.7-6.817,15.817-7.65,24.35H83.2c2.567-13.667,6.4-26.05,11.5-37.15
	c8.533-20.467,20.917-39.233,37.15-56.3C148.917,114.35,167.683,101.983,188.15,93.45 M83.2,288h33.3
	c1.7,7.667,4.25,15.35,7.65,23.05c7.7,17.9,17.95,33.25,30.75,46.05s28.15,23.05,46.05,30.75c7.7,4.267,15.383,6.817,23.05,7.65
	v33.3c-12.8-2.567-24.75-6.417-35.85-11.55c-20.467-8.533-39.233-20.9-56.3-37.1c-16.233-17.067-28.617-35.833-37.15-56.3
	C89.6,313.583,85.767,301.633,83.2,288 M166.4,288H224v57.6C195,336.2,175.8,317,166.4,288 M224,224h-57.6
	c9.4-29.867,28.6-49.5,57.6-58.9V224 M288,345.6V288h58.9C337.5,317,317.867,336.2,288,345.6 M288,224v-58.9
	c29.867,9.4,49.5,29.033,58.9,58.9H288z" />
</svg>