<?xml version="1.0"?>

<svg height="12px" version="1.1" viewBox="0 0 512 512" width="12px" xmlns="http://www.w3.org/2000/svg" xmlns:xlink="http://www.w3.org/1999/xlink">
	<path d="M323.15,284.15c-18.767-18.767-41.367-28.15-67.8-28.15s-49.033,9.383-67.8,28.15S159.4,325.533,159.4,352l1.3,129.25
	c0.833,8.533,4.233,15.8,10.2,21.8c5.967,5.967,13.217,8.95,21.75,8.95h1.3c8.533,0,15.783-2.983,21.75-8.95
	c5.967-6.833,8.95-14.517,8.95-23.05l-1.3-128c0-8.533,2.983-15.783,8.95-21.75c6.833-6.833,14.517-10.25,23.05-10.25
	c8.533,0,16.2,3.417,23,10.25c5.967,5.967,8.95,13.217,8.95,21.75v128c0,9.367,3,17.05,9,23.05c6.8,5.967,14.467,8.95,23,8.95
	c9.367,0,17.05-2.983,23.05-8.95c5.967-6,8.95-13.683,8.95-23.05V352C351.3,325.533,341.917,302.917,323.15,284.15 M458.75,248.3
	c4.267,5.133,11.083,7.7,20.45,7.7c10.233,0,18.333-3.417,24.3-10.25s8.533-14.933,7.7-24.3c-0.867-8.533-4.717-15.367-11.55-20.5
	L275.8,8.95C269.833,2.983,263.017,0,255.35,0c-7.667,0-14.483,2.983-20.45,8.95L11,199.65c-5.967,6-9.367,13.267-10.2,21.8
	c-0.867,9.367,1.683,17.467,7.65,24.3C13.583,252.583,20.4,256,28.9,256c9.4,0.833,17.517-1.733,24.35-7.7l10.2-8.95V480
	c0,8.533,3.417,16.217,10.25,23.05c5.967,5.967,13.217,8.95,21.75,8.95c9.367,0,17.033-2.983,23-8.95
	c5.967-6,8.95-13.683,8.95-23.05V184.3L255.35,74.25l129.2,111.35l-1.3,294.4c0,9.367,2.983,17.05,8.95,23.05
	c6.833,5.967,14.517,8.95,23.05,8.95c9.367,0,17.033-2.983,23-8.95c5.967-6,8.95-13.683,8.95-23.05V239.35L458.75,248.3z" />
</svg>