<svg fill="none" height="18" width="18" xmlns="http://www.w3.org/2000/svg">
	<path d="M5.25 14a.75.75 0 0 0 1.5 0h-1.5zm1.5-10a.75.75 0 0 0-1.5 0h1.5zM4 5.5A.75.75 0 0 0 4 7V5.5zM14 7a.75.75 0 0 0 0-1.5V7zM4 10.75a.75.75 0 0 0 0 1.5v-1.5zm10 1.5a.75.75 0 0 0 0-1.5v1.5zM1.75 3c0-.69.56-1.25 1.25-1.25V.25A2.75 2.75 0 0 0 .25 3h1.5zM3 1.75h12V.25H3v1.5zm12 0c.69 0 1.25.56 1.25 1.25h1.5A2.75 2.75 0 0 0 15 .25v1.5zM16.25 3v12h1.5V3h-1.5zm0 12c0 .69-.56 1.25-1.25 1.25v1.5A2.75 2.75 0 0 0 17.75 15h-1.5zM15 16.25H3v1.5h12v-1.5zm-12 0c-.69 0-1.25-.56-1.25-1.25H.25A2.75 2.75 0 0 0 3 17.75v-1.5zM1.75 15V3H.25v12h1.5zm5-1V4h-1.5v10h1.5zM4 7h10V5.5H4V7zm0 5.25h10v-1.5H4v1.5z" fill="#6B6C7E" />
</svg>