<?xml version="1.0"?>

<svg height="16px" version="1.1" viewBox="0 0 512 512" width="15px" xmlns="http://www.w3.org/2000/svg" xmlns:xlink="http://www.w3.org/1999/xlink">
	<path class="lexicon-icon-outline" d="M392,240H120c-8.8,0-16-7.2-16-16l0,0c0-8.8,7.2-16,16-16h272c8.8,0,16,7.2,16,16l0,0
	C408,232.8,400.8,240,392,240z" />
<path class="lexicon-icon-outline" d="M328,304H120c-8.8,0-16-7.2-16-16l0,0c0-8.8,7.2-16,16-16h208c8.8,0,16,7.2,16,16l0,0
	C344,296.8,336.8,304,328,304z" />
<path class="lexicon-icon-outline" d="M200,368h-80c-8.8,0-16-7.2-16-16l0,0c0-8.8,7.2-16,16-16h80c8.8,0,16,7.2,16,16l0,0
	C216,360.8,208.8,368,200,368z" />
<path class="lexicon-icon-outline" d="M392,176H120c-8.8,0-16-7.2-16-16l0,0c0-8.8,7.2-16,16-16h272c8.8,0,16,7.2,16,16l0,0
	C408,168.8,400.8,176,392,176z" />
</svg>