<svg fill="none" height="18" width="16" xmlns="http://www.w3.org/2000/svg">
	<path clip-rule="evenodd" d="M8 7c5 0 8-1.567 8-3.5S12.893 0 8 0 0 1.567 0 3.5 3 7 8 7zm0-1.5c2.767 0 6.5-.63 6.5-2s-3.5-2-6.5-2-6.5.58-6.5 2 3.733 2 6.5 2z" fill="currentColor" fill-rule="evenodd" />
	<path d="M1.946 7.913L.691 7.214C.24 7.67 0 8.178 0 8.715c0 1.933 3 3.5 8 3.5s8-1.567 8-3.5c0-.542-.245-1.056-.705-1.514l-1.263.715c.298.231.468.497.468.8 0 1.37-3.733 2-6.5 2s-6.5-.582-6.5-2c0-.306.162-.573.446-.803z" fill="currentColor" />
	<path d="M.691 12.214l1.255.7c-.284.23-.446.496-.446.801 0 1.42 3.733 2 6.5 2s6.5-.63 6.5-2c0-.302-.17-.568-.468-.8l1.263-.714c.46.458.705.972.705 1.514 0 1.933-3 3.5-8 3.5s-8-1.567-8-3.5c0-.537.24-1.046.691-1.5z" fill="currentColor" />
</svg>