<?xml version="1.0"?>

<svg height="16px" version="1.1" viewBox="0 0 34 32" width="15px" xmlns="http://www.w3.org/2000/svg" xmlns:xlink="http://www.w3.org/1999/xlink">
	<path d="M6.453 7.963h-2.009v1.018h2.009v-1.018z"></path>
	<path d="M9.467 9.999h-2.009v1.018h2.009v-1.018z"></path>
	<path d="M6.453 13.052h-2.009v1.018h2.009v-1.018z"></path>
	<path d="M6.453 16.106h-2.009v1.018h2.009v-1.018z"></path>
	<path d="M2.436 3.027c-1.109 0-2.009 0.911-2.009 2.036v18.321h16.071v-16.285c0-1.124-0.899-2.036-2.009-2.036l-12.053-2.036zM2.436 21.348v-16.285l11.722 2.036h0.331v14.249h-4.018v-3.053l-2.28 1.037-1.738 2.017h-4.018z"></path>
	<path d="M8.621 2.054c0.62 0.115 2.632 0.435 5.637 0.901 0.078 0.012 0.078 0.012 0.156 0.024 1.303 0.202 2.698 0.417 4.094 0.631 0.488 0.075 0.791 0.121 1.349 0.207 0.419 0.064 0.419 0.064 0.512 0.078l0.074 0.011c0.047 0.087 0.1 0.303 0.1 0.732v14.33h2.009v-14.33c0-1.102-0.307-1.902-0.898-2.373-0.355-0.283-0.731-0.392-1.070-0.396-0.059-0.009-0.154-0.023-0.426-0.065-0.558-0.085-0.86-0.132-1.348-0.206-1.394-0.214-2.789-0.429-4.090-0.631-0.078-0.012-0.078-0.012-0.156-0.024-2.974-0.462-4.989-0.782-5.581-0.892-1.195-0.221-2.074 0.292-2.409 1.233-0.124 0.349-0.154 0.685-0.137 0.987l-0.035 2.322 2.009 0.031 0.036-2.367-0.006-0.124c-0-0.015 0.002-0.062 0.009-0.103 0.035 0.002 0.090 0.008 0.172 0.023z"></path>
	<path d="M25.037 19.027c-1.043 0-2.086 0.133-2.999 0.398-0.13 0-0.13 0.398 0 0.531 1.695 0.93 2.999 2.258 2.999 6.375v0.531c4.042 0 6.128-0.797 6.128-3.188s-1.043-4.649-6.128-4.649z"></path>
	<path d="M21.781 18.15c0.996-0.278 2.119-0.42 3.257-0.42 5.14 0 7.426 2.201 7.426 5.946 0 3.255-2.535 4.485-7.426 4.485h-1.297v-1.829c0-3.153-0.652-4.32-2.326-5.238l-0.168-0.092-0.134-0.137c-0.34-0.347-0.469-0.79-0.469-1.224 0-0.217 0.034-0.433 0.123-0.647 0.17-0.41 0.51-0.756 1.015-0.844z" fill="none" stroke="#f1f2f5" stroke-linecap="butt" stroke-linejoin="miter" stroke-miterlimit="4" stroke-width="2.5946" style="stroke: var(--color2, #f1f2f5)"></path>
	<path d="M27.156 14.764c0 1.467-1.168 2.656-2.608 2.656s-2.608-1.189-2.608-2.656c0-1.467 1.168-2.656 2.608-2.656s2.608 1.189 2.608 2.656z"></path>
	<path d="M28.453 14.764c0 2.184-1.748 3.954-3.905 3.954s-3.905-1.77-3.905-3.954c0-2.184 1.748-3.954 3.905-3.954s3.905 1.77 3.905 3.954z" fill="none" stroke="#f1f2f5" stroke-linecap="butt" stroke-linejoin="miter" stroke-miterlimit="4" stroke-width="2.5946" style="stroke: var(--color2, #f1f2f5)"></path>
	<path d="M23.317 25.337c0 3.055-2.608 3.852-7.824 3.852s-7.824-0.93-7.824-3.852c0-2.922 1.304-5.446 7.824-5.446s7.824 2.391 7.824 5.446z"></path>
	<path d="M24.614 25.337c0 2.016-0.932 3.457-2.725 4.256-1.443 0.643-3.436 0.893-6.396 0.893-2.902 0-4.945-0.278-6.408-0.948-1.776-0.814-2.713-2.245-2.713-4.201 0-4.373 2.714-6.743 9.121-6.743 6.456 0 9.121 2.288 9.121 6.743z" fill="none" stroke="#f1f2f5" stroke-linecap="butt" stroke-linejoin="miter" stroke-miterlimit="4" stroke-width="2.5946" style="stroke: var(--color2, #f1f2f5)"></path>
	<path d="M19.386 14.795c0 2.201-1.751 3.985-3.912 3.985s-3.912-1.784-3.912-3.985c0-2.201 1.751-3.985 3.912-3.985s3.912 1.784 3.912 3.985z"></path>
	<path d="M20.683 14.795c0 2.917-2.332 5.282-5.209 5.282s-5.209-2.365-5.209-5.282c0-2.917 2.332-5.282 5.209-5.282s5.209 2.365 5.209 5.282z" fill="none" stroke="#f1f2f5" stroke-linecap="butt" stroke-linejoin="miter" stroke-miterlimit="4" stroke-width="2.5946" style="stroke: var(--color2, #f1f2f5)"></path>
</svg>