<?xml version="1.0"?>

<svg height="16px" version="1.1" viewBox="0 0 39 32" width="15px" xmlns="http://www.w3.org/2000/svg" xmlns:xlink="http://www.w3.org/1999/xlink">
	<path d="M27.631 14.415c-1.466 0-2.933 0.187-4.216 0.56-0.183 0-0.183 0.56 0 0.747 2.383 1.307 4.216 3.174 4.216 8.962v0.747c5.682 0 8.615-1.12 8.615-4.481s-1.466-6.535-8.615-6.535z"></path>
	<path d="M30.609 8.423c0 2.062-1.641 3.734-3.666 3.734s-3.666-1.672-3.666-3.734c0-2.062 1.641-3.734 3.666-3.734s3.666 1.672 3.666 3.734z"></path>
	<path d="M25.213 23.286c0 4.294-3.666 5.414-10.998 5.414s-10.998-1.307-10.998-5.414c0-4.107 1.833-7.655 10.998-7.655s10.998 3.361 10.998 7.655z"></path>
	<path d="M19.686 8.467c0 3.093-2.462 5.601-5.499 5.601s-5.499-2.508-5.499-5.601c0-3.093 2.462-5.601 5.499-5.601s5.499 2.508 5.499 5.601z"></path>
</svg>