<svg fill="none" height="17" viewBox="0 0 19 17" width="19" xmlns="http://www.w3.org/2000/svg">
	<path d="M16.5 1.5H4.5C4.22388 1.5 4 1.72363 4 2V7.08691C3.5647 7.1499 3.05438 7.25635 2.5 7.43262V2C2.5 0.895508 3.39545 0 4.5 0H16.5C17.6046 0 18.5 0.895508 18.5 2V14C18.5 15.1045 17.6046 16 16.5 16H12.5701C12.979 15.5654 13.3763 15.0684 13.7518 14.5H16.5C16.7761 14.5 17 14.2764 17 14V2C17 1.72363 16.7761 1.5 16.5 1.5Z" fill="#6B6C7E" transform="translate(0.169922)" />
	<path d="M16.5 3C16.5 3.55225 16.0523 4 15.5 4C14.9477 4 14.5 3.55225 14.5 3C14.5 2.44775 14.9477 2 15.5 2C16.0523 2 16.5 2.44775 16.5 3Z" fill="#6B6C7E" transform="translate(0.169922)" />
	<path d="M12.5 4C13.0523 4 13.5 3.55225 13.5 3C13.5 2.44775 13.0523 2 12.5 2C11.9477 2 11.5 2.44775 11.5 3C11.5 3.55225 11.9477 4 12.5 4Z" fill="#6B6C7E" transform="translate(0.169922)" />
	<path d="M10.5 3C10.5 3.55225 10.0523 4 9.5 4C8.94769 4 8.5 3.55225 8.5 3C8.5 2.44775 8.94769 2 9.5 2C10.0523 2 10.5 2.44775 10.5 3Z" fill="#6B6C7E" transform="translate(0.169922)" />
	<path clip-rule="evenodd" d="M10.7362 12.3921C8.86066 9.62891 6.2525 9.5 5.59509 9.5H5.27716C4.51233 9.5 1.74732 9.72949 0.0694594 12.7485C-0.108458 13.0688 0.0960097 13.3623 0.22986 13.5537L0.267091 13.6079C2.14478 16.3711 4.78302 16.5 5.44904 16.5H5.76911C6.52533 16.5 9.25379 16.2705 10.9296 13.2515C11.1104 12.9258 10.9017 12.6284 10.7673 12.4365L10.7362 12.3921ZM7.23248 11.022C6.81323 11.1123 6.5 11.4707 6.5 11.8999C6.5 12.0039 6.51837 12.104 6.55225 12.1968C6.30945 11.9551 5.96393 11.7998 5.56494 11.7998C4.78229 11.7998 4.20563 12.3975 4.20563 13.0708C4.20563 13.7441 4.78229 14.3418 5.56494 14.3418C6.3476 14.3418 6.92432 13.7441 6.92432 13.0708C6.92432 12.897 6.88599 12.729 6.81568 12.5742C6.98151 12.7153 7.2002 12.7998 7.43933 12.7998C7.82483 12.7998 8.15613 12.5771 8.30084 12.2588C8.38104 12.5142 8.42432 12.7866 8.42432 13.0708C8.42432 13.7188 8.19873 14.3066 7.82398 14.772C8.47638 14.4668 9.1565 13.9697 9.69556 13.1616C9.83521 12.9526 9.67407 12.7612 9.57025 12.6377L9.54614 12.6089C8.82977 11.731 7.9751 11.2671 7.23248 11.022ZM3.33643 14.8091C2.94348 14.3379 2.70563 13.7363 2.70563 13.0708C2.70563 12.2695 3.05048 11.561 3.59564 11.061C2.82166 11.3394 1.95624 11.8613 1.30365 12.8384C1.16626 13.0439 1.32404 13.2324 1.42743 13.356L1.45636 13.3911C2.0343 14.0986 2.70545 14.5371 3.33643 14.8091Z" fill="#6B6C7E" fill-rule="evenodd" transform="translate(0.169922)" />
</svg>