<?xml version="1.0"?>

<svg height="16px" version="1.1" viewBox="0 0 27 32" width="14px" xmlns="http://www.w3.org/2000/svg" xmlns:xlink="http://www.w3.org/1999/xlink">
	<path d="M19.631 22.033c-2.438 0-4.414-1.914-4.414-4.275s1.976-4.276 4.414-4.276c2.438 0 4.413 1.914 4.413 4.276s-1.976 4.275-4.413 4.275zM20.425 10.48v-3.396c1.212-0.325 2.103-1.399 2.103-2.677 0-1.536-1.285-2.78-2.87-2.78s-2.87 1.245-2.87 2.78c0 1.181 0.761 2.187 1.833 2.59v3.483c-0.989 0.114-1.919 0.411-2.753 0.858l-9.817-7.15c0.149-0.354 0.232-0.74 0.232-1.146 0-1.68-1.406-3.043-3.141-3.043s-3.141 1.362-3.141 3.043c0 1.681 1.406 3.043 3.141 3.043 0.66 0 1.272-0.198 1.777-0.535l9.431 6.868c-1.462 1.335-2.38 3.223-2.38 5.322 0 2.625 1.432 4.921 3.576 6.212l-2.337 3.604c-0.087-0.009-0.175-0.016-0.264-0.016-1.271 0-2.301 0.998-2.301 2.229s1.031 2.23 2.301 2.23c1.271 0 2.302-0.998 2.302-2.23 0-0.506-0.176-0.971-0.47-1.346l2.416-3.725c0.735 0.231 1.518 0.359 2.332 0.359 4.172 0 7.554-3.277 7.554-7.318 0-3.745-2.906-6.828-6.652-7.261v0z" fill="#6b6c7e" style="fill: var(--color1, #6b6c7e)"></path>
</svg>