<svg fill="none" height="32" viewBox="0 0 102 32" width="102" xmlns="http://www.w3.org/2000/svg">
	<path clip-rule="evenodd" d="M0 1.3617C0 0.609655 0.613321 0 1.36989 0H17.1236C17.8802 0 18.4935 0.609655 18.4935 1.3617V17.0213C18.4935 17.7733 17.8802 18.383 17.1236 18.383H1.36989C0.613321 18.383 0 17.7733 0 17.0213V1.3617ZM2.73978 3.06383C2.73978 2.87582 2.89311 2.7234 3.08225 2.7234H5.13709C5.32623 2.7234 5.47956 2.87582 5.47956 3.06383V5.10638C5.47956 5.29439 5.32623 5.44681 5.13709 5.44681H3.08225C2.89311 5.44681 2.73978 5.29439 2.73978 5.10638V3.06383ZM6.50697 2.7234C6.31783 2.7234 6.1645 2.87582 6.1645 3.06383V5.10638C6.1645 5.29439 6.31783 5.44681 6.50697 5.44681H8.56181C8.75095 5.44681 8.90428 5.29439 8.90428 5.10638V3.06383C8.90428 2.87582 8.75095 2.7234 8.56181 2.7234H6.50697ZM9.58923 3.06383C9.58923 2.87582 9.74256 2.7234 9.9317 2.7234H11.9865C12.1757 2.7234 12.329 2.87582 12.329 3.06383V5.10638C12.329 5.29439 12.1757 5.44681 11.9865 5.44681H9.9317C9.74256 5.44681 9.58923 5.29439 9.58923 5.10638V3.06383ZM3.08225 6.12766C2.89311 6.12766 2.73978 6.28007 2.73978 6.46808V8.51064C2.73978 8.69865 2.89311 8.85106 3.08225 8.85106H5.13709C5.32623 8.85106 5.47956 8.69865 5.47956 8.51064V6.46808C5.47956 6.28007 5.32623 6.12766 5.13709 6.12766H3.08225ZM6.1645 6.46808C6.1645 6.28007 6.31783 6.12766 6.50697 6.12766H8.56181C8.75095 6.12766 8.90428 6.28007 8.90428 6.46808V8.51064C8.90428 8.69865 8.75095 8.85106 8.56181 8.85106H6.50697C6.31783 8.85106 6.1645 8.69865 6.1645 8.51064V6.46808ZM13.3564 6.12766C13.1673 6.12766 13.0139 6.28007 13.0139 6.46808V8.51064C13.0139 8.69865 13.1673 8.85106 13.3564 8.85106H15.4113C15.6004 8.85106 15.7537 8.69865 15.7537 8.51064V6.46808C15.7537 6.28007 15.6004 6.12766 15.4113 6.12766H13.3564ZM2.73978 9.87234C2.73978 9.68433 2.89311 9.53191 3.08225 9.53191H5.13709C5.32623 9.53191 5.47956 9.68433 5.47956 9.87234V11.9149C5.47956 12.1029 5.32623 12.2553 5.13709 12.2553H3.08225C2.89311 12.2553 2.73978 12.1029 2.73978 11.9149V9.87234ZM9.9317 9.53191C9.74256 9.53191 9.58923 9.68433 9.58923 9.87234V11.9149C9.58923 12.1029 9.74256 12.2553 9.9317 12.2553H11.9865C12.1757 12.2553 12.329 12.1029 12.329 11.9149V9.87234C12.329 9.68433 12.1757 9.53191 11.9865 9.53191H9.9317ZM13.0139 9.87234C13.0139 9.68433 13.1673 9.53191 13.3564 9.53191H15.4113C15.6004 9.53191 15.7537 9.68433 15.7537 9.87234V11.9149C15.7537 12.1029 15.6004 12.2553 15.4113 12.2553H13.3564C13.1673 12.2553 13.0139 12.1029 13.0139 11.9149V9.87234ZM6.50697 12.9362C6.31783 12.9362 6.1645 13.0886 6.1645 13.2766V15.3191C6.1645 15.5072 6.31783 15.6596 6.50697 15.6596H8.56181C8.75095 15.6596 8.90428 15.5072 8.90428 15.3191V13.2766C8.90428 13.0886 8.75095 12.9362 8.56181 12.9362H6.50697ZM9.58923 13.2766C9.58923 13.0886 9.74256 12.9362 9.9317 12.9362H11.9865C12.1757 12.9362 12.329 13.0886 12.329 13.2766V15.3191C12.329 15.5072 12.1757 15.6596 11.9865 15.6596H9.9317C9.74256 15.6596 9.58923 15.5072 9.58923 15.3191V13.2766ZM13.3564 12.9362C13.1673 12.9362 13.0139 13.0886 13.0139 13.2766V15.3191C13.0139 15.5072 13.1673 15.6596 13.3564 15.6596H15.4113C15.6004 15.6596 15.7537 15.5072 15.7537 15.3191V13.2766C15.7537 13.0886 15.6004 12.9362 15.4113 12.9362H13.3564Z" fill="#0B63CE" fill-rule="evenodd" transform="translate(5.47949 5.44681)" />
	<path d="M9.57419 16.814H1.61951V0.37784C1.61951 0.188919 1.42899 7.20676e-07 1.23845 7.20676e-07H0.381064C0.190532 7.20676e-07 0 0.188919 0 0.37784V17.9475C0 18.1364 0.190532 18.3253 0.381064 18.3253H9.57419C9.76472 18.3253 9.95524 18.1364 9.95524 17.9475V17.1918C9.95524 17.0029 9.76472 16.814 9.57419 16.814Z" fill="#09101D" transform="translate(29.4526 5.38794)" />
	<path d="M1.19082 -1.44135e-06H0.381065C0.190534 -1.44135e-06 1.45363e-06 0.188921 1.45363e-06 0.377842V13.13C1.45363e-06 13.3189 0.190534 13.5078 0.381065 13.5078H1.19082C1.38135 13.5078 1.57188 13.3189 1.57188 13.13V0.377842C1.57188 0.141691 1.42898 -1.44135e-06 1.19082 -1.44135e-06Z" fill="#09101D" transform="translate(41.2656 10.2527)" />
	<path d="M6.90676 1.65306L7.19255 0.944603C7.24018 0.755682 7.19255 0.566761 7.00202 0.472301C6.33516 0.188919 5.6683 -1.44135e-06 5.09671 -1.44135e-06C4.09642 -1.44135e-06 3.23903 0.330612 2.66743 1.03907C2.09584 1.70029 1.76241 2.73935 1.76241 4.0618V6.84838L0.333431 6.94284C0.1429 6.94284 2.90727e-06 7.13176 2.90727e-06 7.32068V7.98191C2.90727e-06 8.17083 0.190528 8.35974 0.381059 8.35974H1.76241V19.9784C1.76241 20.1673 1.95295 20.3562 2.14348 20.3562H2.95323C3.14377 20.3562 3.3343 20.1673 3.3343 19.9784V8.35974H6.00173C6.19226 8.35974 6.38279 8.17083 6.38279 7.98191V7.22622C6.38279 7.0373 6.19226 6.84838 6.00173 6.84838H3.3343V4.20349C3.3343 3.30611 3.47719 2.64489 3.76299 2.17259C4.04879 1.74752 4.42985 1.5586 5.04907 1.5586C5.28724 1.5586 5.52541 1.60583 5.71594 1.65306C5.9541 1.70029 6.19227 1.79475 6.43043 1.88921C6.5257 1.93644 6.62096 1.93644 6.71622 1.88921C6.81149 1.79475 6.90676 1.74752 6.90676 1.65306Z" fill="#09101D" transform="translate(45.2192 3.40427)" />
	<path d="M5.85883 0C5.0967 0 4.33458 0.188924 3.62009 0.519535C2.9056 0.850146 2.28637 1.32245 1.76241 1.93644C1.23845 2.55043 0.762127 3.30612 0.476331 4.15626C0.142901 5.0064 2.90727e-06 5.99823 2.90727e-06 7.08453C2.90727e-06 8.17082 0.142901 9.16266 0.476331 10.0128C0.80976 10.8629 1.23845 11.6186 1.81004 12.2326C2.38164 12.8466 3.0485 13.3189 3.81063 13.6495C4.57275 13.9801 5.3825 14.1218 6.23989 14.1218C7.24018 14.1218 8.09757 13.9801 8.7168 13.6968C9.33602 13.4134 9.90762 13.13 10.3839 12.8466C10.5745 12.7522 10.6221 12.516 10.5268 12.3743L10.1458 11.6659C10.0981 11.5714 10.0029 11.5242 9.90762 11.4769C9.81235 11.4769 9.66946 11.4769 9.62182 11.5242C9.19313 11.8548 8.66916 12.1382 8.1452 12.3271C7.62124 12.516 7.00202 12.6105 6.33516 12.6105C5.62067 12.6105 5.00144 12.4688 4.42985 12.1854C3.85825 11.902 3.38193 11.5242 2.95323 11.0519C2.52454 10.5796 2.23874 9.96557 2.00058 9.30435C1.81005 8.73758 1.71478 8.1236 1.66715 7.46237H10.7174C10.9079 7.46237 11.0508 7.32068 11.0984 7.17899C11.1461 6.99007 11.1461 6.80115 11.1461 6.65946V6.23438C11.1461 4.25072 10.6697 2.69212 9.76472 1.65306C8.7168 0.519532 7.43071 0 5.85883 0ZM9.47892 5.99823H1.57188C1.66714 5.38424 1.81005 4.81748 2.00058 4.29795C2.23874 3.68396 2.57217 3.16442 3.00086 2.73935C3.38192 2.31428 3.81062 1.98367 4.33458 1.79475C4.81091 1.5586 5.33487 1.46414 5.85883 1.46414C6.95438 1.46414 7.85941 1.84198 8.47863 2.64489C9.09786 3.40058 9.43129 4.5341 9.47892 5.99823Z" fill="#09101D" transform="translate(51.8877 9.92203)" />
	<path d="M6.28753 0.283384C6.04937 0.141693 5.81121 0.0944633 5.57304 0.0472331C5.33488 2.882e-06 5.14434 0 4.90618 0C4.04879 0 3.23903 0.283383 2.57217 0.850145C2.19111 1.18076 1.85768 1.5586 1.52425 1.98367L1.47662 0.708453C1.47662 0.519532 1.28608 0.33061 1.09555 0.33061H0.381061C0.19053 0.33061 -2.90728e-06 0.519532 -2.90728e-06 0.708453V13.4606C-2.90728e-06 13.6495 0.19053 13.8385 0.381061 13.8385H1.19082C1.38135 13.8385 1.57188 13.6495 1.57188 13.4606V4.67579C2.04821 3.49503 2.57217 2.69212 3.1914 2.26705C3.763 1.79475 4.28695 1.60582 4.81091 1.60582C5.09671 1.60582 5.23961 1.60583 5.33488 1.65306C5.43014 1.65306 5.62068 1.74752 5.81121 1.79475C5.90647 1.84198 6.00173 1.84198 6.097 1.79475C6.19226 1.74752 6.28753 1.65306 6.28753 1.5586L6.5257 0.802912C6.57333 0.566761 6.47807 0.377845 6.28753 0.283384Z" fill="#09101D" transform="translate(65.3677 9.92203)" />
	<path d="M10.9079 0.33061H10.1458C9.95525 0.33061 9.76471 0.472302 9.76471 0.708453L9.71709 1.27521C9.24076 0.944602 8.81206 0.708453 8.38336 0.472302C7.76414 0.188921 7.00202 0 6.14463 0C5.28724 0 4.52511 0.188924 3.76299 0.519535C3.04849 0.850146 2.38164 1.32245 1.81005 1.93644C1.23845 2.55043 0.809758 3.30612 0.476329 4.15626C0.1429 5.0064 1.45364e-06 5.99823 1.45364e-06 7.08453C1.45364e-06 9.35158 0.52396 11.0991 1.52425 12.2799C2.57217 13.5078 3.95351 14.1218 5.71592 14.1218C6.66858 14.1218 7.52597 13.8857 8.33573 13.4606C8.85969 13.1772 9.33601 12.8466 9.76471 12.4688L9.81234 13.4606C9.81234 13.6495 10.0029 13.7912 10.1934 13.7912H10.9079C11.0984 13.7912 11.289 13.6023 11.289 13.4134V0.66122C11.289 0.472299 11.0984 0.33061 10.9079 0.33061ZM9.71709 3.02273V10.5796C9.05023 11.2408 8.38337 11.7131 7.76414 12.0909C7.14492 12.4215 6.47805 12.6105 5.76356 12.6105C5.0967 12.6105 4.47748 12.4688 4.00115 12.2326C3.52482 11.9965 3.0485 11.6186 2.71507 11.1463C2.38164 10.674 2.09584 10.06 1.90531 9.39881C1.71478 8.73758 1.61951 7.93467 1.61951 7.08453C1.61951 6.32885 1.76241 5.57316 1.95294 4.91194C2.1911 4.25071 2.52453 3.63673 2.90559 3.1172C3.28666 2.59766 3.76298 2.21982 4.33458 1.93644C4.85854 1.65306 5.43013 1.51136 6.04936 1.51136C6.66859 1.51136 7.28781 1.65306 7.8594 1.88921C8.47862 2.07813 9.05023 2.5032 9.71709 3.02273Z" fill="#09101D" transform="translate(71.7505 9.92203)" />
	<path d="M11.4039 0.141692C11.3087 0.0472317 11.2134 0 11.1181 0H10.2608C10.1179 0 9.97496 0.0944604 9.92733 0.236151L7.02173 8.5959C6.8312 9.11543 6.64068 9.72942 6.40251 10.3906C6.30725 10.7685 6.16434 11.0991 6.06908 11.4297C5.92618 11.0991 5.78328 10.7213 5.64039 10.3906C5.40222 9.72942 5.16406 9.16266 4.92589 8.64313L1.63924 0.283384C1.59161 0.141694 1.4487 0.0472331 1.3058 0.0472331H0.400785C0.257887 0.0472331 0.162616 0.0944648 0.0673501 0.188925C0.0197325 0.236144 -0.0279038 0.425075 0.0197289 0.519535L5.30695 13.4606L4.97353 14.4997C4.6401 15.4915 4.2114 16.3417 3.63981 16.9557C3.16348 17.5696 2.59189 17.853 1.8774 17.853C1.7345 17.853 1.54397 17.853 1.40108 17.8058C1.21054 17.7586 1.06765 17.7113 0.924748 17.6641C0.829483 17.6169 0.734214 17.6169 0.638949 17.6641C0.543683 17.7113 0.496053 17.8058 0.448421 17.9003L0.210257 18.6559C0.162624 18.8449 0.257887 19.0338 0.400785 19.081C0.82948 19.2699 1.3058 19.3644 1.78213 19.3644C2.40136 19.3644 2.97295 19.2227 3.44928 18.9393C3.9256 18.7032 4.3543 18.3253 4.73537 17.9003C5.11643 17.4752 5.40222 17.0029 5.64039 16.4833C5.87855 15.9638 6.11671 15.4915 6.25961 14.972L11.4039 0.425076C11.4526 0.300557 11.4796 0.216724 11.4039 0.141692Z" fill="#09101D" transform="translate(84.7822 10.2527)" />
	<path d="M1.42898 0H0.476325C0.238161 0 -2.90728e-06 0.188921 -2.90728e-06 0.472302V1.41691C-2.90728e-06 1.65306 0.190528 1.88921 0.476325 1.88921H1.42898C1.66715 1.88921 1.90531 1.70029 1.90531 1.41691V0.472302C1.90531 0.236151 1.66715 0 1.42898 0Z" fill="#09101D" transform="translate(41.0752 5.43518)" />
</svg>