<?xml version="1.0"?>

<svg height="16px" version="1.1" viewBox="0 0 32 32" width="16px" xmlns="http://www.w3.org/2000/svg" xmlns:xlink="http://www.w3.org/1999/xlink">
	<path d="M1.231 0h29.538c0.68 0 1.231 0.551 1.231 1.231v29.538c0 0.68-0.551 1.231-1.231 1.231h-29.538c-0.68 0-1.231-0.551-1.231-1.231v-29.538c0-0.68 0.551-1.231 1.231-1.231z" fill="#6b6c7e" style="fill: var(--color1, #6b6c7e)"></path>
	<path d="M3.692 3.692h4.923v4.923h-4.923v-4.923z" fill="#fff" style="fill: var(--color2, #fff)"></path>
	<path d="M23.385 23.385h4.923v4.923h-4.923v-4.923z" fill="#fff" style="fill: var(--color2, #fff)"></path>
	<path d="M23.385 17.231h4.923v4.923h-4.923v-4.923z" fill="#fff" style="fill: var(--color2, #fff)"></path>
	<path d="M23.385 11.077h4.923v4.923h-4.923v-4.923z" fill="#fff" style="fill: var(--color2, #fff)"></path>
	<path d="M17.231 23.385h4.923v4.923h-4.923v-4.923z" fill="#fff" style="fill: var(--color2, #fff)"></path>
	<path d="M17.231 17.231h4.923v4.923h-4.923v-4.923z" fill="#fff" style="fill: var(--color2, #fff)"></path>
	<path d="M11.077 23.385h4.923v4.923h-4.923v-4.923z" fill="#fff" style="fill: var(--color2, #fff)"></path>
	<path d="M3.692 9.846h4.923v4.923h-4.923v-4.923z" fill="#fff" style="fill: var(--color2, #fff)"></path>
	<path d="M3.692 16h4.923v4.923h-4.923v-4.923z" fill="#fff" style="fill: var(--color2, #fff)"></path>
	<path d="M9.846 3.692h4.923v4.923h-4.923v-4.923z" fill="#fff" style="fill: var(--color2, #fff)"></path>
	<path d="M9.846 9.846h4.923v4.923h-4.923v-4.923z" fill="#fff" style="fill: var(--color2, #fff)"></path>
	<path d="M16 3.692h4.923v4.923h-4.923v-4.923z" fill="#fff" style="fill: var(--color2, #fff)"></path>
</svg>