<?xml version="1.0"?>

<svg height="16px" version="1.1" viewBox="0 0 25 16" width="25px" xmlns="http://www.w3.org/2000/svg" xmlns:xlink="http://www.w3.org/1999/xlink">

	<!-- Generator: Sketch 47 (45396) - http://www.bohemiancoding.com/sketch -->

	<title>Salesforce Icon</title>
	<desc>Created with Sketch.</desc>
	<defs></defs>
	<g fill="none" fill-rule="evenodd" id="Page-1" stroke="none" stroke-width="1">
		<g fill="#6B6C7E" id="FARO-Data-Source-Icons" transform="translate(-84.000000, -30.000000)">
			<path d="M101.174537,32.5247081 C100.379152,31.2158582 98.8772868,30.3333333 97.1555556,30.3333333 C95.9769598,30.3333333 94.9013926,30.7468814 94.0849468,31.4276407 C93.2089405,30.5491205 91.9617612,30 90.5777778,30 C87.926811,30 85.7777778,32.0147186 85.7777778,34.5 C85.7777778,35.0807063 85.8951067,35.6357216 86.1087527,36.1453475 C84.8512044,36.7991433 84,38.0563797 84,39.5 C84,41.6170915 85.8306579,43.3333333 88.0888889,43.3333333 C88.3629017,43.3333333 88.6306193,43.3080646 88.8895349,43.2598771 C89.5108586,44.8585001 91.1465698,46 93.0666667,46 C94.7753766,46 96.2588711,45.0960045 97.0026808,43.7703286 C97.4386587,43.9189424 97.9092323,44 98.4,44 C100.030827,44 101.438662,43.1049287 102.095057,41.8102065 C102.559204,41.933829 103.049137,42 103.555556,42 C106.501074,42 108.888889,39.7614237 108.888889,37 C108.888889,34.2385763 106.501074,32 103.555556,32 C102.699859,32 101.891229,32.1889244 101.174537,32.5247081 L101.174537,32.5247081 Z" id="Salesforce-Icon"></path>
		</g>
	</g>
</svg>