<svg fill="none" height="16" viewBox="0 0 16 16" width="16" xmlns="http://www.w3.org/2000/svg">
	<path clip-rule="evenodd" d="M15.8172 0.423399C16.1357 0.874598 16.0281 1.49856 15.5769 1.81705L10.9103 5.11117C10.7415 5.23026 10.5401 5.2942 10.3336 5.2942H6.01567L1.62213 8.78319C1.18963 9.12665 0.56059 9.05446 0.217134 8.62196C-0.126322 8.18946 -0.0541372 7.56043 0.378363 7.21697L5.04503 3.51109C5.22189 3.37064 5.44107 3.2942 5.66691 3.2942H10.0162L14.4236 0.183115C14.8748 -0.135379 15.4987 -0.0277996 15.8172 0.423399ZM15.9276 7.62601C16.1342 8.13819 15.8865 8.72088 15.3743 8.92748L10.7077 10.8098C10.5888 10.8578 10.4618 10.8824 10.3336 10.8824H5.88319L1.41347 12.9107C0.910545 13.1389 0.317835 12.9162 0.0896168 12.4133C-0.138602 11.9104 0.0840927 11.3177 0.587019 11.0895L5.25369 8.97181C5.38348 8.91291 5.52437 8.88243 5.66691 8.88243H10.1395L14.6262 7.07268C15.1384 6.86609 15.721 7.11382 15.9276 7.62601ZM1.00025 14.0001C0.44796 14.0001 0.000245128 14.4478 0.000245128 15.0001C0.000245128 15.5524 0.44796 16.0001 1.00025 16.0001H5.50025H10.5002H15.0002C15.5525 16.0001 16.0002 15.5524 16.0002 15.0001C16.0002 14.4478 15.5525 14.0001 15.0002 14.0001H10.5002H5.50025H1.00025Z" fill="currentColor" fill-rule="evenodd" />
</svg>