<svg height="512" viewBox="0 0 512 512" width="512" xmlns="http://www.w3.org/2000/svg">
	<path clip-rule="evenodd" d="M11.8799 13.0188C10.7964 13.8298 9.45312 14.3096 8 14.3096C4.41553 14.3096 1.5 11.3909 1.5 7.77832C1.5 4.86865 3.39111 2.40918 6 1.56226V0C2.54932 0.891602 0 4.03613 0 7.77832C0 12.2139 3.58154 15.8096 8 15.8096C9.96045 15.8096 11.7559 15.1018 13.147 13.927L11.8799 13.0188ZM14.1963 9.75781L15.4668 10.668C15.8115 9.77124 16 8.79688 16 7.77832C16 4.03613 13.4507 0.891602 10 0V1.56226C12.6089 2.40918 14.5 4.86865 14.5 7.77832C14.5 8.46875 14.3936 9.13379 14.1963 9.75781Z" fill-rule="evenodd" transform="translate(0 6.10938) scale(32)" />
</svg>