<svg fill="none" height="32" viewBox="0 0 32 32" width="32" xmlns="http://www.w3.org/2000/svg">
	<path clip-rule="evenodd" d="M14.75 7C12.1266 7 10 9.12646 10 11.75C10 14.3735 12.1266 16.5 14.75 16.5C17.3734 16.5 19.5 14.3735 19.5 11.75C19.5 9.12646 17.3734 7 14.75 7ZM11.5 11.75C11.5 9.95508 12.9551 8.5 14.75 8.5C16.5449 8.5 18 9.95508 18 11.75C18 13.5449 16.5449 15 14.75 15C12.9551 15 11.5 13.5449 11.5 11.75ZM11.25 18C8.93768 18 7 19.7939 7 22.0835V23.75C7 24.1641 7.33582 24.5 7.75 24.5C8.16418 24.5 8.5 24.1641 8.5 23.75V22.0835C8.5 20.6904 9.69629 19.5 11.25 19.5H12.4451C12.5878 18.938 12.8316 18.4444 13.2441 18H11.25ZM21.4487 25.3281C21.0345 25.3281 20.6987 24.9923 20.6987 24.5781V19.026L18.9582 20.369C18.6302 20.622 18.1592 20.5613 17.9062 20.2333C17.6532 19.9054 17.7139 19.4344 18.0419 19.1814L20.9906 16.9063C21.217 16.7316 21.523 16.7009 21.7796 16.827C22.0362 16.9531 22.1987 17.2142 22.1987 17.5001V24.5781C22.1987 24.9923 21.8629 25.3281 21.4487 25.3281ZM24.3976 17.2557C24.8118 17.2557 25.1476 17.5915 25.1476 18.0057V23.4529L26.8581 21.9864C27.1726 21.7168 27.6461 21.7532 27.9157 22.0677C28.1853 22.3822 28.1489 22.8556 27.8344 23.1252L24.8857 25.6531C24.6633 25.8437 24.3503 25.8875 24.0842 25.7651C23.8181 25.6427 23.6476 25.3766 23.6476 25.0837V18.0057C23.6476 17.5915 23.9833 17.2557 24.3976 17.2557Z" fill="currentColor" fill-rule="evenodd" />
</svg>