<svg fill="none" height="212" viewBox="0 0 427 212" width="427" xmlns="http://www.w3.org/2000/svg">
	<path d="M41.704 14.143C41.744 14.127 41.764 14.112 41.764 14.101C41.764 14.031 41.736 14.07 41.704 14.143ZM143.079 132.525C143.079 132.525 141.169 132.127 141.086 131.888C141.007 131.65 137.74 128.782 137.665 128.862C137.58 128.94 136.306 127.582 136.146 127.985C135.99 128.383 133.518 128.383 133.518 128.383L130.889 127.741C130.889 127.741 129.777 128.543 130.014 128.22C130.253 127.902 130.093 125.991 130.014 126.312C129.935 126.627 126.029 124.637 126.029 124.637L124.672 125.832V124.318L122.606 123.045L122.847 121.371L121.884 120.574C121.884 120.574 121.729 120.812 121.649 120.654C121.57 120.496 121.011 117.309 121.011 117.309L117.981 114.838L114.32 114.678L110.972 112.841L110.255 111.171C110.255 111.171 108.342 110.298 108.342 110.058C108.342 109.82 107.79 109.98 107.626 109.897C107.471 109.82 107.551 109.025 107.551 109.025L106.668 108.303L106.353 108.089L105.574 107.853L105.097 107.187C105.097 107.187 106.83 106.413 106.651 106.475C106.476 106.531 102.77 107.068 102.77 107.068L102.412 107.783L100.678 106.889L97.751 106.708C97.751 106.708 95.656 105.874 95.716 105.636C95.779 105.396 95.06 104.5 95.06 104.5C95.06 104.5 94.582 105.636 94.462 105.755C94.344 105.874 92.852 107.129 92.852 107.129L92.967 109.044L91.953 107.964L92.672 106.948C92.672 106.948 92.672 105.695 92.672 105.516C92.672 105.333 93.568 104.918 93.568 104.918L93.209 104.144C93.209 104.144 92.136 104.442 92.136 104.622C92.136 104.8 90.702 105.636 90.702 105.636L88.967 106.292H88.191C88.191 106.292 87.416 107.544 87.231 107.607C87.054 107.668 87.118 108.805 87.118 108.805C87.118 108.805 85.201 110.951 85.081 110.713C84.962 110.475 82.935 108.805 82.935 108.805L80.54 109.099L79.168 109.819L77.494 108.683L76.181 106.652L76.304 104.263L77.019 101.63L77.317 99.901L75.524 98.583C75.524 98.583 71.88 98.882 71.88 98.703C71.88 98.527 69.905 98.766 69.967 98.583C70.024 98.406 70.684 97.271 70.684 97.089C70.684 96.909 71.164 95.537 71.164 95.537L71.941 93.985L72.956 91.003L73.551 89.982L70.566 89.804L68.772 90.52L67.757 93.51L62.677 94.883L61.423 93.928C61.423 93.928 61.303 94.466 61.367 94.167C61.423 93.869 59.812 91.774 59.812 91.774L59.034 88.85C59.034 88.85 61.068 82.811 61.004 82.934C60.945 83.051 61.068 80.719 61.068 80.719L67.46 76.539L69.907 76.897L70.504 77.494L72.001 77.251L73.494 75.76L75.403 76L77.253 75.643L78.391 76.899L80.06 76.243L80.957 77.201L81.499 77.794V78.813L81.081 79.767L81.499 81.919L82.693 83.594L83.469 83.891L84.425 81.263L84.244 78.813L83.827 76.836V75.403L86.279 72.422L89.442 70.148L91.952 68.714L94.163 66.325L94.044 64.054L95.005 63.877L95.952 61.847L96.909 61.959L98.765 59.631L101.868 58.559L103.784 58.202L104.382 57.545L103.665 56.948L105.157 54.733L109.879 52.881L112.749 52.045L110.415 53.54L110.893 54.673L112.626 54.196L113.882 53.421L117.167 52.526C117.167 52.526 117.948 51.209 117.825 51.508C117.71 51.806 119.5 51.209 119.5 51.209L119.143 50.49L119.262 49.535L118.308 49.894L116.867 51.447L114.54 51.333L113.467 49.716L114.482 48.342C114.482 48.342 115.496 46.31 115.437 46.433C115.376 46.549 113.826 45.953 113.826 45.953L111.494 46.786C111.256 46.786 109.045 48.102 109.103 47.924C109.164 47.745 107.967 48.581 107.967 48.581L111.013 46.135L112.27 45.953L113.705 44.636H120.576L122.907 44.157L126.012 42.486L126.255 42.786L124.939 44.038L123.325 45.712L121.768 47.382L120.993 48.4L123.443 48.519C123.443 48.519 125.353 48.567 125.535 48.519C125.774 48.459 125.833 49.354 125.833 49.354L126.847 48.638L127.388 50.012L129.182 48.638L128.641 47.084L129.122 45.647L127.03 45.711V44.933C127.03 44.933 126.255 44.037 126.194 44.155C126.132 44.276 127.388 43.142 127.327 43.261C127.268 43.381 126.787 42.665 126.787 42.665L128.226 40.867L127.51 38.839L127.267 37.826L125.414 36.929L124.758 36.031L123.919 35.375L124.579 33.82L124.279 32.686C124.279 32.686 123.744 28.98 123.684 29.098C123.621 29.219 121.17 31.132 121.17 31.132L118.665 32.389L117.346 31.253L117.47 29.755L118.605 28.681L116.749 28.084L116.63 27.606C116.63 27.606 114.958 25.933 114.84 26.051C114.72 26.175 114.302 26.593 114.302 26.593L110.357 26.229L108.984 28.621L108.686 29.875C108.686 29.875 106.525 32.037 106.261 32.204C106.419 32.158 107.43 33.164 107.43 33.164L106.531 35.311L103.126 37.283L101.456 37.525C101.456 37.525 100.438 41.232 100.498 41.469C100.557 41.71 99.125 42.363 99.125 42.363L98.109 43.081L97.689 41.769C97.689 41.769 97.231 40.765 97.049 40.511C97.316 40.621 98.286 40.75 98.286 40.75L98.468 39.911L97.51 39.973L97.93 38.598L98.826 37.107L95.717 36.867L95.007 36.029L93.449 35.789L93.326 35.13L92.251 34.475L90.935 33.878L89.504 34.057L89.443 32.805L89.8 31.61L88.369 31.372C88.369 31.372 90.879 28.8 90.819 28.92C90.755 29.039 97.866 25.391 97.866 25.391L98.705 24.499L100.077 24.376L103.064 23.005L105.335 21.452L105.574 21.572L103.845 23.184L103.367 23.778L101.992 24.437L103.248 24.615L103.065 25.335L104.442 25.095L105.814 23.959L106.894 24.321L107.373 24.854L108.864 24.794L108.804 23.66L106.477 21.989L105.933 21.452L105.697 20.853L106.709 20.977L107.552 21.693L108.446 20.793L110.238 20.558L112.03 19.298L111.914 18.523L113.286 17.21L112.387 16.256L114.779 16.196L116.866 16.256C116.866 16.256 117.885 15.779 118.065 16.077C118.245 16.375 119.797 17.508 119.797 17.508L119.2 18.046L116.747 18.348L116.15 19.539L117.947 19.781L119.318 18.348L120.81 18.227L121.05 19.658C121.05 19.658 119.379 20.616 119.141 20.675C118.902 20.739 117.884 21.212 117.884 21.212L117.824 22.291L116.211 22.468L114.539 22.172L113.764 22.23L112.507 23.244L113.523 24.14C113.523 24.14 115.018 23.543 115.256 23.365C115.494 23.187 116.271 22.826 116.449 23.127C116.628 23.425 117.641 24.261 117.641 24.261L118.484 25.879L119.26 26.116L121.647 26.892C121.647 26.892 123.322 27.311 123.322 27.428C123.322 27.548 123.147 26.414 123.147 26.414L121.884 24.919C121.884 24.919 121.829 24.501 122.242 24.617C122.665 24.736 123.682 25.63 123.682 25.63C123.858 25.69 125.055 26.413 125.055 26.413L125.532 25.097L126.606 24.439L126.191 23.662L125.592 23.007L124.936 22.23L124.994 21.335C124.994 21.335 125.174 21.211 125.353 21.096C125.531 20.978 126.069 20.559 126.19 20.794C126.307 21.033 127.507 22.588 127.507 22.588L128.637 22.825L129.178 21.931C129.178 21.931 130.669 21.75 130.669 21.811C130.669 21.871 130.789 21.095 130.789 21.095L132.165 20.738L130.193 19L129.119 18.461L128.279 18.701L127.508 17.805L128.342 17.031L128.703 15.953L127.746 14.998L126.252 14.7L125.89 13.92C125.89 13.92 124.638 13.742 124.458 13.859C124.277 13.983 123.382 12.786 123.382 12.786L122.605 11.772C122.484 11.711 122.067 11.29 121.829 11.353C121.586 11.413 119.08 11.472 119.08 11.472L118.483 11.652L117.708 11.052L114.598 11.831L112.987 13.086C112.987 13.086 112.869 12.368 112.987 12.19C113.103 12.011 114.239 11.354 114.419 11.235C114.598 11.116 113.046 11.053 113.046 11.053C113.046 11.053 110.176 12.011 110.057 12.19C109.938 12.368 107.726 14.1 107.726 14.1L107.79 15.535L109.819 15.836L110.595 16.011L110.057 16.492L109.64 17.387L108.327 18.104L106.71 19.297L105.336 19.834L105.099 18.88L106.293 18.163C106.293 18.163 106.054 16.672 105.934 16.79C105.815 16.91 104.562 16.731 104.501 16.91C104.443 17.09 104.562 15.777 104.562 15.777L104.501 14.52L104.203 13.561C104.203 13.561 105.22 12.726 105.396 12.667C105.576 12.607 107.488 12.487 107.488 12.487L110.536 10.755L108.025 10.638C108.025 10.638 105.698 10.695 105.576 10.937C105.456 11.176 103.906 12.787 103.906 12.787L102.949 13.504L99.782 15.479L99.661 16.851L98.348 16.613L97.394 16.433L95.007 17.388V18.702L90.638 18.944C90.638 18.944 88.55 18.642 88.55 18.347C88.55 18.045 87.774 17.449 87.536 17.449C87.293 17.449 84.605 18.285 84.605 18.285L84.486 19.12L81.379 18.944C81.379 18.944 78.811 19.418 78.871 19.182C78.931 18.944 77.495 19.061 77.495 19.061L79.646 18.105L78.155 17.388L75.462 16.971L73.552 16.374L71.405 16.673L71.166 15.778L69.25 16.552L68.712 15.297L67.399 15.896C67.399 15.896 62.5 16.911 62.26 16.97C62.023 17.031 60.829 16.492 60.829 16.492L59.33 17.208L56.466 17.387L55.328 16.552L52.999 16.075L50.429 16.194L45.646 15.415C45.646 15.415 42.9 14.997 43.079 14.934C43.258 14.874 41.588 14.456 41.588 14.456C41.588 14.456 41.655 14.257 41.707 14.141C41.121 14.389 36.449 15.172 36.449 15.172L30.177 17.207L26.053 18.042C26.053 18.042 26.172 19.117 26.23 19.295C26.291 19.478 26.649 20.67 26.649 20.67L25.515 20.909H24.315L24.918 20.074L18.817 21.746L18.942 22.403L18.521 23.18L20.433 23.359L22.048 23.538C22.048 23.538 22.944 23.002 22.944 23.181C22.944 23.36 22.466 24.731 22.466 24.731L20.615 24.851C20.496 24.672 19.538 24.914 19.538 24.914C19.538 24.914 18.281 25.685 18.222 25.511C18.162 25.332 15.716 25.929 15.716 25.929L12.904 27.543L11.831 29.155L11.712 30.348L13.803 29.993L12.606 31.608L13.981 31.545C13.981 31.545 15.596 31.545 15.715 31.788C15.836 32.027 16.55 31.908 16.55 32.027C16.55 32.148 2.33 37.643 2.209 37.465C2.089 37.282 0 38.419 0 38.419C0 38.419 2.745 37.942 2.928 37.942C3.106 37.942 7.167 36.984 7.167 36.984L9.08 36.446C9.08 36.446 13.204 35.252 13.259 35.072C13.32 34.891 16.19 33.398 16.369 33.398C16.549 33.398 17.504 32.981 17.566 33.221C17.623 33.459 21.688 32.148 21.688 32.148C21.688 32.148 23.12 31.129 23.004 30.95C22.88 30.771 22.046 30.293 22.285 30.235C22.523 30.174 24.671 29.873 24.671 29.873C24.671 29.873 27.9 28.561 27.841 28.738C27.781 28.919 24.555 31.072 24.555 31.072L29.157 30.174L31.011 29.395C31.011 29.395 32.563 28.679 32.444 28.859C32.324 29.038 34.237 29.574 34.237 29.753C34.237 29.932 38.238 30.532 38.238 30.532L39.434 32.325L39.192 34.653L39.074 37.584L41.224 37.344L40.689 39.255L40.812 42.424C40.812 42.424 40.927 43.558 40.927 43.737C40.927 43.916 39.254 43.38 39.254 43.38C39.254 43.38 39.014 44.753 39.193 44.931C39.379 45.11 41.348 47.082 41.348 47.082L40.69 47.92L39.193 51.624L35.668 55.685L35.073 57.901L33.339 59.81L33.638 61.185C33.638 61.185 33.16 62.143 33.284 62.261C33.399 62.379 34.118 68.893 34.118 68.893L36.629 70.445L37.284 71.641L37.643 76.54L38.716 78.75L37.523 79.587L38.896 81.495L39.435 81.558L40.514 82.81L40.093 84.485L41.226 85.38L42.304 87.054L42.484 87.889L43.501 86.875L42.484 84.784C42.484 84.784 41.767 83.227 41.827 82.873C41.887 82.513 40.873 79.824 40.873 79.824C40.873 79.824 39.912 77.791 40.035 77.613C40.151 77.432 39.314 76.241 39.314 76.241L39.735 73.792L41.468 74.15C41.468 74.15 41.767 76.416 41.767 76.659C41.767 76.897 42.186 78.332 42.186 78.332L44.455 81.494L44.099 83.11L48.458 88.307L48.398 90.4L47.74 91.413L48.098 92.85L51.745 95.538L52.341 95.42L53.415 96.496L57.357 98.469L59.33 98.948L61.664 98.229L63.156 98.948L65.427 101.576L67.757 102.171L70.144 103.011H71.285L71.584 104.382C71.584 104.382 72.659 105.758 72.898 105.937C73.135 106.116 72.958 107.671 72.958 107.671L73.972 108.205L75.168 109.462L75.944 110.182L76.783 111.136L77.319 110.778L78.395 111.075L79.945 112.512L80.961 111.911L80.669 110.778L81.617 109.823H82.456L83.354 110.538L83.293 111.375L84.368 113.107L84.429 117.947L83.473 119.503L82.156 120.399L82.1 121.829L80.723 122.366L80.186 124.279L79.348 125.953L79.527 127.385L80.724 128.461L79.646 129.602L78.872 130.734L79.583 133C79.583 133 79.94 134.138 79.94 134.017C79.94 133.898 81.081 134.798 81.081 134.798L83.171 138.975L85.199 141.908C85.199 141.908 88.15 147.855 88.21 147.902C89.101 148.557 95.603 153.24 95.603 153.24L96.712 159.055L97.036 171.322L97.99 174.832L97.588 181.923L97.273 183.355C97.273 183.355 98.546 185.585 98.546 185.907C98.546 186.225 98.784 189.01 98.784 189.01L99.659 192.038L100.694 191.96L100.057 190.208L100.856 190.288L101.409 193.074L101.488 194.187L100.856 193.63L100.296 194.187L99.897 194.667L100.694 195.387L100.297 196.495L100.139 197.933L101.254 198.093L102.05 198.729L101.254 200.083C101.254 200.083 106.19 208.767 110.334 209.8C114.478 210.84 115.672 211.156 115.672 211.156L117.428 210.199L117.979 209.484L114.318 208.21L111.53 205.178L110.97 203.588L111.846 202.953L111.689 201.755C111.689 201.755 111.689 200.88 112.003 200.642C112.325 200.404 112.961 199.208 112.961 199.208L112.003 198.729L110.412 197.138L110.571 195.301L111.529 194.748C111.529 194.748 111.606 193.709 111.449 193.471C111.286 193.235 111.688 192.036 111.927 191.958C112.168 191.876 112.799 190.919 112.799 190.919H111.689L111.053 190.683L110.253 189.412V188.452L111.607 188.85L112.886 188.61L113.602 187.575C113.602 187.575 113.363 186.939 113.284 186.701C113.204 186.463 113.443 185.425 113.681 185.345C113.919 185.27 115.352 185.425 115.352 185.425L118.062 184.71C118.062 184.71 119.099 182.875 119.02 182.557C118.94 182.239 118.94 181.203 118.94 181.203C118.94 181.203 118.94 180.488 118.304 180.403C117.663 180.326 117.663 180.091 117.504 179.446C117.342 178.811 116.863 178.094 116.863 178.094L116.069 178.254L116.788 177.539L118.381 178.73L120.769 179.133L122.603 177.298L123.879 174.19L124.435 171.879H125.628L126.901 169.569L127.382 167.419L126.984 164.787L127.541 163.836L131.682 161.047L134.792 160.01L135.832 159.21C135.832 159.21 137.42 157.062 137.42 156.823C137.42 156.584 138.059 153.475 138.059 153.475C138.059 153.475 138.774 149.815 138.692 149.577C138.615 149.334 138.854 146.149 138.692 146.069C138.532 145.991 138.774 145.111 138.774 145.111L141.802 140.811L143.236 137.541C143.236 137.541 144.276 135.87 144.115 135.552C143.953 135.233 143.079 132.525 143.079 132.525ZM174.585 15.896C174.585 15.896 175.066 13.503 174.708 13.264C174.345 13.026 176.142 11.592 176.142 11.592C176.142 11.592 178.767 10.396 178.887 10.041C179.006 9.68 178.171 9.795 178.171 9.795L178.408 8.005L180.084 7.408C180.084 7.408 179.13 5.972 178.887 5.254C178.651 4.544 181.757 4.182 181.757 4.182L187.254 1.673L180.684 2.389L180.441 1.555L173.508 0L159.651 0.481L158.1 1.317H153.313L146.624 1.915C146.624 1.915 140.291 2.749 139.932 2.987C139.576 3.228 140.65 3.586 140.65 3.586L140.531 4.423L132.76 5.381L132.285 6.217C132.285 6.217 133.12 7.052 133.239 7.172C133.356 7.291 136.585 8.007 136.585 8.007L140.41 8.485C140.41 8.485 142.562 9.442 142.916 9.797C143.278 10.155 143.162 11.236 143.04 11.833C142.916 12.431 142.562 12.549 142.085 13.266C141.605 13.985 143.04 13.624 143.04 13.624L144.714 14.459C144.714 14.459 144.236 14.459 143.516 14.583C142.796 14.702 141.842 14.937 141.842 14.937L141.723 16.256L144.117 15.779L143.871 16.613L142.201 16.971L140.531 19L140.41 22.824L140.767 26.05L141.723 28.68L143.278 28.919L145.071 29.995L147.464 29.873L149.85 26.648L152.358 24.258L153.076 22.944L154.274 22.228L156.899 21.632L160.247 20.912C160.247 20.912 163.35 18.88 163.713 18.641C164.068 18.403 172.672 15.778 172.672 15.778L174.585 15.896ZM176.979 24.616L180.325 23.542L181.038 22.229L179.728 21.155L173.63 21.871L171.838 20.793L169.69 21.99C169.69 21.99 170.764 22.468 171.122 22.706C171.48 22.945 172.197 22.468 172.197 22.468V23.543C172.197 23.543 174.109 24.617 173.867 24.978C173.63 25.335 176.979 24.616 176.979 24.616ZM182.872 40.906L182.195 41.348L181.995 42.107L182.593 42.464L183.55 42.663L184.542 42.424L185.384 41.946L185.62 41.708L187.015 41.622L187.174 41.031L187.496 40.431V38.718L188.252 38.279L188.009 37.167L186.817 36.889L185.862 36.729L185.226 36.927L184.861 37.444C184.861 37.444 184.271 38.082 184.388 37.959C184.511 37.844 184.825 37.844 184.75 38.042C184.667 38.24 184.345 38.439 184.345 38.439H183.875L183.468 38.2L182.874 38.279L182.673 38.638L182.917 39.196L182.514 39.596L182.992 39.995L183.468 40.11L183.394 40.67L182.872 40.906ZM187.61 36.209C187.89 36.325 188.007 36.488 187.968 36.605C187.933 36.729 188.566 36.807 188.566 36.807L189.086 36.689L188.728 37.246C188.728 37.246 188.806 37.605 188.924 37.765C189.047 37.924 189.446 37.765 189.446 37.765C189.446 37.765 190.403 37.605 190.523 37.645C190.639 37.683 190.48 38.043 190.48 38.043L190.842 38.599C190.842 38.599 191.037 39.397 191.077 39.634C191.12 39.877 190.758 39.792 190.758 39.792C190.758 39.792 190.008 39.911 189.841 39.876C189.682 39.836 189.367 40.151 189.089 40.468C188.808 40.793 189.129 40.67 189.129 40.67H189.721C189.721 40.67 189.768 41.066 189.805 41.231C189.841 41.39 189.326 41.546 189.17 41.506C189.011 41.468 188.292 41.827 188.292 41.827L188.329 42.425L189.208 42.504L190.086 42.624L190.245 42.902C190.245 42.902 189.681 43.022 189.525 42.902C189.366 42.783 188.888 43.539 188.888 43.539L188.451 44.017L187.531 44.733L188.048 44.973L188.368 44.573L189.169 44.613L190.039 44.494C190.039 44.494 190.562 43.857 190.682 43.857C190.798 43.857 192.035 43.819 192.035 43.819C192.035 43.819 193.031 43.619 193.15 43.699C193.269 43.779 194.067 43.94 194.191 43.978C194.308 44.017 195.861 43.54 195.861 43.54C195.861 43.54 196.178 43.023 196.257 42.864C196.34 42.705 195.822 42.546 195.703 42.426C195.584 42.306 196.099 42.148 196.34 42.029C196.577 41.91 196.657 41.47 196.778 41.273C196.893 41.076 196.617 40.672 196.577 40.556C196.539 40.433 195.98 40.47 195.822 40.433C195.663 40.392 194.986 40.47 194.986 40.47L195.022 39.674C195.022 39.674 193.15 37.126 193.19 37.007C193.23 36.891 192.752 36.131 192.553 36.094C192.354 36.054 192.114 35.889 191.875 35.571C191.638 35.255 192.194 34.854 192.194 34.854C192.194 34.854 192.869 34.138 192.95 33.98C193.03 33.82 192.868 33.343 192.751 33.303C192.63 33.264 191.24 33.343 191.24 33.343C191.24 33.343 190.843 33.025 190.88 32.906C190.921 32.781 191.319 32.744 191.44 32.744C191.553 32.744 192.275 31.353 192.434 31.313C192.592 31.27 192.313 30.915 192.313 30.915L191.758 31.147L191.24 31.909C191.24 31.909 190.758 32.028 190.563 31.909C190.366 31.789 189.964 31.909 189.805 31.869C189.646 31.824 189.282 32.347 189.282 32.347C189.282 32.347 188.73 32.944 188.569 32.983C188.41 33.023 187.852 33.66 187.892 33.699C187.935 33.739 187.971 34.259 187.971 34.259C187.971 34.259 187.852 34.455 187.653 34.495C187.455 34.534 187.811 35.211 187.811 35.211L188.293 35.453C188.293 35.453 188.01 35.729 187.852 35.692C187.69 35.648 187.332 36.092 187.61 36.209ZM374.983 27.567C374.983 27.534 374.965 27.534 374.931 27.554C374.966 27.58 374.983 27.589 374.983 27.567ZM326.073 97.871C326.153 97.752 327.266 97.194 327.305 96.912C327.347 96.639 328.142 99.506 328.142 99.506L328.704 101.496C328.704 101.496 329.138 102.928 329.298 103.208C329.458 103.489 329.693 105.32 329.693 105.48C329.693 105.638 330.217 106.71 329.976 106.832C329.732 106.951 329.339 106.871 329.415 107.032C329.499 107.189 329.692 108.067 329.692 108.232C329.692 108.389 329.575 109.461 329.499 109.661C329.415 109.861 329.38 110.379 329.38 110.614C329.38 110.855 329.532 111.297 329.532 111.412C329.532 111.534 329.655 111.732 329.655 111.732C329.655 111.732 329.817 111.814 329.893 111.612C329.975 111.412 330.571 111.334 330.654 111.412C330.731 111.494 331.646 112.565 331.728 112.888C331.806 113.204 332.802 114.761 332.919 114.919C333.04 115.079 333.56 115.598 333.235 116.034C332.919 116.472 332.919 116.551 332.962 116.789C333.001 117.027 333.122 117.902 333.517 118.386C333.92 118.861 334.751 119.777 334.751 119.777C334.751 119.777 335.79 120.499 335.95 120.698C336.106 120.895 337.262 121.014 337.385 121.491C337.499 121.968 337.82 122.45 337.82 122.45C337.82 122.45 338.734 122.726 338.734 122.849C338.734 122.75 338.728 121.359 338.618 121.169C338.501 120.975 337.546 119.021 337.422 118.903C337.306 118.782 337.107 118.505 337.226 117.992C337.345 117.468 337.145 116.113 337.145 116.113L335.273 113.881C335.273 113.881 333.639 112.287 333.6 112.369C333.561 112.447 332.323 111.89 332.371 111.412C332.403 110.935 332.242 109.742 331.885 109.462C331.531 109.185 331.212 108.743 330.933 108.585C330.656 108.422 330.855 106.91 330.933 106.711C331.01 106.512 331.648 104.762 331.611 104.645C331.567 104.526 331.769 102.893 331.769 102.893C331.769 102.893 332.285 102.209 332.404 102.45C332.527 102.688 333.082 102.45 332.922 103.167C332.764 103.889 332.846 104.327 332.846 104.327L334.276 104.045L335.275 105.083L335.994 106.036L336.909 106.595C336.909 106.595 337.147 107.672 337.266 107.747C337.388 107.83 337.984 107.509 337.984 107.509L338.9 108.151C338.9 108.151 338.38 109.104 338.504 109.347C338.621 109.585 338.737 110.419 338.737 110.419L339.617 109.701L340.735 108.865L341.292 108.068L341.491 107.472L343.081 106.791L344.596 105.398L344.559 102.449L344.08 100.619L342.726 98.706L340.094 96.079L339.063 94.805C339.063 94.805 338.344 93.889 338.381 93.652C338.422 93.409 338.577 92.138 338.577 92.138L339.299 91.459L340.695 90.065C340.695 90.065 341.65 89.428 341.81 89.586C341.968 89.746 343.242 89.706 343.283 89.824C343.32 89.944 343.487 89.906 343.4 90.142C343.32 90.38 343.439 91.458 343.558 91.578C343.681 91.698 343.961 91.814 344.08 91.856C344.192 91.894 344.596 91.735 344.637 91.497C344.678 91.26 344.596 90.422 344.637 90.222C344.678 90.024 344.756 90.024 344.877 89.984C344.996 89.944 345.59 89.984 345.59 89.984L346.231 89.347L347.344 89.745L348.539 88.707C348.539 88.707 349.178 88.591 349.258 88.669C349.336 88.752 350.376 87.874 350.376 87.874L351.45 87.634L352.403 87.235C352.403 87.235 352.801 86.318 352.801 86.436C352.801 86.557 355.114 84.129 355.114 84.129L355.87 82.256L356.784 79.588L357.341 76.278L357.383 75.324C357.383 75.324 356.505 76.039 356.388 76.082C356.267 76.119 355.552 75.924 355.552 75.924L356.107 74.926C356.107 74.926 356.427 74.21 356.267 74.17C356.107 74.129 355.31 73.892 355.31 73.892C355.31 73.892 355.653 73.108 355.704 73.057C355.631 73.057 354.318 71.701 354.318 71.701C354.318 71.701 352.563 69.192 352.483 69.389C352.403 69.589 351.051 68.435 350.927 68.435C350.813 68.435 350.731 68.474 350.653 68.237C350.573 67.997 351.848 66.324 351.887 66.2C351.926 66.085 353.039 64.847 353.243 64.888C353.437 64.928 354.116 64.967 354.116 64.967C354.116 64.967 353.953 64.172 353.836 64.132C353.72 64.093 351.012 63.854 351.012 63.854C351.012 63.854 349.938 64.491 349.897 64.65C349.851 64.809 348.983 64.731 348.983 64.731L348.861 63.814L347.78 63.297L346.549 62.859L346.591 62.022C346.591 62.022 347.344 61.745 347.465 61.659C347.584 61.579 348.539 61.106 348.617 60.704C348.697 60.305 349.336 59.669 349.418 59.549C349.496 59.43 350.012 58.992 350.129 59.072C350.252 59.151 351.013 59.709 350.928 59.749C350.853 59.788 350.335 60.627 350.449 60.862C350.573 61.105 351.13 61.823 351.052 61.94C350.974 62.062 350.732 62.5 350.732 62.5L351.33 62.42C351.33 62.42 352.086 61.823 352.045 61.744C352.006 61.658 352.643 60.986 352.762 60.986C352.881 60.986 354.199 60.703 354.233 60.822C354.276 60.943 355.591 61.26 355.591 61.26L355.831 63.654C355.831 63.654 359.018 64.41 359.018 64.61C359.018 64.808 358.658 65.125 358.658 65.125C358.658 65.125 358.618 65.763 358.778 65.845C358.936 65.921 359.453 66.36 359.575 66.522C359.699 66.681 359.935 67.759 359.935 67.759C359.935 67.759 359.499 68.713 359.575 68.833C359.653 68.954 360.451 69.669 360.451 69.669L362.723 68.793C362.723 68.793 363.955 67.838 363.955 67.719C363.955 67.597 362.643 64.411 362.643 64.411L359.613 62.335L358.303 61.261L360.133 59.471L359.973 57.919C359.973 57.919 360.371 56.4 360.451 56.4C360.535 56.4 361.647 55.606 361.647 55.606L362.92 56.487L364.833 55.289L365.909 51.429L365.948 46.406L364.235 43.34C364.235 43.34 363.44 41.468 363.316 41.468C363.197 41.468 362.045 39.672 362.045 39.672L359.376 38.48L358.218 38.44L357.504 39.633L356.75 38.718L355.714 36.888L355.831 38.002C355.831 38.002 355.991 38.718 355.943 38.877C355.913 39.036 355.151 37.881 355.151 37.881C355.151 37.881 353.877 37.644 353.798 37.644C353.721 37.644 353.081 37.282 353.081 37.282C353.081 37.282 354.96 35.097 354.797 35.175C354.639 35.253 355.115 32.387 355.115 32.387C355.115 32.387 355.791 31.03 355.83 31.11C355.871 31.191 358.455 30.832 358.455 30.832C358.455 30.832 363.196 30.755 363.157 30.832C363.118 30.915 365.47 30.676 365.47 30.676C365.47 30.676 365.546 31.353 365.752 31.433C365.946 31.511 367.857 31.39 367.857 31.39L369.252 31.073L369.926 30.991C369.926 30.991 369.092 30.156 368.971 30.156C368.852 30.156 368.057 29.795 367.979 29.755C367.896 29.715 368.575 28.205 368.534 27.965C368.497 27.725 368.417 26.89 368.733 26.97C369.051 27.051 371.207 27.051 371.207 27.051C371.207 27.051 372.079 27.884 372.079 28.124C372.079 28.362 373.474 29.198 373.474 29.198C373.474 29.198 374.233 28.362 374.31 28.204C374.377 28.077 374.78 27.628 374.934 27.554C374.742 27.397 374.116 26.572 374.116 26.572C374.116 26.572 374.79 25.813 375.147 26.211C375.51 26.61 376.303 28.322 376.303 28.322C376.303 28.322 375.584 30.113 375.584 30.275C375.584 30.431 375.307 32.069 375.307 32.19C375.307 32.308 374.509 33.024 374.509 33.024C374.509 33.024 374.115 33.024 374.115 33.223C374.115 33.421 374.667 34.495 374.667 34.495C374.667 34.495 374.873 35.732 374.985 35.807C375.107 35.894 379.092 39.354 379.092 39.354L381.679 41.908L383.356 43.299L383.831 43.181C383.831 43.181 384.232 41.231 384.072 41.306C383.911 41.389 383.273 40.712 383.356 40.595C383.433 40.468 383.592 39.91 383.789 39.951C383.992 39.994 384.588 40.109 384.588 40.109L383.393 38.597L383.789 37.763L384.709 38.041L383.473 36.728L382.836 35.451C382.836 35.451 383.513 35.609 383.558 35.727C383.593 35.854 384.313 35.216 384.073 35.173C383.832 35.129 382.399 34.613 382.399 34.493C382.399 34.375 381.565 34.176 381.519 34.015C381.483 33.857 381.68 33.22 381.565 33.22C381.446 33.22 380.211 32.663 380.211 32.663L379.409 32.778L378.971 31.907L379.209 31.23C379.209 31.23 378.446 30.146 378.377 30.077C378.438 30.132 380.079 29.505 380.235 29.438C380.227 29.464 381.011 29.373 381.08 29.672C381.163 29.993 381.518 30.312 381.518 30.312L382.359 29.516C382.359 29.516 382.955 28.996 383.194 29.114C383.433 29.233 384.588 29.477 384.751 29.633C384.893 29.779 385.618 29.985 385.73 30.116C385.719 29.949 385.744 29.432 385.744 29.432L385.778 28.995L386.901 27.483C386.901 27.483 387.334 26.847 387.737 26.763C388.135 26.687 388.969 25.97 389.128 26.091C389.288 26.208 390.609 26.171 390.768 26.529C390.924 26.886 391.641 26.409 391.641 26.409C391.641 26.409 390.96 25.574 390.924 25.651C390.887 25.73 388.691 24.772 388.573 24.816C388.452 24.852 386.983 23.938 386.983 23.938C386.983 23.938 386.222 23.659 386.186 23.659C386.147 23.659 386.779 23.34 387.017 23.26C387.258 23.182 387.817 22.425 387.817 22.425C387.817 22.425 387.54 21.908 387.378 21.748C387.217 21.59 388.255 21.709 388.612 21.868C388.969 22.027 390.767 22.106 390.724 22.226C390.68 22.344 391.919 22.344 391.878 22.664C391.837 22.983 392.316 23.06 392.476 23.221C392.636 23.381 394.149 23.619 394.231 23.659C394.304 23.698 395.818 23.54 395.818 23.777C395.818 24.017 396.298 23.739 396.298 23.739C396.298 23.739 396.06 22.585 395.781 22.664C395.499 22.743 394.979 22.345 395.341 22.267C395.701 22.188 396.378 21.789 396.18 21.709C395.978 21.631 395.661 21.231 395.183 21.03C394.707 20.831 392.794 20.397 392.595 20.472C392.398 20.555 389.407 19.833 389.214 19.833C389.01 19.833 387.975 19.558 387.975 19.558L377.778 16.809C377.778 16.809 371.445 16.133 371.482 16.01C371.525 15.894 367.819 15.573 367.819 15.573L370.013 17.406L367.819 17.089C367.819 17.089 365.113 16.651 365.033 16.531C364.951 16.413 357.461 16.372 357.461 16.372L356.348 15.172C356.348 15.172 352.761 14.58 352.642 14.54C352.523 14.496 348.06 14.54 348.06 14.54L344.323 13.982C344.323 13.982 341.81 12.904 341.252 13.025C340.695 13.145 335.198 12.667 334.878 12.506C334.562 12.346 332.374 12.666 332.374 12.666L334.157 14.021L331.215 13.939L328.267 13.898L327.149 13.342L327.195 14.976C327.195 14.976 326.356 15.131 326.356 14.933C326.356 14.734 323.765 13.82 323.765 13.82C323.765 13.82 321.611 11.91 321.575 12.03C321.534 12.148 318.077 11.352 318.077 11.352L315.919 10.956C315.919 10.956 315.282 11.233 315.36 11.393C315.44 11.552 316.276 12.109 316.157 12.228C316.038 12.346 314.727 12.109 314.727 12.109L311.34 11.99L310.738 11.353L306.277 11.393C306.277 11.393 304.605 10.077 304.563 10.153C304.527 10.233 303.29 10.439 303.29 10.439L302.333 11.472L299.627 11.672L302.539 10.117L303.574 9.362C303.649 9.158 302.85 7.966 302.696 8.124C302.539 8.285 300.263 7.567 300.144 7.567C300.025 7.567 296.599 7.487 296.599 7.487C296.357 7.448 295.285 7.487 295.285 7.487C295.285 7.487 294.887 6.374 294.687 6.413C294.49 6.453 291.897 6.373 291.897 6.373C291.897 6.373 289.589 6.851 289.502 7.089C289.431 7.33 289.946 7.567 289.946 7.567C289.946 7.567 288.712 8.483 288.591 8.403C288.474 8.323 284.885 8.323 284.885 8.323C284.885 8.323 279.907 9.397 279.907 9.277C279.907 9.175 278.417 9.811 278.07 9.964C278.363 10.221 279.408 10.816 279.27 10.956C279.112 11.114 275.763 11.274 275.644 11.034C275.537 10.815 274.213 11.32 274.003 11.352C274.244 11.452 275.812 12.678 275.921 12.865C276.04 13.063 276.328 13.343 276.718 13.183C277.116 13.024 277.474 12.865 277.556 13.024C277.636 13.183 277.556 13.541 277.556 13.541C277.556 13.541 276.558 13.741 276.443 13.741C276.329 13.741 275.127 13.063 275.007 13.024C274.89 12.984 273.296 12.626 273.095 12.626C272.891 12.626 272.016 12.745 272.016 12.745C272.016 12.745 271.34 13.343 271.498 13.423C271.663 13.502 272.06 14.258 272.181 14.181C272.298 14.098 273.017 13.78 273.054 14.14C273.095 14.494 272.22 14.778 272.22 14.778C272.22 14.778 271.02 14.296 270.981 14.18C270.942 14.056 270.383 13.382 270.383 13.023C270.383 12.664 269.668 11.391 269.469 11.589C269.272 11.789 268.555 11.868 268.555 11.868L269.432 12.664C269.432 12.664 270.186 13.299 269.987 13.341C269.79 13.381 269.231 13.698 269.194 13.819C269.153 13.938 268.715 14.613 269.231 14.613C269.749 14.613 270.586 15.413 270.586 15.413C270.586 15.413 270.625 16.49 270.703 16.649C270.783 16.808 272.015 17.643 272.015 17.643C272.015 17.643 272.778 17.165 272.89 17.047C273.016 16.927 274.052 16.729 274.29 16.967C274.529 17.205 273.81 17.802 273.613 17.684C273.412 17.563 272.976 17.444 272.777 17.523C272.574 17.602 272.574 17.602 272.574 17.602C272.574 17.602 272.297 18.2 272.574 18.319C272.855 18.44 273.218 18.838 273.176 19.036C273.133 19.234 272.379 20.59 272.379 20.59L271.261 20.828C270.863 20.749 270.228 20.47 270.228 20.47L271.422 19.556L271.582 18.319C271.582 18.319 271.623 18.24 271.305 17.961C270.98 17.684 269.868 16.689 269.868 16.689C269.868 16.689 269.192 15.572 269.192 15.453C269.192 15.328 268.874 14.733 268.874 14.733C268.874 14.733 268.116 14.216 267.956 14.18C267.8 14.139 267.8 13.699 267.921 13.461C268.038 13.221 267.8 12.148 267.759 12.306C267.713 12.466 266.362 12.267 266.201 12.227C266.041 12.188 265.685 11.749 265.685 11.749C265.685 11.749 265.488 11.075 265.164 11.352C264.849 11.63 264.292 11.749 264.292 11.749L263.735 13.221L263.893 13.819L262.778 14.578C262.778 14.578 263.719 15.387 263.806 15.449C263.738 15.416 263.856 16.252 263.893 16.45C263.929 16.649 265.604 17.088 265.604 17.088C265.604 17.088 266.481 17.445 266.559 17.803C266.641 18.161 266.319 18.6 266.319 18.6L264.61 17.803L260.822 16.61C260.822 16.61 257.162 16.372 257.239 16.253C257.322 16.134 255.843 15.295 255.843 15.295L255.006 15.732C255.006 15.732 255.801 16.293 255.925 16.328C256.044 16.372 257.239 16.81 257.239 16.81C257.239 16.81 257.599 17.009 257.677 17.328C257.76 17.645 257.001 18.043 257.001 18.043C257.001 18.043 256.485 17.486 256.485 17.368C256.485 17.248 256.362 16.77 256.204 16.849C256.044 16.929 254.571 17.686 254.571 17.686C254.571 17.686 252.898 17.725 252.697 17.884C252.498 18.043 251.423 18.802 251.343 18.601C251.261 18.402 251.501 17.566 251.465 17.407C251.423 17.248 249.79 17.687 249.79 17.687C249.79 17.687 247.682 18.362 247.599 18.56C247.521 18.762 246.566 18.959 246.402 18.999C246.244 19.039 246.047 19.039 246.047 19.039C246.047 19.039 245.213 19.559 245.369 19.834C245.529 20.114 244.214 20.271 244.214 20.271C244.214 20.271 243.38 19.755 243.341 19.639C243.303 19.53 244.246 18.896 244.336 18.842C244.214 18.921 243.341 17.806 243.22 17.766C243.115 17.734 240.95 17.79 240.564 17.774C240.816 17.866 241.587 18.612 241.587 18.722C241.587 18.842 241.708 19.998 241.708 19.998C241.708 19.998 242.34 20.399 242.462 20.352C242.581 20.316 242.34 21.032 242.34 21.032L241.271 20.913C241.271 20.913 240.827 20.272 240.469 20.634C240.11 20.996 238.918 21.911 238.84 21.792C238.758 21.672 238.082 21.911 238.122 22.15C238.163 22.39 238.68 22.905 238.68 22.905C238.68 22.905 237.925 23.542 237.999 23.305C238.082 23.063 235.932 22.508 235.771 22.548C235.606 22.588 234.692 22.867 234.692 22.867L235.088 23.543C235.088 23.543 236.286 23.622 236.443 23.861C236.608 24.099 236.169 24.577 236.043 24.577C235.931 24.577 233.141 23.263 233.141 23.263C233.141 23.263 232.223 22.309 232.499 22.031C232.785 21.752 233.021 21.315 232.499 21.315C231.984 21.315 231.427 20.914 231.391 20.755C231.349 20.596 234.532 21.077 234.532 21.077L236.369 21.273C236.369 21.273 236.131 21.515 236.848 21.273C237.562 21.034 238.758 20.434 238.918 20.4C239.078 20.353 239.273 19.598 239.273 19.598L239.035 18.922L232.188 17.29C232.188 17.29 229.914 16.613 229.875 16.494C229.836 16.375 227.843 16.173 227.843 16.173L226.885 16.296L227.687 15.298C227.687 15.298 224.575 14.379 224.499 14.498C224.415 14.617 223.143 15.222 223.143 15.222L220.754 14.821L217.684 15.537L214.576 16.296L210.078 18.206L211.751 18.365L211.03 19.598L209.038 21.077L207.927 22.906L207.767 23.902L206.693 25.055C206.693 25.055 205.937 24.658 205.778 24.501C205.62 24.338 202.987 25.253 202.987 25.253L201.396 26.768C201.396 26.768 200.998 27.527 200.918 27.726C200.835 27.927 201.037 30.038 201.037 30.038C201.037 30.038 201.993 30.038 201.713 30.316C201.433 30.593 201.473 31.871 201.473 31.871L202.59 32.623C202.59 32.623 204.062 33.105 204.267 33.063C204.458 33.024 205.18 32.546 205.302 32.466C205.413 32.388 206.295 31.512 206.573 31.548C206.851 31.592 207.567 30.79 207.65 31.074C207.728 31.353 207.889 32.348 208.046 32.587C208.205 32.826 208.762 33.264 209 33.819C209.237 34.378 209.564 34.938 209.48 35.052C209.397 35.176 208.841 35.729 208.841 35.729C208.841 35.729 207.65 35.888 207.488 36.053C207.33 36.21 207.131 36.289 207.011 36.21C206.888 36.13 207.408 35.57 207.528 35.417C207.649 35.254 207.25 34.616 207.09 34.655C206.928 34.697 206.773 34.297 206.928 34.178C207.09 34.058 207.05 33.302 207.05 33.302C207.05 33.302 206.811 33.181 206.693 33.223C206.573 33.263 205.179 33.819 205.179 33.819C205.179 33.819 204.423 34.616 204.383 34.774C204.34 34.938 204.021 35.772 204.225 36.367C204.423 36.968 204.9 37.924 204.9 37.924C204.9 37.924 205.413 38.28 205.218 38.441C205.022 38.599 204.618 39.197 204.618 39.197L203.667 39.236C203.667 39.236 201.954 39.439 201.792 39.515C201.635 39.597 199.964 40.111 200.039 40.273C200.123 40.432 199.679 42.147 199.679 42.147C199.602 42.187 197.928 43.381 197.73 43.381C197.531 43.381 196.297 43.698 196.297 43.698C196.297 43.698 195.739 45.172 195.701 45.091C195.661 45.01 193.824 45.967 193.824 45.967C193.824 45.967 192.432 45.568 192.392 45.407C192.352 45.249 191.873 44.891 191.835 45.011C191.793 45.132 192.311 46.371 192.311 46.61C192.311 46.843 192.392 47.322 192.232 47.166C192.072 47.003 191.276 46.769 191.118 46.688C190.955 46.61 189.603 46.646 189.603 46.646H189.045C189.045 46.646 188.366 47.246 188.326 47.125C188.289 47.004 188.249 47.645 188.249 47.645L188.645 48.041L190.083 48.638L191.436 49.475L191.954 50.748L192.55 51.943C192.55 51.943 192.151 54.412 192.077 54.535C191.989 54.652 191.156 55.213 191.156 55.213L188.565 55.169C188.565 55.169 187.29 54.892 187.171 54.852C187.052 54.81 185.258 55.09 185.223 54.931C185.183 54.77 184.623 54.81 184.623 54.81L184.341 54.493H183.625L183.028 55.168L182.152 55.212V55.925C182.152 55.925 182.51 57.562 182.47 57.443C182.43 57.32 182.312 59.352 182.312 59.352C182.312 59.352 181.451 61.083 181.364 61.215C181.383 61.267 181.317 62.38 181.317 62.38L181.836 63.218L181.915 64.211C181.915 64.211 181.516 65.126 181.676 65.047C181.837 64.966 183.113 65.086 183.148 64.928C183.188 64.77 183.947 64.411 184.063 64.688C184.181 64.966 184.623 64.688 184.747 65.17C184.858 65.647 185.3 66.323 185.343 66.441C185.382 66.565 185.7 66.68 185.7 66.68L185.819 67.002L185.577 67.202L184.587 69.429L182.391 70.984L181.079 71.818L180.72 72.817L180.164 73.454L180.004 74.688C180.004 74.688 180.164 76.239 180.081 76.321C180.004 76.4 177.095 79.149 177.095 79.149L175.502 79.507L174.622 81.022C174.622 81.022 173.428 82.134 173.351 82.338C173.268 82.534 172.672 83.294 172.672 83.294C172.672 83.294 172.712 84.884 172.672 84.647C172.631 84.408 170.961 85.959 170.961 85.959C170.961 85.959 170.643 87.792 170.564 87.874C170.485 87.95 169.689 89.346 169.566 89.306C169.447 89.265 169.328 90.261 169.328 90.421C169.328 90.579 169.724 91.056 169.724 91.056C169.724 91.056 170.286 92.136 170.324 92.016C170.362 91.893 170.362 92.376 170.362 92.376L169.807 92.93C169.807 92.93 170.405 93.849 170.405 93.968C170.405 94.087 170.405 96.434 170.405 96.434L169.765 97.791L169.447 99.545L168.488 100.3L168.528 100.779L169.366 101.454L169.489 102.209L169.246 103.048V103.888L169.847 105.282C169.847 105.282 170.444 105.759 170.563 105.639C170.682 105.519 171.873 106.395 172.035 106.672C172.195 106.951 173.666 108.704 173.666 108.786C173.666 108.864 173.906 109.263 173.906 109.263L174.622 111.693C174.622 111.693 178.088 114.559 178.168 114.441C178.248 114.325 181.873 117.028 181.873 117.028C181.873 117.028 184.785 115.598 184.746 115.719C184.703 115.836 187.211 115.598 187.211 115.598L188.727 115.836L189.838 116.354L193.905 114.485L194.702 113.881L197.846 113.766L199.362 114.357C199.362 114.357 200.357 115.836 200.357 116.075C200.357 116.314 200.955 117.387 201.036 117.227C201.113 117.072 204.581 116.912 204.703 116.95C204.818 116.989 206.333 118.467 206.333 118.467L206.254 119.863L206.013 122.329L205.534 123.525L205.061 124.602L204.942 125.359C204.942 125.359 208.521 130.617 208.521 130.656C208.521 130.695 209.438 132.844 209.438 132.844L210.518 135.596L211.156 137.146L210.518 138.022L211.554 140.696L211.194 143.321L209.64 146.71L208.964 149.218L209.163 152.564L211.029 156.428L212.984 160.85L213.183 165.712L214.74 168.616L215.858 170.964L216.932 173.517L217.487 174.274C217.487 174.274 217.57 175.549 217.444 175.549C217.327 175.549 216.732 175.592 216.892 175.826C217.05 176.064 217.964 177.659 217.964 177.659L218.003 178.378L219.276 179.091L220.399 178.575C220.399 178.575 221.512 178.378 221.633 178.417C221.75 178.456 223.301 177.897 223.301 177.897L225.692 178.256L227.366 177.381L229.199 177.262C229.199 177.262 232.345 174.193 232.345 174.273C232.345 174.353 235.247 170.531 235.247 170.531L236.728 169.253L237.561 166.745L237.443 165.116C237.443 165.116 237.723 164.273 237.999 164.115C238.281 163.957 240.986 162.364 240.986 162.364L241.549 159.733L241.027 157.142C241.027 157.142 240.627 156.151 240.627 155.99C240.627 155.833 240.906 155.111 240.906 155.111L243.538 152.762C243.538 152.762 244.134 152.005 244.413 151.727C244.693 151.449 247.158 150.375 247.158 150.375L248.835 148.745L249.114 142.727C249.114 142.727 248.516 140.491 248.477 140.296C248.438 140.092 247.283 136.313 247.283 136.151C247.283 135.994 246.885 133.681 246.84 133.479C246.808 133.287 247.754 130.616 247.754 130.616L249.073 128.023L254.453 121.85L257.483 119.424L262.062 111.931L263.537 108.464L263.852 104.963L262.899 104.803C262.899 104.803 262.419 105.36 262.3 105.438C262.18 105.52 259.432 105.68 259.432 105.68L256.085 106.672L254.452 107.27L252.859 105.6L253.097 104.406L250.949 101.853L247.92 98.831C247.92 98.831 246.401 97.673 246.483 97.557C246.565 97.434 245.644 94.646 245.644 94.726C245.644 94.806 244.132 93.334 244.132 93.334L244.093 90.662L242.46 87.997L240.671 84.727C240.671 84.727 239.154 80.981 238.994 80.782C238.838 80.584 238.24 79.59 238.437 79.629C238.636 79.67 240.07 79.47 240.07 79.47C240.07 79.47 242.737 82.619 242.737 82.778C242.737 82.937 244.334 85.603 244.334 85.603C244.334 85.603 245.527 87.278 245.527 87.155C245.527 87.042 245.806 88.709 245.765 88.832C245.726 88.952 246.482 90.785 246.482 90.785L248.754 92.818L249.231 94.289L251.302 96.559L251.703 97.995L250.306 96.716C250.306 96.716 249.868 97.435 250.027 97.558C250.185 97.674 251.58 99.149 251.58 99.149L252.263 101.178L252.781 103.093L253.535 103.73L255.768 103.293L256.163 102.413H258.355L259.31 101.698L260.501 101.538C260.501 101.538 261.419 100.621 261.498 100.581C261.58 100.541 265.125 98.991 265.125 98.991C265.125 98.991 265.202 97.831 265.363 97.831C265.523 97.831 269.071 96.716 269.071 96.716L269.428 95.363L270.699 95.283L271.058 94.369L272.293 93.613L272.448 91.62L273.367 91.896L273.648 91.218L273.33 90.785L274.725 88.754L274.764 88.033L273.409 86.799L272.774 86.123C272.774 86.123 270.621 85.881 270.539 85.722C270.461 85.562 269.625 83.649 269.625 83.649C269.625 83.055 269.664 81.976 269.543 82.058C269.428 82.137 268.75 82.893 268.75 82.893L266.285 85.165L264.129 85.722C264.129 85.722 263.415 85.523 263.373 85.405C263.334 85.285 263.254 83.451 263.254 83.451C263.254 83.451 262.334 82.376 262.298 82.218C262.259 82.058 261.579 83.614 261.579 83.614C261.579 83.614 260.543 82.218 260.66 82.174C260.779 82.137 260.183 80.782 260.183 80.782L258.115 78.395L257.996 77.158C257.996 77.158 258.992 76.08 259.15 76.04C259.308 76.001 260.742 75.803 260.903 76.323C261.063 76.836 262.258 78.595 262.258 78.833C262.258 79.071 264.087 80.663 264.289 80.623C264.485 80.584 265.2 80.981 265.443 81.141C265.681 81.3 266.156 81.579 266.357 81.781C266.556 81.976 267.074 81.86 267.074 81.86L268.389 81.659C268.389 81.659 269.463 80.623 269.506 80.823C269.541 81.026 270.777 81.105 270.619 81.38C270.459 81.66 270.663 82.459 270.777 82.697C270.901 82.938 276.274 83.774 276.274 83.774L278.748 84.092C278.748 84.092 281.371 83.851 281.531 83.851C281.689 83.851 283.368 84.014 283.526 83.968C283.682 83.933 286.073 86.559 286.073 86.559L288.304 87.679L288.819 87.637L287.551 88.196C287.551 88.196 287.983 89.192 287.983 89.31C287.983 89.43 290.216 91.024 290.216 91.024C290.216 91.024 291.011 90.503 291.13 90.503C291.252 90.503 291.809 90.305 291.85 90.026C291.889 89.748 291.728 88.953 291.928 88.873C292.131 88.793 292.404 88.552 292.451 88.913C292.486 89.269 292.972 92.695 292.889 92.732C292.802 92.779 293.565 95.324 293.565 95.443C293.565 95.563 294.561 98.672 294.598 98.791C294.639 98.909 296.27 102.414 296.389 102.534C296.506 102.654 298.103 106.794 298.103 106.794C298.103 106.794 299.021 108.508 298.98 108.789C298.941 109.068 299.3 110.421 299.54 110.581C299.778 110.74 300.851 111.139 300.851 111.139C300.851 111.139 301.447 110.618 301.491 110.462C301.527 110.304 301.968 109.587 302.123 109.349C302.284 109.106 303.008 109.031 303.044 109.188C303.081 109.349 303.922 109.746 303.922 109.746L303.835 111.696C303.835 111.696 303.999 112.967 304.116 113.453C304.242 113.93 305.234 114.328 305.234 114.328L306.429 113.253L306.945 111.416L305.754 109.627C305.754 109.627 304.84 108.632 304.719 108.509C304.598 108.394 303.835 108.275 303.835 108.275C303.835 108.275 303.922 108.674 303.999 108.83C304.082 108.99 303.835 109.032 303.835 109.032L302.921 108.675L303.081 107.63C303.081 107.63 303.766 107.513 303.883 107.513C303.999 107.513 303.835 105.921 303.835 105.921C303.835 105.921 304.082 103.096 304.162 103.016C304.242 102.933 304.041 100.148 303.722 100.03C303.407 99.91 303.722 98.995 303.883 98.954C304.041 98.912 305.594 98.357 305.594 98.357L306.467 96.644C306.467 96.644 308.025 95.566 308.144 95.486C308.261 95.406 310.052 93.498 310.052 93.255C310.052 93.02 310.256 92.422 310.731 92.337C311.21 92.262 312.089 91.624 312.089 91.624V90.308C312.089 90.308 312.247 89.671 312.605 89.513C312.96 89.353 313.878 89.232 313.878 89.232C313.878 89.232 314.08 89.751 313.958 89.829C313.837 89.911 315.988 89.232 315.988 89.232C315.988 89.232 316.943 89.232 317.103 89.194C317.266 89.152 317.743 88.439 317.743 88.439C317.743 88.439 317.539 87.798 317.816 87.956C318.1 88.121 318.778 88.836 318.7 88.956C318.615 89.07 319.095 89.869 318.979 90.187C318.856 90.505 320.81 92.661 320.81 92.661C320.81 92.661 321.762 92.22 321.685 92.539C321.602 92.857 321.408 93.856 321.408 93.856C321.408 93.856 322.006 94.252 322.242 94.293C322.482 94.332 323.159 95.646 323.159 95.646C323.159 95.646 322.999 96.838 322.999 96.998C322.999 97.158 323.085 98.315 323.038 98.515C322.999 98.713 324.671 99.077 324.671 99.077C324.671 99.077 325.993 97.993 326.073 97.871ZM207.967 38.68L209.284 37.564L209.565 36.487C209.565 36.487 210.797 36.688 210.834 36.847C210.873 37.004 211.157 36.487 211.47 36.768C211.792 37.046 212.191 37.003 212.232 37.244C212.267 37.484 212.509 37.763 212.548 37.603C212.587 37.443 212.587 36.926 212.587 36.926C212.587 36.926 212.232 36.728 212.03 36.604C211.829 36.486 211.871 36.127 212.071 36.012C212.267 35.893 212.825 35.568 212.986 35.69C213.146 35.806 213.864 35.531 213.864 35.531C213.864 35.531 213.983 35.288 214.061 35.174C214.144 35.05 214.542 33.977 214.542 33.977C214.542 33.977 214.258 33.858 214.18 33.498C214.1 33.142 214.62 32.105 214.742 32.067C214.856 32.026 216.416 31.108 216.416 31.108C216.416 31.108 217.012 30.469 216.773 30.273C216.532 30.071 214.741 29.196 214.741 28.997C214.741 28.798 214.542 27.762 214.658 27.366C214.779 26.969 215.498 26.209 215.616 26.049C215.737 25.894 216.613 24.817 216.773 24.853C216.933 24.896 217.529 24.773 217.685 24.697C217.848 24.614 219.238 23.978 219 23.939C218.762 23.899 219.081 23.183 218.959 23.222C218.84 23.261 219.081 22.307 219.36 22.228C219.637 22.149 220.114 21.79 220.239 21.79C220.351 21.79 221.314 21.83 221.552 21.869C221.79 21.909 222.626 21.512 222.745 21.869C222.864 22.227 223.18 22.307 222.905 22.426C222.626 22.546 221.989 23.104 221.59 23.46C221.194 23.817 219.996 24.619 219.836 24.655C219.68 24.697 219.593 24.774 219.277 24.976C218.959 25.171 218.959 24.698 218.883 25.452C218.8 26.21 218.684 27.045 218.84 27.327C219 27.605 219.117 28.043 218.959 28.243C218.801 28.443 218.918 28.562 218.959 28.92C219 29.278 219.486 29.436 219.52 29.596C219.557 29.755 220.194 30.073 220.194 30.073C220.512 30.037 220.879 29.996 220.952 30.156C221.035 30.315 221.195 30.236 221.195 30.236L221.866 30.073C221.866 30.073 222.547 29.675 222.787 29.715C223.025 29.755 223.342 29.636 223.621 29.715C223.9 29.795 225.093 29.397 225.257 29.436C225.415 29.48 226.527 28.999 226.61 29.159C226.69 29.318 227.288 29.278 227.288 29.278L227.767 29.636C227.767 29.874 227.288 30.431 227.171 30.514C227.05 30.592 226.653 30.915 226.414 30.832C226.176 30.755 226.012 30.872 225.694 30.755C225.375 30.633 224.777 30.471 224.616 30.471C224.457 30.471 222.589 30.915 222.589 30.915L221.636 31.191L221.471 31.751L221.592 31.87L222.548 32.466C222.548 32.667 222.949 32.546 222.866 33.024C222.788 33.501 222.747 33.7 222.628 33.938C222.506 34.178 222.03 34.616 221.911 34.336C221.792 34.058 221.197 33.54 221.036 33.421C220.88 33.302 220.402 33.381 220.116 33.381C219.839 33.381 219.28 33.78 219.28 34.218C219.28 34.655 219.003 35.218 219.12 35.649C219.241 36.093 219.761 36.651 219.523 36.928C219.28 37.208 218.726 37.407 218.488 37.525C218.25 37.645 217.688 38.043 217.491 38.122C217.292 38.201 216.694 38.44 216.573 38.162C216.456 37.882 216.216 37.445 216.216 37.445C216.216 37.445 216.017 37.049 215.934 37.168C215.863 37.283 215.418 37.328 215.418 37.328L214.387 37.725C214.387 37.725 213.825 38.122 213.708 38.202C213.585 38.281 212.989 38.281 212.75 38.4C212.512 38.521 211.794 39.118 211.597 38.839C211.395 38.562 211.28 39.038 211.034 38.6C210.801 38.163 210.877 37.684 210.596 37.766C210.321 37.846 209.679 38.004 209.604 38.163C209.521 38.322 209.442 38.322 209.288 38.481C209.128 38.639 207.971 38.759 207.971 38.759V38.68H207.967ZM240.971 68.176C240.673 68.954 240.673 69.968 240.252 70.746C239.832 71.519 239.653 71.937 239.356 72.421C239.056 72.893 239.056 73.553 238.58 73.851C238.103 74.152 237.387 74.569 236.968 74.271C236.553 73.971 234.878 74.032 234.694 74.092C234.517 74.152 232.488 74.032 232.247 74.447C232.009 74.867 230.461 74.569 230.214 74.447C229.976 74.329 227.05 73.132 226.812 73.075C226.574 73.016 225.074 72.36 224.833 72.181C224.595 72 223.104 71.818 223.046 71.64C222.985 71.46 223.165 71.222 222.922 71.282C222.688 71.337 220.952 71.879 220.714 72.054C220.471 72.24 219.941 72.717 219.941 72.717C219.941 72.717 219.218 73.433 219.278 73.97C219.342 74.508 219.997 74.926 219.759 75.224C219.521 75.522 218.685 75.88 218.685 75.88C218.685 75.88 217.783 75.045 217.489 74.926C217.19 74.806 214.385 74.389 214.385 74.389L213.249 73.075C213.249 73.075 211.457 71.879 211.277 71.819C211.096 71.76 209.125 71.819 208.823 71.581C208.523 71.338 207.568 70.086 207.092 70.147C206.613 70.206 206.794 69.43 206.973 69.311C207.151 69.192 207.689 68.176 207.63 67.997C207.568 67.816 207.928 66.804 207.332 66.506C206.735 66.2 207.151 65.185 207.151 65.185C207.151 65.185 207.75 65.066 207.511 65.066C207.272 65.066 206.376 65.126 206.135 64.828C205.9 64.529 205.833 64.411 205.601 64.529C205.357 64.65 203.863 64.888 203.686 64.828C203.505 64.769 202.074 64.947 201.835 64.947C201.597 64.947 201.895 65.008 201.597 64.947C201.294 64.887 200.098 65.428 200.04 65.663C199.985 65.902 198.789 65.608 198.608 65.663C198.426 65.723 196.695 65.723 196.695 65.723L193.825 66.201C193.825 66.201 191.914 67.163 191.855 67.461C191.795 67.76 191.197 68.238 191.019 68.354C190.842 68.475 189.767 68.354 189.701 68.176C189.645 67.997 187.73 68.238 187.73 68.238C187.73 68.238 186.955 67.817 186.716 67.998C186.478 68.177 186.478 67.219 186.478 67.219L186.776 66.508L187.85 65.789L190.423 65.307L191.678 64.474L192.451 64.175L192.927 62.922C192.927 62.922 193.824 62.743 193.764 62.561C193.705 62.382 193.47 61.545 193.47 61.545L195.199 58.858L197.648 57.662L198.067 56.825C198.067 56.825 197.832 55.751 198.008 55.569C198.186 55.389 199.8 55.03 199.8 55.03L201.833 55.688C201.833 55.688 202.907 54.973 203.145 54.853C203.383 54.732 204.521 54.077 204.521 54.077C204.521 54.077 204.637 53.54 204.877 53.599C205.116 53.658 206.132 53.42 206.254 53.898C206.373 54.376 207.269 55.871 207.269 55.871L208.642 57.306L209.959 58.322L211.573 58.917C211.573 58.917 212.527 59.754 212.705 59.814C212.884 59.872 213.779 60.891 213.779 60.891L214.256 61.724C214.256 61.724 213.959 62.384 213.72 62.684C213.482 62.979 212.765 63.759 212.585 63.695C212.405 63.64 211.028 63.401 211.028 63.401L209.536 63.579C209.536 63.579 209.301 63.938 209.718 64.236C210.136 64.534 210.613 64.476 211.029 64.714C211.454 64.952 212.528 65.433 212.528 65.433C212.528 65.433 213.247 65.549 213.247 65.727C213.247 65.907 213.483 65.249 213.423 64.832C213.364 64.415 213.302 63.879 213.721 63.758C214.142 63.639 214.796 63.758 214.796 63.577C214.796 63.399 214.979 63.157 214.979 63.157L215.516 62.505L215.456 62.088L215.997 61.663C215.997 61.663 215.699 61.312 215.456 61.009C215.22 60.709 214.979 60.53 215.152 60.231C215.335 59.934 215.93 59.514 216.235 59.754C216.532 59.992 217.426 60.111 217.366 60.412C217.309 60.708 217.366 61.125 217.488 60.89C217.603 60.649 217.548 59.693 217.548 59.693C217.548 59.693 217.069 59.038 216.65 58.978C216.236 58.916 215.152 58.38 214.856 58.261C214.559 58.141 214.023 57.844 214.023 57.844C214.023 57.844 214.259 57.187 213.906 57.247C213.544 57.306 212.47 57.124 212.47 56.948C212.47 56.765 211.393 55.927 211.338 55.752C211.278 55.569 210.319 54.256 210.319 54.256C210.319 54.256 209.778 53.719 209.721 53.54C209.659 53.36 209.602 53.061 209.482 52.585C209.359 52.107 210.675 50.912 210.616 51.09C210.555 51.266 210.916 51.508 211.158 52.045C211.393 52.585 212.35 53.48 212.47 53.838C212.588 54.195 213.906 55.214 214.2 55.33C214.504 55.448 214.677 55.81 215.277 56.048C215.877 56.288 215.819 56.403 216.594 56.764C217.367 57.123 217.489 57.246 217.604 57.421C217.728 57.603 218.202 57.544 218.385 57.842C218.563 58.139 218.802 58.2 218.802 58.498C218.802 58.795 219.045 58.795 218.919 59.393C218.802 59.99 218.624 60.169 218.685 60.288C218.745 60.41 219.821 62.622 220.24 62.622C220.657 62.622 221.91 63.1 221.731 63.814C221.553 64.53 222.506 65.487 222.506 65.487C222.506 65.487 223.305 65.538 223.857 65.63C223.88 65.213 223.792 64.544 224.245 64.291C224.777 63.992 225.555 63.691 225.434 63.396C225.312 63.098 225.193 62.558 224.717 62.202C224.245 61.845 223.761 61.659 223.642 61.068C223.525 60.469 223.343 59.689 223.88 59.93C224.417 60.167 224.896 61.308 225.14 60.526C225.375 59.751 225.971 59.212 226.388 59.392C226.811 59.571 227.588 59.869 227.528 60.108C227.467 60.347 228.065 62.262 228.065 62.262C228.065 62.262 228.303 62.443 228.422 63.337C228.541 64.231 229.317 64.471 229.2 64.77C229.079 65.066 228.719 65.245 229.679 65.367C230.63 65.487 231.531 65.664 231.531 65.903C231.531 66.143 232.307 66.267 232.427 66.443C232.544 66.623 233.261 66.98 233.382 66.623C233.501 66.268 233.741 65.545 233.92 65.665C234.099 65.789 235.592 65.789 235.713 66.269C235.837 66.74 236.85 66.74 236.85 66.867C236.85 66.982 237.746 66.568 237.746 66.568C237.746 66.568 238.999 65.61 239.358 65.789C239.715 65.968 240.728 65.128 240.609 65.905C240.492 66.682 241.271 67.401 240.971 68.176ZM246.944 57.66C246.768 57.841 245.629 58.974 245.629 58.974L243.358 58.674H241.806L240.492 58.198C240.492 58.198 239.594 57.9 239.416 57.719C239.234 57.54 238.103 57.12 238.103 57.12L235.711 57.659L233.857 58.198L233.204 58.793L230.992 58.257L229.679 57.601L228.958 56.822H229.616L229.382 55.867L229.497 55.211L230.092 54.85L230.513 53.119L231.232 52.82L231.409 51.926C231.409 51.926 232.008 51.385 232.189 51.206C232.368 51.029 232.965 50.189 232.965 50.189L234.395 50.788C234.395 50.788 235.889 50.969 235.651 51.03C235.408 51.088 234.693 51.927 234.693 51.927C234.693 51.927 235.231 52.221 235.478 52.404C235.711 52.583 236.252 52.879 236.131 53.24C236.01 53.597 237.027 53.538 237.027 53.538L237.386 52.941L239.056 52.524L239.654 52.222L238.697 51.928C238.697 51.928 237.861 51.626 237.982 51.446C238.103 51.265 238.878 50.071 238.878 50.071C238.878 50.071 240.851 49.476 241.028 49.476C241.203 49.476 242.406 49.237 242.406 49.237C242.406 49.237 241.45 50.192 241.327 50.373C241.203 50.554 241.389 51.147 241.089 51.389C240.793 51.627 240.369 51.869 240.193 51.93C240.01 51.985 240.13 52.585 240.31 52.646C240.494 52.707 241.089 52.944 241.089 52.944L243.719 54.316L245.331 55.928L246.59 56.949C246.589 56.945 247.123 57.482 246.944 57.66ZM262.124 65.544L260.624 65.723C260.624 65.723 259.312 65.185 259.256 64.948C259.191 64.71 258.894 64.172 258.714 64.291C258.536 64.412 257.939 64.471 257.761 64.412C257.583 64.351 256.92 63.814 256.92 63.575C256.92 63.338 256.738 62.801 257.039 62.559C257.341 62.321 257.938 61.905 257.817 61.721C257.702 61.544 257.636 60.773 257.636 60.647C257.636 60.527 257.636 60.41 257.998 60.349C258.355 60.288 258.355 60.288 258.355 60.288C258.355 60.288 258.474 59.932 258.294 59.752C258.116 59.572 257.037 58.795 256.918 58.617C256.806 58.439 255.484 57.185 255.306 57C255.129 56.825 254.351 56.288 254.351 56.288L253.933 55.389L254.29 54.255L253.218 54.016L252.98 53.242V53.061L254.111 51.749C254.111 51.749 254.891 51.332 255.068 51.446C255.247 51.57 255.663 51.089 255.732 50.91C255.785 50.727 256.919 49.951 257.162 49.832C257.399 49.714 257.816 49.176 258.058 49.475C258.294 49.772 259.787 50.253 259.787 50.253C259.787 50.253 260.329 50.371 260.264 50.607C260.206 50.85 259.727 52.404 259.727 52.404C259.727 52.404 258.655 52.105 258.536 52.165C258.42 52.222 257.583 52.524 257.761 53.001C257.939 53.479 257.105 53.18 257.163 53.419C257.22 53.656 257.341 54.015 257.522 54.135C257.702 54.254 258.713 54.791 258.834 55.15C258.951 55.511 260.623 56.586 260.623 56.586C260.623 56.586 260.804 56.704 260.744 56.947C260.688 57.185 260.565 58.439 260.744 58.439C260.923 58.439 261.339 58.378 261.339 58.378C261.339 58.378 261.882 57.245 262.062 57.365C262.24 57.483 262.958 58.02 263.137 58.438C263.312 58.856 263.674 59.272 263.494 59.392C263.311 59.51 262.477 59.452 262.239 59.452C262.004 59.452 261.581 59.153 261.462 59.272C261.339 59.392 261.105 59.69 261.282 60.047C261.462 60.409 261.823 60.945 262.004 61.068C262.18 61.185 262.357 61.122 262.899 61.606C263.436 62.084 263.614 62.32 263.436 62.859C263.256 63.396 263.375 63.875 263.436 64.052C263.495 64.231 263.614 64.649 263.736 64.828C263.852 65.008 263.852 65.245 263.852 65.245L262.124 65.544ZM240.563 17.773C240.542 17.765 240.519 17.765 240.511 17.765C240.492 17.773 240.515 17.773 240.563 17.773ZM385.742 30.155C385.747 30.146 385.738 30.13 385.728 30.118C385.733 30.159 385.733 30.179 385.742 30.155ZM277.995 9.995C277.995 9.995 278.02 9.989 278.068 9.966C278.027 9.929 277.999 9.901 277.995 9.883C277.956 9.72 277.995 9.995 277.995 9.995ZM261.066 143.438C261.066 143.438 259.788 144.876 259.712 145.118C259.628 145.353 258.597 146.628 258.432 147.025C258.272 147.423 257.002 148.298 257.002 148.298L254.691 149.255C254.691 149.255 253.896 149.335 254.133 149.658C254.133 149.658 253.973 150.291 253.419 151.01C252.859 151.725 253.419 152.68 253.419 152.68L253.734 154.273V155.789C253.734 155.789 253.255 157.462 253.017 157.54C252.781 157.622 252.382 158.099 252.144 158.897C251.902 159.692 251.984 160.25 251.984 160.25C251.984 160.25 252.144 161.445 251.902 161.686C251.659 161.924 252.3 163.117 252.543 163.52C252.781 163.915 253.419 164.153 253.419 164.153C253.419 164.153 253.973 164.633 254.214 164.79C254.452 164.95 255.646 164.478 255.646 164.478C255.646 164.478 256.525 164.08 256.761 163.917C257.001 163.754 257.162 163.679 257.636 162.882C258.117 162.085 257.799 162.323 257.874 162.085C257.959 161.847 258.431 160.808 258.674 159.455C258.912 158.1 258.994 158.18 259.311 156.986C259.627 155.79 260.026 155.469 260.106 154.518C260.186 153.561 260.264 153.16 260.342 152.839C260.424 152.523 261.224 151.329 261.3 150.53C261.378 149.737 261.378 149.336 261.224 149.02C261.066 148.697 262.18 148.935 262.336 148.458C262.499 147.979 262.336 148.458 262.418 148.223C262.499 147.98 262.581 146.469 262.581 145.594C262.581 144.718 261.704 143.358 261.616 143.124C261.543 142.884 261.066 143.438 261.066 143.438ZM340.65 131.889C340.893 131.252 340.65 131.172 340.493 130.854C340.335 130.536 340.808 129.104 341.448 128.544C342.085 127.985 341.13 127.903 341.13 127.903L340.174 128.063L339.297 126.39C339.297 126.39 337.783 125.199 337.307 124.878C336.828 124.562 338.019 123.921 338.019 123.921C338.019 123.921 335.317 121.372 334.997 121.372C334.679 121.372 333.082 120.099 332.844 120.016C332.606 119.939 331.332 117.786 331.332 117.786L325.912 115.079C325.912 115.079 325.197 115.719 325.197 116.034C325.197 116.353 326.154 116.512 326.154 116.512C326.154 116.512 326.47 116.75 326.789 116.911C327.107 117.071 328.062 117.866 328.143 118.427C328.22 118.982 328.383 119.302 328.94 119.777C329.501 120.256 330.452 120.499 330.452 120.499C330.452 120.499 330.855 121.851 331.174 122.011C331.49 122.171 331.731 122.885 331.886 123.286C332.047 123.684 333.563 126.153 333.477 127.029C333.401 127.906 334.599 129.979 334.599 129.979C334.599 129.979 337.308 132.127 337.388 132.448C337.466 132.764 339.451 133.324 339.451 133.324C339.451 133.324 340.412 132.525 340.65 131.889ZM359.134 115.556C359.134 115.238 358.257 114.523 358.016 114.202C357.778 113.881 356.346 112.607 356.028 112.369C355.712 112.131 356.028 112.369 355.551 113.249C355.074 114.124 354.514 115.159 354.273 115.237C354.033 115.317 352.285 116.431 351.804 116.988C351.327 117.545 350.374 118.981 350.056 118.748C349.738 118.505 348.377 119.776 348.377 119.776L347.662 121.529L345.43 121.054L345.588 121.773C345.588 121.773 344.875 122.883 345.035 123.127C345.195 123.366 345.035 124.244 345.273 124.717C345.509 125.199 345.75 125.516 346.148 125.834C346.546 126.152 346.625 127.188 346.386 127.985C346.147 128.782 346.707 128.94 347.023 129.263C347.341 129.579 348.057 129.661 348.377 129.418C348.695 129.178 349.334 129.103 349.737 129.341C350.127 129.579 351.169 129.579 351.485 129.978C351.803 130.376 353.079 130.136 353.315 130.376C353.558 130.614 354.832 130.136 355.148 129.813C355.463 129.501 355.148 128.865 355.148 127.825C355.148 126.79 355.308 126.87 355.869 126.471C356.426 126.073 356.824 125.754 356.902 125.2C356.985 124.639 357.143 123.684 357.143 123.205C357.143 122.726 358.418 122.808 358.654 122.647C358.9 122.487 358.494 122.17 358.494 121.932C358.494 121.69 357.459 120.577 357.223 120.178C356.985 119.777 357.619 117.786 358.015 117.468C358.419 117.149 359.134 115.875 359.134 115.556ZM347.981 136.986C348.218 137.066 348.775 137.066 349.966 137.384C351.168 137.702 352.283 137.784 352.44 138.101C352.6 138.417 353.631 138.101 354.115 138.023C354.592 137.941 355.711 136.905 356.426 137.703C357.144 138.5 358.575 137.941 358.815 138.101C359.053 138.256 359.776 137.703 360.647 137.785C361.525 137.861 361.605 138.101 361.843 138.101C362.081 138.101 362.878 138.341 363.277 138.256C363.676 138.179 364.152 137.702 364.87 137.784C365.591 137.86 367.497 137.222 367.497 137.222C367.497 137.222 367.497 137.303 367.025 137.621C366.544 137.939 364.95 139.132 364.95 139.132C364.95 139.132 364.71 138.975 364.629 139.455C364.552 139.932 364.075 140.89 364.552 140.487C365.032 140.094 366.705 138.658 367.104 138.34C367.498 138.022 367.658 137.86 368.057 137.621C368.455 137.383 369.33 137.142 369.33 137.142L369.891 136.744C369.891 136.744 369.411 136.428 369.17 136.506C368.936 136.589 368.533 136.19 367.979 136.428C367.419 136.666 365.908 136.905 365.908 136.905C365.908 136.905 364.951 137.066 364.394 136.828C363.837 136.59 363.196 136.19 362.959 136.507C362.721 136.828 361.367 137.224 361.124 137.224C360.889 137.224 360.011 137.144 359.374 136.987C358.736 136.829 358.576 136.829 358.258 136.829C357.94 136.829 357.94 136.591 357.064 136.508C356.185 136.43 355.942 136.192 355.712 136.27C355.465 136.353 355.075 136.43 354.757 136.591C354.435 136.746 353.475 136.746 353.243 136.508C353 136.27 350.608 135.793 350.608 135.793C350.608 135.793 350.292 135.395 351.011 135.156C351.726 134.918 351.57 134.918 351.486 134.601C351.408 134.277 350.21 134.277 349.896 134.363C349.578 134.437 348.776 134.601 348.458 134.277C348.142 133.965 347.185 133.159 346.869 133.639C346.548 134.118 346.709 134.757 346.388 134.679C346.072 134.601 343.916 134.837 343.916 134.601C343.916 134.363 343.359 133.722 343.119 133.639C342.881 133.562 342.961 133.324 342.564 133.159C342.164 133.008 341.369 133.241 341.369 133.241L340.574 133.324L339.616 134.437C339.616 134.437 341.847 134.679 342.086 134.996C342.324 135.316 343.52 136.269 343.52 136.269C343.52 136.269 345.11 136.667 345.511 136.746C345.91 136.828 347.743 136.905 347.981 136.986ZM345.355 92.295C345.108 92.137 344.476 92.137 344.476 92.137L343.678 92.454L343.28 92.295L342.401 93.492C342.401 93.492 342.641 94.844 342.88 94.844C343.119 94.844 343.995 94.844 343.995 94.844L344.875 94.208L345.355 93.015C345.355 93.015 345.588 92.455 345.355 92.295ZM358.257 89.109L358.736 88.151C358.736 88.151 358.976 87.195 359.053 86.957C359.134 86.714 359.449 85.999 359.216 85.601C358.976 85.203 359.134 84.647 358.976 84.328C358.815 84.012 358.736 83.532 358.736 83.532L357.939 83.849C357.621 84.167 357.144 85.601 357.144 85.601C357.144 85.601 356.825 87.04 357.063 87.351C357.301 87.676 357.939 88.549 357.939 88.549L358.257 89.109ZM368.294 113.086C369.011 113.327 369.251 113.171 369.169 112.844C369.091 112.526 368.851 110.856 368.692 110.221C368.532 109.584 369.647 109.103 368.454 108.15C367.261 107.19 367.341 107.275 367.261 107.19C367.18 107.11 367.18 106.315 367.18 106.315C367.18 106.315 367.418 105.52 367.261 105.282C367.103 105.044 366.942 104.565 366.782 104.327C366.622 104.087 366.622 104.009 366.143 104.009C365.666 104.009 365.666 103.45 365.348 103.527C365.032 103.607 364.233 104.243 364.789 103.293C365.348 102.331 365.031 102.173 365.031 102.013C365.031 101.855 364.628 101.617 364.232 101.538C363.836 101.456 363.514 100.979 362.958 101.138C362.401 101.302 362.163 100.902 361.843 100.902C361.525 100.902 361.366 100.501 361.288 100.027C361.206 99.548 361.366 98.591 361.366 98.354C361.366 98.112 361.843 97.396 361.843 97.396C361.843 97.396 362.003 97.074 361.843 96.519C361.685 95.963 361.366 95.006 361.366 94.609C361.366 94.211 360.486 93.812 360.486 93.812L359.449 94.21L359.053 97.716C359.053 97.716 358.337 97.952 358.419 98.27C358.494 98.591 358.494 100.105 358.895 100.423C359.291 100.738 359.932 101.138 359.932 101.138C360.088 101.538 359.696 102.331 359.696 102.331C359.696 102.331 360.647 103.451 360.732 103.771C360.808 104.087 361.289 103.926 361.289 103.926C361.289 103.926 361.051 101.776 361.525 102.172C362.004 102.572 363.277 102.497 363.355 102.971C363.438 103.45 364.313 103.926 364.468 104.407C364.628 104.885 365.666 105.045 365.59 105.439C365.508 105.839 364.869 105.839 364.468 105.918C364.074 105.998 362.798 105.045 362.798 105.045C362.798 105.045 362.48 104.965 362.402 105.44C362.324 105.919 362.56 107.112 362.879 107.51C363.195 107.911 363.516 107.51 363.677 107.748C363.837 107.991 363.677 108.548 363.917 108.868C364.152 109.186 364.79 109.264 365.032 109.104C365.27 108.948 366.067 108.547 366.067 108.547C366.067 108.547 365.983 107.592 365.667 107.429C365.349 107.271 364.87 106.792 365.112 106.557C365.348 106.316 365.825 105.839 366.067 105.917C366.301 105.997 366.865 107.033 366.782 107.271C366.705 107.509 366.782 107.592 367.103 108.465C367.418 109.347 367.58 109.186 367.18 109.347C366.782 109.502 366.385 109.984 366.143 110.142C366.09 110.179 366.082 110.202 366.09 110.217C366.032 110.198 365.879 110.17 365.508 110.142C364.468 110.062 364.709 109.585 364.468 110.062C364.233 110.539 363.991 110.937 363.991 110.937L363.437 111.175C363.437 111.175 363.036 112.448 363.116 112.845C363.194 113.25 363.194 113.25 363.194 113.25C363.194 113.25 363.991 111.733 364.232 111.733C364.467 111.733 364.467 112.131 364.789 111.891C365.111 111.653 365.43 111.815 365.43 111.815C365.43 111.815 365.907 111.573 365.825 112.208C365.752 112.845 365.752 112.925 365.983 113.57C366.228 114.203 366.865 114.523 367.103 114.761C367.341 114.999 367.657 115.159 367.818 115.318C367.978 115.476 368.056 114.601 367.978 113.964C367.895 113.327 367.579 112.844 368.294 113.086ZM362.72 122.726C363.602 123.205 364.152 123.446 364.869 123.684C365.59 123.922 366.301 123.205 366.463 123.367C366.621 123.524 367.341 122.807 367.341 122.807C367.341 122.807 367.895 122.01 367.818 121.774C367.738 121.53 367.657 120.815 367.497 121.055C367.342 121.291 365.825 122.17 365.509 122.247C365.193 122.327 364.394 122.01 363.677 122.01C362.959 122.01 361.207 121.451 360.964 121.69C360.733 121.932 360.011 122.884 360.089 123.286C360.171 123.684 360.089 123.923 360.089 124.165C360.089 124.403 359.851 125.517 359.851 125.2L358.737 128.142C358.737 128.142 359.611 130.377 359.535 130.776C359.451 131.172 359.293 133.406 359.535 133.163C359.777 132.921 360.965 132.765 360.965 132.765C360.965 132.765 361.368 131.331 361.29 130.695C361.208 130.058 360.488 128.065 361.125 128.225C361.767 128.385 362.403 129.18 362.403 129.18C362.403 129.18 361.923 129.663 362.083 129.98C362.243 130.297 362.8 130.695 362.722 131.412C362.642 132.129 362.96 132.449 362.96 132.207C362.96 131.969 363.758 132.367 363.838 132.527C363.906 132.67 364.66 132.003 364.777 132.009C364.786 131.771 364.905 130.794 364.711 130.536C364.47 130.218 364.47 129.741 363.918 129.104C363.356 128.46 364.076 128.306 363.517 127.583C362.96 126.871 362.722 127.109 362.96 126.871C363.196 126.63 363.678 126.472 364.076 126.233C364.47 125.993 364.791 125.358 364.791 125.358C364.871 125.12 365.033 125.2 364.395 125.04C363.758 124.88 363.197 124.718 362.8 125.2C362.404 125.675 362.005 125.755 362.005 125.755C362.005 125.755 362.005 125.755 361.687 125.835C361.369 125.915 361.447 125.358 361.208 125.278C360.965 125.2 360.965 125.12 360.81 124.563C360.649 124.004 360.81 123.127 361.052 122.964C361.288 122.807 361.843 122.247 362.72 122.726ZM364.789 132.047C364.798 132.02 364.789 132.01 364.775 132.008C364.771 132.062 364.775 132.093 364.789 132.047ZM396.017 132.047C395.941 131.568 395.857 131.012 395.625 130.615C395.38 130.217 390.2 127.504 389.563 127.266C388.926 127.028 385.588 125.992 385.588 125.992C385.588 125.992 383.989 126.629 383.989 126.87C383.989 127.108 383.191 127.985 382.871 128.306C382.556 128.622 382.634 128.941 382.157 128.863C381.677 128.783 381.602 128.863 381.355 128.623C381.124 128.385 380.881 127.583 380.563 127.348C380.242 127.11 379.607 126.791 379.761 126.154C379.925 125.517 380.159 124.642 379.683 124.642C379.207 124.642 378.492 124.963 378.331 124.718C378.171 124.484 377.218 124.564 377.218 124.564L375.229 125.121L374.982 125.201C374.982 125.201 375.862 126.872 376.423 126.711C376.98 126.554 378.013 127.827 378.013 127.827C378.013 127.827 377.697 128.546 377.855 128.784C378.013 129.022 378.652 130.219 378.652 130.219L379.925 130.139L381.199 130.696L384.627 131.811L385.587 132.922L386.144 135.318C386.144 135.318 384.706 136.271 384.788 136.67C384.866 137.069 386.621 136.593 386.621 136.593L388.053 137.308L389.801 138.183L391.798 138.26L392.989 136.908C392.989 136.908 394.739 135.396 394.739 135.715C394.739 136.034 396.336 136.67 396.576 137.388C396.819 138.105 398.25 139.383 398.25 139.383C398.25 139.383 400.238 140.02 400.479 140.1C400.715 140.174 401.277 140.258 401.837 140.416C402.394 140.575 401.276 138.979 401.276 138.979C401.276 138.979 399.521 137.944 399.443 137.545C399.365 137.146 397.931 135.955 398.011 135.556C398.089 135.158 397.369 134.681 397.692 134.681C398.011 134.681 399.283 134.523 399.125 134.279C398.967 134.045 398.09 132.528 397.692 132.528C397.295 132.525 396.101 132.525 396.017 132.047ZM398.728 158.973C398.728 158.973 397.853 158.578 397.773 158.737C397.694 158.897 397.372 157.223 397.372 157.223L397.532 156.348C397.532 156.348 395.139 153.317 395.066 153.56C394.979 153.798 394.186 151.09 394.186 151.09L393.949 148.143L393.391 146.389L391.959 146.549L391.639 143.679L390.837 140.971L390.443 140.813L389.645 142.643C389.645 142.643 389.247 145.195 389.086 146.071C388.926 146.946 388.848 148.223 388.371 149.02C387.892 149.817 386.776 151.725 386.776 151.725C386.776 151.725 385.501 151.725 385.34 151.487C385.182 151.249 383.75 150.53 383.75 150.53L382.87 149.177L381.441 148.064C381.441 148.064 380.477 146.866 380.401 146.946C380.324 147.025 381.123 145.833 381.354 145.672C381.601 145.514 381.675 144.719 381.675 144.719L382.95 143.68C382.95 143.68 383.189 143.281 382.95 143.045C382.71 142.804 382.71 142.405 382.393 142.323C382.073 142.245 380.24 143.125 380.24 143.125L378.728 142.405C378.728 142.405 377.61 141.846 377.376 141.448C377.136 141.052 376.496 140.813 376.338 140.971C376.178 141.131 376.338 141.926 376.338 141.926C376.338 141.926 376.665 142.628 376.78 142.847C376.634 142.723 376.099 143.124 376.099 143.124L374.585 143.279L373.627 144.155L372.91 145.512L372.434 146.468C372.434 146.468 372.83 147.105 372.672 147.024C372.512 146.945 370.36 147.583 370.36 147.583C370.36 147.583 369.799 146.389 369.561 146.15C369.323 145.909 368.608 145.512 368.288 145.512C367.972 145.512 367.174 146.23 367.174 146.23L366.859 147.901L365.661 147.583L364.623 149.335L363.597 149.736L363.032 150.929L362.716 149.658L361.521 150.771L361.12 152.599C361.12 152.599 359.606 154.036 359.446 154.354C359.288 154.67 355.937 155.871 355.937 155.871L353.792 156.586C353.792 156.586 352.677 156.824 352.437 156.824C352.199 156.824 350.124 158.34 350.124 158.34L349.413 159.055L349.173 158.418L348.296 159.373V161.366L347.419 162.558L347.898 164.389L347.181 164.631L346.544 165.112L347.262 166.546L347.5 169.169C347.5 169.169 347.897 169.969 347.819 170.449C347.74 170.922 347.419 171.402 347.419 171.72C347.419 172.038 347.659 173.232 347.659 173.55C347.659 173.87 346.939 175.946 346.939 175.946L346.067 177.378L345.352 177.458C345.352 177.458 345.506 178.973 345.747 178.973C345.985 178.973 346.705 179.288 347.339 179.532C347.979 179.765 349.013 179.372 349.253 179.289C349.491 179.209 351.246 178.254 351.246 178.254C351.246 178.254 352.281 177.539 352.598 177.617C352.916 177.697 354.355 177.459 354.589 177.617C354.829 177.777 356.661 177.697 356.661 177.697L357.774 176.504L360.804 175.148L362.32 174.988L365.979 173.954L369.087 174.271C369.087 174.271 371.719 176.186 371.719 176.026C371.719 175.868 372.276 177.063 372.276 177.063L372.118 178.573C372.118 178.573 372.992 179.29 373.07 179.052C373.152 178.812 374.03 177.857 374.27 177.618C374.503 177.38 375.227 177.063 375.785 176.665C376.339 176.265 376.497 176.026 376.497 176.026C376.497 176.026 375.942 177.618 375.7 177.618C375.462 177.618 374.98 178.095 374.742 178.415C374.504 178.731 374.11 178.975 374.11 179.135C374.11 179.29 374.587 179.29 374.82 179.135C375.063 178.975 375.462 178.493 375.785 178.333C376.1 178.175 376.264 178.255 376.179 178.653C376.101 179.051 376.101 179.446 375.785 179.606C375.462 179.766 375.063 180.004 374.504 180.326C373.952 180.646 373.552 180.403 373.311 180.646C373.071 180.886 373.469 181.127 373.629 181.283C373.789 181.443 374.191 181.923 374.504 181.365C374.82 180.806 375.228 180.403 375.462 180.248C375.7 180.092 376.179 179.606 376.179 180.005C376.179 180.404 376.422 180.807 376.497 181.128C376.58 181.443 375.942 182.08 376.018 182.238C376.1 182.398 376.9 184.151 376.9 184.151C376.9 184.151 377.377 184.784 377.931 184.784C378.49 184.784 379.681 185.186 379.923 185.269C380.157 185.344 381.279 185.269 381.44 184.948C381.6 184.628 382.553 183.991 382.475 184.229C382.393 184.469 382.553 184.948 382.791 185.186C383.029 185.424 383.428 186.066 383.428 186.066L386.377 183.751C386.377 183.751 388.606 183.272 388.685 183.513C388.767 183.751 390.197 181.923 390.197 181.923L394.737 176.347L396.497 175.149L397.769 173.316L399.519 170.125L400.476 166.549L401.194 163.839L399.441 161.206L398.728 158.973ZM381.04 188.691C381.04 188.691 379.927 187.974 379.763 187.736V187.496L378.97 189.963L378.255 192.596C378.255 192.596 379.685 192.756 379.845 192.834C380.005 192.911 382.397 191.481 382.479 191.161C382.557 190.841 384.151 188.213 384.151 188.213C384.151 188.213 381.604 188.77 381.04 188.691ZM424.222 184.072L423.424 183.27C423.424 183.27 423.507 182.157 423.264 182.157C423.029 182.157 422.627 182.237 422.627 182.237L423.028 179.445L421.587 178.572L421.273 182.874L420.235 185.269L418.169 186.066C418.169 186.066 419.044 186.939 419.362 186.939C419.678 186.939 419.122 187.895 419.122 187.895L417.768 189.091C417.768 189.091 417.293 188.85 417.293 188.213C417.293 187.574 416.015 188.85 416.015 188.85L415.14 188.291L412.748 190.359L409.483 192.036L401.837 196.739L402.87 197.296C402.87 197.296 403.826 197.694 403.906 197.855C403.983 198.011 406.295 196.818 406.295 196.818L408.926 194.903L410.196 193.79C410.196 193.79 412.511 193.153 412.429 193.472C412.353 193.79 413.146 191.959 413.146 191.959L415.377 190.764L416.733 189.412L417.846 189.725L419.44 189.168L422.149 187.417L422.626 185.98L423.506 186.065L425.174 184.867L426.289 182.955L424.222 184.072ZM103.167 9.364C103.804 9.598 104.201 9.681 105.558 9.761C106.913 9.837 107.073 9.681 107.709 9.918C108.341 10.154 108.901 10.561 109.142 9.995C109.38 9.441 109.699 9.441 109.937 9.121C110.175 8.803 109.937 8.484 110.334 8.325C110.732 8.167 111.451 8.964 111.451 8.964C111.451 8.964 110.573 9.522 110.971 9.598C111.368 9.681 112.484 9.918 113.045 9.995C113.603 10.078 113.125 10.234 114.081 10.322C115.035 10.397 115.434 10.234 116.627 10.234C117.823 10.234 118.544 9.681 118.941 9.837C119.338 9.995 120.691 9.995 121.088 9.918C121.486 9.837 122.447 8.964 122.046 8.964C121.645 8.964 120.133 8.563 119.497 8.485C118.861 8.406 116.864 8.326 116.392 8.564C115.91 8.804 115.353 8.965 115.035 8.804C114.717 8.645 116.392 7.372 117.505 7.53C118.622 7.689 120.293 7.372 120.85 7.451C121.407 7.53 122.766 7.769 122.766 7.769C122.766 7.769 123.081 7.61 123.16 7.372C123.241 7.133 123.321 6.894 123.321 6.894L124.119 7.61C124.119 7.61 129.374 5.461 129.616 5.06C129.855 4.658 133.196 3.625 133.681 3.708C134.158 3.784 137.421 2.352 137.983 2.59C138.533 2.829 141.484 1.877 141.484 1.877C141.484 1.877 143.638 1.397 144.116 1.397C144.595 1.397 144.832 0.841 144.116 0.92C143.397 0.999 137.42 0.999 135.99 0.92C134.552 0.841 131.049 0.917 130.492 0.999C129.934 1.079 126.744 1.955 125.392 1.877C124.036 1.796 119.657 2.431 119.419 2.352C119.177 2.272 117.429 2.193 117.589 2.193C117.744 2.193 115.274 4.185 114.876 3.625C114.479 3.068 114.876 2.67 114.479 3.068C114.082 3.466 114.16 5.3 114.16 5.3C114.637 5.62 115.673 6.734 116.392 6.257C117.105 5.778 117.505 6.018 117.744 6.095C117.98 6.176 116.631 7.212 115.831 7.212C115.035 7.212 112.484 8.168 112.484 8.168C112.484 8.168 111.368 7.132 111.129 7.053C110.891 6.973 109.539 6.894 109.3 6.894C109.062 6.894 108.742 6.656 108.663 7.372C108.584 8.088 108.742 9.202 107.947 9.043C107.149 8.883 106.912 9.201 106.512 8.965C106.114 8.725 107.072 7.53 105.951 7.451C104.836 7.372 104.2 6.576 103.563 7.848C102.925 9.121 102.532 9.121 103.167 9.364ZM74.329 14.299C74.087 14.701 76.396 14.859 76.554 14.542C76.721 14.22 78.152 14.459 78.469 13.984C78.787 13.505 80.378 12.548 80.617 12.707C80.856 12.868 80.14 13.663 79.901 13.744C79.662 13.823 80.702 13.901 79.662 14.702C78.629 15.497 78.868 16.216 78.868 16.216C78.868 16.216 77.992 16.613 78.629 16.773C79.266 16.933 80.46 17.489 80.46 17.489C80.46 17.489 80.539 18.046 80.539 18.206C80.539 18.365 80.94 18.843 81.812 18.286C82.694 17.728 84.444 17.093 84.683 17.331C84.921 17.569 85.481 17.251 86.28 17.171C87.073 17.093 87.713 16.853 87.713 16.853L88.747 17.013C89.226 17.251 89.626 16.695 90.426 17.171C91.218 17.649 92.331 17.649 92.331 17.649C92.331 17.649 93.449 16.774 93.686 16.695C93.926 16.615 94.403 16.536 94.164 15.978C93.926 15.419 93.05 14.544 93.289 14.38C93.527 14.222 94.084 14.062 94.005 12.55C93.926 11.038 94.164 11.279 93.766 11.357C93.369 11.437 92.411 11.915 92.411 11.915L92.095 11.835C91.937 12.312 91.218 12.631 91.054 13.109C90.896 13.586 90.426 13.825 90.426 13.427C90.426 13.029 89.866 12.948 89.781 12.63C89.707 12.311 88.986 12.392 88.589 12.471C88.19 12.55 87.073 11.754 86.674 12.073C86.28 12.392 85.877 11.915 85.559 11.198C85.244 10.482 84.843 9.921 84.365 9.998C83.887 10.081 80.94 9.998 80.94 9.998L79.187 10.157C79.187 10.157 78.233 10.4 78.233 10.88C78.233 11.358 78.073 11.677 77.596 11.835C77.115 11.994 73.611 13.268 73.611 13.268C73.611 13.268 74.568 13.9 74.329 14.299ZM99.343 12.39L98.467 12.23C98.467 12.23 98.388 11.593 98.15 11.593C97.903 11.593 97.192 12.469 97.192 12.469C97.192 12.469 98.23 12.867 98.389 13.186C98.548 13.505 98.945 13.901 98.945 14.143C98.945 14.378 101.573 13.345 101.573 13.345L103.011 12.628C103.011 12.628 103.085 12.787 103.17 12.39C103.25 11.992 103.011 11.674 103.17 11.593C103.327 11.514 103.965 10.48 103.327 10.639C102.689 10.795 101.333 10.639 100.697 10.877C100.06 11.116 99.266 10.561 99.345 11.195C99.422 11.832 99.343 12.39 99.343 12.39ZM86.595 8.724C86.595 8.724 86.913 10.079 87.553 9.682C88.189 9.28 90.019 10.64 90.019 10.795C90.019 10.959 90.655 10.878 90.655 10.878L93.447 9.919L95.005 9.682C95.005 9.682 96.475 9.599 96.712 9.762C96.948 9.919 98.149 9.365 98.149 9.365L98.625 8.564L97.588 8.246L97.83 7.45C97.83 7.45 97.509 6.972 96.795 7.529C96.073 8.087 94.084 9.2 94.242 8.964C94.402 8.724 93.448 9.042 93.049 8.563C92.648 8.087 92.093 8.006 92.093 8.006C92.093 8.006 90.973 7.609 90.579 7.768C90.179 7.927 91.295 6.972 91.295 6.972C91.295 6.972 91.534 6.095 91.052 6.176C90.579 6.257 86.673 7.132 86.673 7.132C86.673 7.132 85 8.087 84.683 7.847C84.365 7.609 83.171 8.006 83.171 8.006L83.967 8.484C84.205 8.245 86.595 8.724 86.595 8.724ZM104.361 5.459C104.599 5.536 106.513 6.094 106.752 6.175C106.99 6.256 107.71 6.414 108.023 6.335C108.341 6.256 109.617 5.62 109.142 5.38C108.663 5.142 107.149 4.817 106.83 4.656C106.512 4.498 105.315 4.423 105.315 4.423L104.598 4.578C104.441 4.817 104.123 5.381 104.361 5.459ZM96.712 6.813C97.036 6.655 98.149 6.176 98.149 6.176L99.1 5.381L99.422 4.978C99.422 4.978 98.706 4.345 98.387 4.579C98.069 4.818 96.391 5.537 96.391 5.537L96.312 6.095L95.005 6.655C95.005 6.655 96.391 6.972 96.712 6.813ZM111.055 6.575C111.369 6.655 112.326 6.655 112.406 6.415C112.485 6.176 112.327 4.499 112.327 4.499C112.327 4.499 112.005 4.025 111.609 4.104C111.211 4.183 109.938 4.817 109.938 4.817C109.857 5.059 110.733 6.495 111.055 6.575ZM90.934 91.475C90.879 91.298 89.98 91.005 89.503 91.005C89.025 91.005 87.291 89.327 87.175 88.968C87.051 88.609 83.171 87.656 83.171 87.656C83.171 87.656 78.928 87.416 78.928 87.299C78.928 87.174 76.895 88.911 76.895 88.911V89.089C76.895 89.089 77.07 89.924 77.138 90.104C77.194 90.282 78.51 89.146 78.629 88.67C78.748 88.194 79.703 88.071 79.941 87.951C80.184 87.835 80.299 88.434 80.539 88.434C80.781 88.434 81.856 88.79 81.856 88.79L84.007 89.507L84.843 90.282C84.843 90.282 85.2 92.19 85.2 92.433C85.2 92.674 86.814 92.549 86.814 92.549L89.98 92.257C89.979 92.256 90.998 91.655 90.934 91.475ZM90.819 95.48C91.114 95.599 91.591 95.421 91.833 95.421C92.075 95.421 92.851 95.242 92.851 95.242C92.851 95.242 93.089 95.78 93.089 95.96C93.089 96.136 94.342 95.898 94.342 95.718C94.342 95.538 94.641 95.062 94.641 95.062L96.132 94.764C96.132 94.764 98.167 94.824 98.345 94.824C98.525 94.824 98.645 94.466 98.283 93.809C97.928 93.15 96.908 93.027 96.669 92.548C96.43 92.074 95.297 92.377 94.997 92.548C94.699 92.729 93.029 92.136 92.548 92.136C92.074 92.136 92.548 92.673 92.548 92.673L92.368 94.405H90.398L90.337 94.583C90.337 94.583 89.798 94.763 89.798 95.122C89.8 95.48 90.517 95.361 90.819 95.48Z" fill="#F7F8F9" />
</svg>