<svg fill="none" height="168" viewBox="0 0 168 168" width="168" xmlns="http://www.w3.org/2000/svg">
	<g clip-path="url(#clip0_2592_41579)">
		<rect fill="#BBD2FF" height="168" rx="8" width="168" />
		<rect fill="url(#paint0_radial_2592_41579)" height="168" rx="8" width="168" />
		<rect fill="url(#paint1_radial_2592_41579)" height="168" rx="8" width="168" />
		<g filter="url(#filter0_i_2592_41579)">
			<path clip-rule="evenodd" d="M74.882 43.246C102.251 5.07561 178.349 10.3863 219.402 47.229C296.835 116.6 196.372 287.537 102.251 219.162C49.1299 181.441 39.6627 95.7712 74.882 43.246Z" fill="url(#paint2_linear_2592_41579)" fill-rule="evenodd" />
		</g>
		<g filter="url(#filter1_i_2592_41579)">
			<path clip-rule="evenodd" d="M45.6541 36.7465C137.854 -1.02289 253.395 89.7016 163.529 190.55C130.762 226.992 61.6075 266.629 12.587 238.443C-67.4379 193.788 -25.8632 66.2213 45.6541 36.7465Z" fill="url(#paint3_linear_2592_41579)" fill-rule="evenodd" />
		</g>
		<path d="M62 71H71L62 80V71Z" fill="black" fill-opacity="0.25" />
		<path d="M89 85.5C89 88.5376 86.5376 91 83.5 91C80.4624 91 78 88.5376 78 85.5C78 82.4624 80.4624 80 83.5 80C86.5376 80 89 82.4624 89 85.5Z" fill="black" fill-opacity="0.25" />
		<path d="M71 98H62V89L71 98Z" fill="black" fill-opacity="0.25" />
		<path d="M106 71H97L106 80V71Z" fill="black" fill-opacity="0.25" />
		<path d="M97 98H106V89L97 98Z" fill="black" fill-opacity="0.25" />
		<path clip-rule="evenodd" d="M84.5 78C80.3579 78 77 81.3579 77 85.5C77 89.6421 80.3579 93 84.5 93C88.6421 93 92 89.6421 92 85.5C92 81.3579 88.6421 78 84.5 78ZM80 85.5C80 83.0147 82.0147 81 84.5 81C86.9853 81 89 83.0147 89 85.5C89 87.9853 86.9853 90 84.5 90C82.0147 90 80 87.9853 80 85.5Z" fill="white" fill-rule="evenodd" />
		<path clip-rule="evenodd" d="M105.857 100C107.681 100 109 98.4542 109 96.75V72.25C109 70.5458 107.681 69 105.857 69H63.1429C61.3192 69 60 70.5458 60 72.25V96.75C60 98.4542 61.3192 100 63.1429 100H105.857ZM63 72.25C63 72.1505 63.037 72.0795 63.0748 72.0392C63.111 72.0006 63.1352 72 63.1429 72H69.8787L63 78.8787V72.25ZM63 83.1213L74.1213 72H94.8787L106 83.1213V85.8787L94.8787 97H74.1213L63 85.8787V83.1213ZM99.1213 97L106 90.1213V96.75C106 96.8495 105.963 96.9205 105.925 96.9608C105.889 96.9994 105.865 97 105.857 97H99.1213ZM106 78.8787L99.1213 72H105.857C105.865 72 105.889 72.0006 105.925 72.0392C105.963 72.0795 106 72.1505 106 72.25V78.8787ZM63 90.1213L69.8787 97H63.1429C63.1352 97 63.111 96.9994 63.0748 96.9608C63.037 96.9205 63 96.8495 63 96.75V90.1213Z" fill="white" fill-rule="evenodd" />
	</g>
	<defs>
		<filter color-interpolation-filters="sRGB" filterUnits="userSpaceOnUse" height="218" id="filter0_i_2592_41579" width="193" x="54" y="17">
			<feFlood flood-opacity="0" result="BackgroundImageFix" />
			<feBlend in="SourceGraphic" in2="BackgroundImageFix" mode="normal" result="shape" />
			<feColorMatrix in="SourceAlpha" result="hardAlpha" type="matrix" values="0 0 0 0 0 0 0 0 0 0 0 0 0 0 0 0 0 0 127 0" />
			<feOffset dy="0.65" />
			<feComposite in2="hardAlpha" k2="-1" k3="1" operator="arithmetic" />
			<feColorMatrix type="matrix" values="0 0 0 0 1 0 0 0 0 1 0 0 0 0 1 0 0 0 0.3 0" />
			<feBlend in2="shape" mode="normal" result="effect1_innerShadow_2592_41579" />
		</filter>
		<filter color-interpolation-filters="sRGB" filterUnits="userSpaceOnUse" height="220" id="filter1_i_2592_41579" width="227" x="-31" y="28">
			<feFlood flood-opacity="0" result="BackgroundImageFix" />
			<feBlend in="SourceGraphic" in2="BackgroundImageFix" mode="normal" result="shape" />
			<feColorMatrix in="SourceAlpha" result="hardAlpha" type="matrix" values="0 0 0 0 0 0 0 0 0 0 0 0 0 0 0 0 0 0 127 0" />
			<feOffset dy="0.65" />
			<feComposite in2="hardAlpha" k2="-1" k3="1" operator="arithmetic" />
			<feColorMatrix type="matrix" values="0 0 0 0 1 0 0 0 0 1 0 0 0 0 1 0 0 0 0.3 0" />
			<feBlend in2="shape" mode="normal" result="effect1_innerShadow_2592_41579" />
		</filter>
		<radialGradient cx="0" cy="0" gradientTransform="translate(-96.6 152) rotate(-38.9012) scale(214.975 211.687)" gradientUnits="userSpaceOnUse" id="paint0_radial_2592_41579" r="1">
			<stop stop-color="#06004D" />
			<stop offset="0.334167" stop-color="#0001A5" />
			<stop offset="0.559901" stop-color="#0069FF" />
			<stop offset="1" stop-color="#00E0FF" />
		</radialGradient>
		<radialGradient cx="0" cy="0" gradientTransform="translate(-4.8399e-06 168) rotate(-70.5548) scale(121.956 309.896)" gradientUnits="userSpaceOnUse" id="paint1_radial_2592_41579" r="1">
			<stop offset="0.163356" stop-color="#FF6DA3" />
			<stop offset="0.558499" stop-color="#CA00FA" stop-opacity="0.8" />
			<stop offset="1" stop-color="#CA00FA" stop-opacity="0" />
		</radialGradient>
		<linearGradient gradientUnits="userSpaceOnUse" id="paint2_linear_2592_41579" x1="151.644" x2="118.091" y1="17" y2="148.12">
			<stop stop-color="white" stop-opacity="0.36" />
			<stop offset="0.39523" stop-color="white" stop-opacity="0.06" />
			<stop offset="1" stop-color="white" stop-opacity="0" />
		</linearGradient>
		<linearGradient gradientUnits="userSpaceOnUse" id="paint3_linear_2592_41579" x1="83.846" x2="54.3136" y1="28" y2="162.503">
			<stop stop-color="white" stop-opacity="0.36" />
			<stop offset="0.39523" stop-color="white" stop-opacity="0.06" />
			<stop offset="1" stop-color="white" stop-opacity="0" />
		</linearGradient>
		<clipPath id="clip0_2592_41579">
			<rect fill="white" height="168" rx="8" width="168" />
		</clipPath>
	</defs>
</svg>