<svg height="20" viewBox="0 96 960 960" width="20" xmlns="http://www.w3.org/2000/svg">
	<path d="M326.789 755.5q13.711 0 23.711-9.789 10-9.79 10-23.5 0-13.711-9.789-23.711-9.79-10-23.5-10-13.711 0-23.711 9.789-10 9.79-10 23.5 0 13.711 9.789 23.711 9.79 10 23.5 10Zm0-146q13.711 0 23.711-9.789 10-9.79 10-23.5 0-13.711-9.789-23.711-9.79-10-23.5-10-13.711 0-23.711 9.789-10 9.79-10 23.5 0 13.711 9.789 23.711 9.79 10 23.5 10Zm0-147q13.711 0 23.711-9.789 10-9.79 10-23.5 0-13.711-9.789-23.711-9.79-10-23.5-10-13.711 0-23.711 9.789-10 9.79-10 23.5 0 13.711 9.789 23.711 9.79 10 23.5 10ZM433 756h234v-67H433v67Zm0-147h234v-67H433v67Zm0-146h234v-67H433v67ZM232 937q-47.637 0-80.319-32.681Q119 871.638 119 824V328q0-47.638 32.681-80.319Q184.363 215 232 215h496q47.638 0 80.319 32.681Q841 280.362 841 328v496q0 47.638-32.681 80.319Q775.638 937 728 937H232Zm0-113h496V328H232v496Zm0-496v496-496Z" />
</svg>