<svg height="20" viewBox="0 96 960 960" width="20" xmlns="http://www.w3.org/2000/svg">
	<path d="M315 368q-19 0-32.5 13T269 413q0 19 13.5 32.5T315 459q19 0 32-13.5t13-32.5q0-19-13-32t-32-13Zm0 373q-19 0-32.5 13.5T269 787q0 19 13.5 32t32.5 13q19 0 32-13t13-32q0-19-13-32.5T315 741ZM200 252h560q19.4 0 33.2 13.3Q807 278.6 807 298v230q0 20.4-13.8 33.7Q779.4 575 760 575H200q-19.4 0-33.2-13.3Q153 548.4 153 528V298q0-19.4 13.8-32.7Q180.6 252 200 252Zm0 373h560q19.4 0 33.2 13.8Q807 652.6 807 672v229q0 20.4-13.8 33.7Q779.4 948 760 948H200q-19.4 0-33.2-13.3Q153 921.4 153 901V672q0-19.4 13.8-33.2Q180.6 625 200 625Z" />
</svg>