<svg fill="none" height="40" viewBox="0 0 40 40" width="40" xmlns="http://www.w3.org/2000/svg">
	<rect fill="#E2E2E4" height="40" rx="20" width="40" />
	<mask height="16" id="mask0_1569_31371" maskUnits="userSpaceOnUse" style="mask-type:alpha" width="14" x="13" y="12">
		<path clip-rule="evenodd" d="M27 14.2788C27.0016 14.0735 26.9436 13.8722 26.8332 13.6988C26.7227 13.5253 26.5643 13.3872 26.377 13.3008C24.3679 12.4237 22.1943 11.9806 20 12.0007C17.8057 11.9806 15.6321 12.4237 13.623 13.3008C13.4357 13.3872 13.2773 13.5253 13.1668 13.6988C13.0563 13.8722 12.9984 14.0735 13 14.2788V19.5912C12.9972 21.315 13.519 22.9993 14.4969 24.4229C15.4749 25.8466 16.8632 26.9432 18.4796 27.5685L19.2265 27.8565C19.7242 28.0478 20.2758 28.0478 20.7735 27.8565L21.5204 27.5685C23.1368 26.9432 24.5251 25.8466 25.5031 24.4229C26.481 22.9993 27.0028 21.315 27 19.5912V14.2788ZM25.0925 17.3209C25.2748 17.1256 25.337 16.9051 25.3084 16.6967C25.2803 16.4912 25.1651 16.306 25.0083 16.1722C24.8513 16.0384 24.6468 15.9509 24.4322 15.9477C24.215 15.9444 23.9941 16.0277 23.8117 16.2237L23.8109 16.2245L19.1869 21.3041L16.8176 19.033C16.4513 18.6684 15.9431 18.7683 15.6392 19.0389C15.4856 19.1756 15.3743 19.3625 15.3537 19.5703C15.3329 19.7812 15.4069 20.0019 15.6027 20.1984L18.6193 23.0895C18.7804 23.2438 19.0006 23.3294 19.2256 23.3294L19.2506 23.3293C19.4838 23.3215 19.7066 23.2229 19.8646 23.0533L19.8653 23.0525L25.0925 17.3209Z" fill="#6B6C7E" fill-rule="evenodd" />
	</mask>
	<g mask="url(#mask0_1569_31371)">
		<rect fill="#3F404B" height="16" width="16" x="12" y="12" />
	</g>
</svg>